<?xml version="1.0" encoding="utf-8"?>
<!-- Generator: Adobe Illustrator 17.0.0, SVG Export Plug-In . SVG Version: 6.00 Build 0)  -->
<!DOCTYPE svg PUBLIC "-//W3C//DTD SVG 1.1//EN" "http://www.w3.org/Graphics/SVG/1.1/DTD/svg11.dtd">
<svg version="1.1" id="Layer_1" xmlns="http://www.w3.org/2000/svg" xmlns:xlink="http://www.w3.org/1999/xlink" x="0px" y="0px"
	 width="469px" height="706px" viewBox="0 0 469 706" enable-background="new 0 0 469 706" xml:space="preserve">
<path d="M111.667,119.667c21.866-14.692,44.506-28.848,52-35.333c17.333-15,20.985-16.017,38.667-34
	C241.305,10.697,255.833,41.667,283,65c0,0,140,86,125.333,106C393,197.667,313,175,299,201.667S327,528.333,310.333,535
	c-16.667,6.667-20.819-24.677-71.279-22.667c-41.245,1.643-74.882,56.681-64.721-25.333c0,0,13.728-187.181,12.667-207.339
	c-3.333-63.328-6-107.328-94-93.328c0,0-20.538,7.088-24-12.667C64.558,148.323,89.8,134.359,111.667,119.667z"/>
<path d="M245.805,629.921c88.388-12,53.054-68,47.054-74s-33.333-34.667-70.667-26C184.859,538.588,157.418,641.921,245.805,629.921
	z"/>
</svg>
