<?xml version="1.0" encoding="utf-8"?>
<!-- Generator: Adobe Illustrator 19.2.1, SVG Export Plug-In . SVG Version: 6.00 Build 0)  -->
<svg version="1.1" id="Layer_2" xmlns="http://www.w3.org/2000/svg" xmlns:xlink="http://www.w3.org/1999/xlink" x="0px" y="0px"
	 viewBox="0 0 17.958 23.208" style="enable-background:new 0 0 17.958 23.208;" xml:space="preserve">
<style type="text/css">
	.st0{fill:none;stroke:#003E99;stroke-linecap:round;stroke-miterlimit:10;}
</style>
<path class="st0" d="M11.318,5.647c-0.447-0.599-1.33-0.638-2-0.667c-3.101-0.135-5.513,2.918-5.667,2.75
	C3.599,7.674,3.847,7.294,4.568,6.564c1.766-1.787,3.217-3.337,4.917-3.083c0.846,0.126,1.478,0.604,2.333,1.25
	c1.584,1.197,2.945,2.905,2.667,3.25c-0.315,0.39-2.213-1.597-5.167-1.5C7.867,6.529,6.754,7.06,6.235,7.314
	c-1.692,0.828-2.719,2.051-3.5,3c-1.245,1.513-1.633,2.581-1.833,2.5c-0.272-0.11,0.13-2.22,1.083-4.167
	c0.367-0.75,1.181-2.368,2.917-3.833c0.928-0.783,2.808-2.369,4.75-2.333c4.808,0.088,7.683,10.063,7.5,10.167
	c-0.062,0.035-1.417-3.451-4.583-4.333c-0.3-0.084-0.526-0.119-0.833-0.167C8.834,7.695,6.139,8.416,6.152,8.814
	c0.017,0.557,5.344,0.668,5.333,1c-0.011,0.332-5.333,0.388-5.333,0.583c0,0.194,5.238,0.242,5.25,0.583
	c0.012,0.34-5.18,0.698-5.167,1c0.014,0.303,5.241,0.238,5.25,0.5c0.01,0.269-5.505,0.559-5.5,0.917
	c0.005,0.365,5.753,0.502,5.75,0.75c-0.003,0.235-5.168,0.338-5.167,0.5c0.001,0.155,4.742,0.166,4.75,0.417
	c0.009,0.266-5.342,0.575-5.333,0.833c0.009,0.261,5.485,0.185,5.5,0.5c0.014,0.31-5.266,0.734-5.25,1
	c0.016,0.264,5.224,0.07,5.25,0.417c0.025,0.327-4.609,0.854-4.583,1.167c0.026,0.311,4.629,0.048,4.667,0.417
	c0.04,0.389-5.035,1.136-5,1.417c0.035,0.278,5.04-0.228,5.083,0.083c0.01,0.069-0.227,0.154-0.479,0.236
	c-2.143,0.698-3.5,1.14-4.153,0.683c-1.317-0.922,0.342-5.435,0.917-7C9.876,9.54,12.325,6.998,11.318,5.647z"/>
</svg>
