<?xml version="1.0" encoding="utf-8"?>
<!-- Generator: Adobe Illustrator 17.0.0, SVG Export Plug-In . SVG Version: 6.00 Build 0)  -->
<!DOCTYPE svg PUBLIC "-//W3C//DTD SVG 1.1//EN" "http://www.w3.org/Graphics/SVG/1.1/DTD/svg11.dtd">
<svg version="1.1" id="Layer_1" xmlns="http://www.w3.org/2000/svg" xmlns:xlink="http://www.w3.org/1999/xlink" x="0px" y="0px"
	 width="469px" height="706px" viewBox="0 0 469 706" enable-background="new 0 0 469 706" xml:space="preserve">
<path d="M177.861,208.898c0,0-4.361-26.729,20.288-13.869c16.013,8.354,39.085,12.864,77.346,1.847
	c9.02-2.597,31.505-18.458,24.255,9.792c0,0-22.25,167.501-9.75,244.001c4.639,28.388,4.5,42,74.5,33c38-9.5,9.848,38.651-0.5,50
	c-77.5,85-109.5,117-123,117c-37.5-4-136.119-116.408-143-126.169c-21.5-30.5-14.5-41.331-4.5-44.831s72.079,11.348,79.579-11.152
	c0,0,21.355-57.437,20.421-136.848C193,289.169,176.861,215.398,177.861,208.898z"/>
</svg>
