<?xml version="1.0" encoding="utf-8"?>
<!-- Generator: Adobe Illustrator 19.2.1, SVG Export Plug-In . SVG Version: 6.00 Build 0)  -->
<svg version="1.1" id="Layer_2" xmlns="http://www.w3.org/2000/svg" xmlns:xlink="http://www.w3.org/1999/xlink" x="0px" y="0px"
	 viewBox="0 0 17.958 23.208" style="enable-background:new 0 0 17.958 23.208;" xml:space="preserve">
<style type="text/css">
	.st0{fill:none;stroke:#003E99;stroke-linecap:round;stroke-miterlimit:10;}
</style>
<path class="st0" d="M6.66,18.836c0.447,0.599,1.33,0.638,2,0.667c3.101,0.135,5.513-2.918,5.667-2.75
	c0.052,0.057-0.196,0.437-0.917,1.167c-1.766,1.787-3.217,3.337-4.917,3.083c-0.846-0.126-1.478-0.604-2.333-1.25
	c-1.584-1.197-2.945-2.905-2.667-3.25c0.315-0.39,2.213,1.597,5.167,1.5c1.451-0.048,2.564-0.579,3.083-0.833
	c1.692-0.828,2.719-2.051,3.5-3c1.245-1.513,1.633-2.581,1.833-2.5c0.272,0.11-0.13,2.22-1.083,4.167
	c-0.367,0.75-1.181,2.368-2.917,3.833c-0.928,0.783-2.808,2.369-4.75,2.333c-4.808-0.088-7.683-10.063-7.5-10.167
	c0.062-0.035,1.417,3.451,4.583,4.333c0.3,0.084,0.526,0.119,0.833,0.167c2.901,0.452,5.596-0.269,5.583-0.667
	c-0.017-0.557-5.344-0.668-5.333-1c0.011-0.332,5.333-0.388,5.333-0.583c0-0.194-5.238-0.242-5.25-0.583
	c-0.012-0.34,5.18-0.698,5.167-1c-0.014-0.303-5.241-0.238-5.25-0.5c-0.01-0.269,5.505-0.559,5.5-0.917
	c-0.005-0.365-5.753-0.502-5.75-0.75c0.003-0.235,5.168-0.338,5.167-0.5c-0.001-0.155-4.742-0.166-4.75-0.417
	c-0.009-0.266,5.342-0.575,5.333-0.833c-0.009-0.261-5.485-0.185-5.5-0.5c-0.014-0.31,5.266-0.734,5.25-1
	c-0.016-0.264-5.224-0.07-5.25-0.417c-0.025-0.327,4.609-0.854,4.583-1.167C11.05,5.192,6.447,5.455,6.41,5.086
	c-0.04-0.389,5.035-1.136,5-1.417c-0.035-0.278-5.04,0.228-5.083-0.083C6.317,3.516,6.554,3.432,6.805,3.35
	c2.143-0.698,3.5-1.14,4.153-0.683c1.317,0.922-0.342,5.435-0.917,7C8.102,14.943,5.653,17.485,6.66,18.836z"/>
</svg>
