<?xml version="1.0" encoding="utf-8"?>
<!-- Generator: Adobe Illustrator 19.2.1, SVG Export Plug-In . SVG Version: 6.00 Build 0)  -->
<svg version="1.1" id="Layer_2" xmlns="http://www.w3.org/2000/svg" xmlns:xlink="http://www.w3.org/1999/xlink" x="0px" y="0px"
	 viewBox="0 0 84.75 34.25" style="enable-background:new 0 0 84.75 34.25;" xml:space="preserve">

	 <defs>
		<style type="text/css">
			.st00{fill:none;stroke:#002F80;stroke-linecap:round;stroke-miterlimit:10;}
			.st01{fill:none;stroke:#003E99;stroke-linecap:round;stroke-miterlimit:10;}

			.st00,
			.st01 {
				stroke-dasharray: 800;
				stroke-dashoffset: 0;
				opacity: 0;

				-webkit-animation: dash 5s linear forwards;
				-o-animation: dash 5s linear forwards;
				-moz-animation: dash 5s linear forwards;
				animation: dash 5s linear forwards;
				animation-delay: 1s;

			}

			@keyframes dash {
				from {
					stroke-dashoffset: 800;
				}
				20% {
					stroke-dashoffset: 800;
					opacity: 0;
				}
				30% {
					opacity: 1;
				}
				to {
					stroke-dashoffset: 0;
					opacity: 1;
				}
			}

		</style>
	 </defs>
<style type="text/css">
	
</style>
<path class="st00" d="M15.613,10.494c-5.207,0.312-9.797,2.943-11.902,6.918c-1.845,3.483-1.878,8.181,1.121,11.544
	c3.064,3.435,9.004,5.127,11.575,3.521c0.869-0.543,1.879-1.79,1.494-2.456c-0.315-0.544-1.543-0.701-1.774-0.409
	c-0.302,0.381,1.054,1.584,0.933,1.679c-0.145,0.112-1.987-1.668-2.287-1.473c-0.279,0.18,0.954,1.935,0.7,2.088
	c-0.246,0.148-1.543-1.428-1.96-1.228c-0.391,0.187,0.173,1.852,0.233,1.842c0.076-0.013-0.377-2.703-0.794-2.702
	c-0.328,0.001-0.235,1.668-1.213,2.006c-0.474,0.163-1.146-0.003-1.307-0.327c-0.343-0.689,1.641-2.029,1.54-2.128
	c-0.124-0.123-2.964,2.108-3.361,1.801c-0.326-0.253,1.198-2.068,0.887-2.292c-0.313-0.227-2.148,1.41-2.381,1.228
	c-0.239-0.188,1.511-2.089,1.26-2.292c-0.255-0.207-2.367,1.524-2.567,1.351c-0.2-0.172,1.767-2.005,1.447-2.334
	c-0.291-0.298-2.255,0.866-2.427,0.655c-0.171-0.21,1.662-1.511,1.494-1.719c-0.173-0.214-2.297,0.909-2.427,0.737
	c-0.131-0.175,1.99-1.428,1.774-1.801c-0.205-0.355-2.39,0.324-2.474,0.123c-0.087-0.208,2.21-1.013,2.101-1.351
	c-0.1-0.309-2.152-0.012-2.194-0.205c-0.044-0.208,2.322-0.632,2.287-1.024c-0.033-0.374-2.244-0.456-2.241-0.696
	c0.003-0.241,2.218-0.3,2.241-0.614c0.022-0.306-2.04-0.63-2.007-0.818c0.033-0.184,1.999,0.034,2.101-0.327
	c0.023-0.079-0.053-0.158-0.125-0.229c-0.693-0.681-1.578-1.066-1.556-1.121c0.035-0.082,2.061,0.634,2.241,0.369
	c0.191-0.282-1.808-1.513-1.634-1.76c0.177-0.25,2.385,0.787,2.567,0.532c0.178-0.25-1.748-1.509-1.587-1.719
	c0.15-0.196,1.932,0.746,2.147,0.491c0.201-0.238-1.124-1.332-0.98-1.473c0.149-0.147,1.628,0.963,1.913,0.737
	c0.299-0.237-0.921-1.773-0.747-1.883c0.169-0.107,1.393,1.299,1.68,1.146c0.295-0.157-0.653-1.821-0.373-1.965
	c0.286-0.148,1.536,1.472,1.867,1.31c0.3-0.147-0.407-1.628-0.186-1.719c0.237-0.097,1.2,1.547,1.54,1.433
	c0.372-0.124-0.315-2.237,0-2.334c0.302-0.092,1.141,1.781,1.587,1.679c0.449-0.104,0.124-2.124,0.42-2.169
	c0.3-0.046,0.868,2.09,1.213,2.047c0.347-0.043-0.076-2.215,0.617-2.425c0.475-0.144,1.421,0.647,1.632,1.546
	c0.25,1.064-0.531,2.275-1.316,2.354c-0.647,0.065-0.886-0.665-1.96-0.818c-0.787-0.112-1.596,0.179-1.587,0.327
	c0.018,0.303,3.458,0.571,3.594,0.123c0.045-0.147-0.277-0.339-0.326-0.369c-1.08-0.643-3.033,0.268-4.387,0.901
	c-1.478,0.689-2.344,1.06-3.174,1.883c-1.402,1.391-2.818,3.86-2.147,6.713c0.655,2.791,3.021,4.726,5.227,5.485
	c1.045,0.36,2.92,0.754,3.547,0.082c0.487-0.521-0.046-1.392,0.56-1.801c0.477-0.321,1.247-0.078,1.494,0
	c0.985,0.312,1.348,1.107,1.401,1.228c0.103,0.236,0.308,0.872,0.093,0.982c-0.197,0.102-0.78-0.223-2.474-2.088"/>
<path class="st00" d="M33.486,16.304c0.208,0.267,0.456,0.565,0.503,0.534c0.102-0.065-0.407-1.876-1.698-2.768
	c-2.12-1.463-5.889-1.271-6.918,0.692c-0.665,1.269-0.131,3.179,0.943,4.403c2.401,2.733,6.21,0.569,8.962,3.239
	c1.519,1.474,2.216,3.937,1.604,6.038c-0.828,2.844-3.727,3.908-4.56,4.214c-2.776,1.019-6.891,0.848-8.27-1.478
	c-0.824-1.389-0.742-3.668,0.346-4.245c1.22-0.647,3.313,1.057,3.239,1.227c-0.075,0.171-2.533-0.845-2.642-0.597
	c-0.106,0.242,2.178,1.379,2.076,1.604c-0.104,0.23-2.6-0.707-2.642-0.597c-0.045,0.118,2.854,1.226,2.768,1.509
	c-0.078,0.255-2.533-0.26-2.547-0.189c-0.014,0.075,2.686,0.491,2.673,0.912c-0.012,0.382-2.254,0.675-2.264,0.629
	c-0.011-0.053,2.922-0.91,3.144-0.44c0.169,0.357-1.254,1.414-1.227,1.446c0.032,0.037,1.624-1.567,2.107-1.258
	c0.393,0.252-0.074,1.688-0.031,1.698c0.052,0.011,0.424-2.201,0.849-2.201c0.381,0,0.666,1.784,0.786,1.761
	c0.12-0.023-0.214-1.814,0.031-1.887c0.253-0.075,0.943,1.722,1.101,1.667c0.184-0.065-0.643-2.579-0.409-2.673
	c0.243-0.097,1.471,2.469,1.572,2.421c0.106-0.05-1.245-2.885-1.006-3.019s1.956,2.491,2.013,2.453
	c0.061-0.041-2.07-3.072-1.793-3.302c0.278-0.231,2.869,2.446,2.925,2.39c0.056-0.057-2.631-2.688-2.453-2.893
	c0.178-0.204,3.105,2.073,3.176,1.981c0.074-0.096-3.136-2.537-2.925-2.862c0.207-0.317,3.578,1.542,3.648,1.415
	c0.074-0.136-3.847-2.195-3.648-2.673c0.184-0.444,3.847,0.647,3.868,0.566c0.022-0.085-4.062-1.057-3.994-1.572
	c0.059-0.444,3.178-0.405,3.176-0.503c-0.002-0.102-3.41,0.053-3.491-0.44c-0.063-0.39,1.981-1.049,1.95-1.132
	c-0.034-0.091-2.443,0.865-2.642,0.503c-0.155-0.282,1.08-1.273,1.038-1.32c-0.049-0.055-1.534,1.425-1.981,1.132
	c-0.348-0.228,0.073-1.438-0.063-1.478c-0.148-0.043-0.6,1.401-0.943,1.352c-0.263-0.038-0.213-0.914-0.566-1.006
	c-0.369-0.096-0.818,0.798-1.069,0.692c-0.226-0.096,0.007-0.885-0.252-1.006c-0.246-0.115-0.685,0.493-0.881,0.378
	c-0.181-0.107,0.07-0.7-0.126-0.818c-0.178-0.106-0.516,0.299-0.692,0.189c-0.157-0.099,0.058-0.464-0.126-0.692
	c-0.229-0.284-0.805-0.019-0.943-0.252c-0.131-0.22,0.316-0.571,0.189-0.818c-0.145-0.279-0.848-0.078-0.943-0.315
	c-0.084-0.208,0.428-0.447,0.378-0.755c-0.064-0.392-0.958-0.4-1.006-0.755c-0.043-0.315,0.641-0.488,0.629-0.881
	c-0.011-0.39-0.693-0.501-0.692-0.881c0.001-0.293,0.408-0.304,0.629-0.755c0.268-0.547-0.091-1.015,0.189-1.258
	c0.222-0.193,0.5,0.055,0.755-0.126c0.424-0.302,0.072-1.287,0.315-1.383c0.243-0.097,0.727,0.836,0.943,0.755
	c0.225-0.084-0.223-1.448-0.063-1.509c0.157-0.061,0.7,1.205,0.943,1.132c0.235-0.071,0-1.338,0.189-1.383
	c0.183-0.043,0.54,1.114,0.755,1.069c0.208-0.043,0.109-1.177,0.252-1.195c0.151-0.019,0.318,1.248,0.629,1.258
	c0.3,0.01,0.534-1.162,0.692-1.132c0.16,0.03-0.077,1.24,0.252,1.383c0.28,0.121,0.821-0.979,1.069-0.881
	c0.229,0.091-0.077,1.058,0.189,1.195c0.244,0.125,0.812-0.851,1.006-0.755c0.2,0.098-0.238,1.189,0,1.32
	c0.22,0.121,0.818-0.683,1.006-0.566c0.178,0.112-0.265,0.894,0,1.132c0.23,0.208,0.792-0.184,0.943,0
	c0.151,0.184-0.333,0.678-0.189,0.881c0.196,0.276,1.337-0.31,1.446-0.126c0.154,0.259-0.615,1.308-0.881,1.195
	c-0.326-0.138,0.145-2.053,0.22-2.044c0.089,0.011-0.118,2.799-0.283,2.799c-0.185,0-0.313-3.524-0.346-3.522
	c-0.036,0.001,0.052,4.34,0.157,4.34c0.094-0.001,0.415-3.524-0.126-3.648c-0.51-0.118-1.831,2.776-1.446,3.05
	c0.314,0.223,1.935-1.18,1.761-1.509c-0.137-0.259-1.482-0.043-2.201,0.818c-0.169,0.202-0.5,0.599-0.378,0.912
	c0.231,0.59,2.058,0.848,3.019,0c0.868-0.767,0.761-2.199,0.471-3.05c-0.755-2.224-3.598-2.966-5.126-3.365
	c-1.579-0.412-2.957-0.776-4.34-0.063c-1.541,0.796-2.166,2.448-2.453,3.207c-0.543,1.437-0.461,2.638-0.44,2.893
	c0.115,1.411,0.676,2.392,1.006,2.956c0.349,0.595,1.061,1.777,2.453,2.579c1.063,0.612,2.197,0.815,2.579,0.881
	c1.299,0.222,1.688,0.028,2.264,0.44c0.899,0.644,0.984,1.906,1.006,2.232c0.093,1.365-0.63,2.345-0.881,2.673
	c-0.64,0.84-1.405,1.196-1.824,1.383c-0.597,0.268-1.364,0.612-1.824,0.252c-0.257-0.202-0.378-0.592-0.315-0.943
	c0.089-0.5,0.515-0.728,0.566-0.755"/>
<path class="st00" d="M51.756,16.305c0.208,0.267,0.456,0.565,0.503,0.534c0.102-0.065-0.407-1.876-1.698-2.768
	c-2.12-1.463-5.889-1.271-6.918,0.692c-0.665,1.269-0.131,3.179,0.943,4.403c2.401,2.733,6.21,0.569,8.962,3.239
	c1.519,1.474,2.216,3.937,1.604,6.038c-0.828,2.844-3.727,3.908-4.56,4.214c-2.776,1.019-6.891,0.848-8.27-1.478
	c-0.824-1.389-0.742-3.668,0.346-4.245c1.22-0.647,3.313,1.057,3.239,1.227c-0.075,0.171-2.533-0.845-2.642-0.597
	c-0.106,0.242,2.178,1.379,2.076,1.604c-0.104,0.23-2.6-0.707-2.642-0.597c-0.045,0.118,2.854,1.226,2.768,1.509
	c-0.078,0.255-2.533-0.26-2.547-0.189c-0.014,0.075,2.686,0.491,2.673,0.912c-0.012,0.382-2.254,0.675-2.264,0.629
	c-0.011-0.053,2.922-0.91,3.144-0.44c0.169,0.357-1.254,1.414-1.227,1.446c0.032,0.037,1.624-1.567,2.107-1.258
	c0.393,0.252-0.074,1.688-0.031,1.698c0.052,0.011,0.424-2.201,0.849-2.201c0.381,0,0.666,1.784,0.786,1.761
	c0.12-0.023-0.214-1.814,0.031-1.887c0.253-0.075,0.943,1.722,1.101,1.667c0.184-0.065-0.643-2.579-0.409-2.673
	c0.243-0.097,1.471,2.469,1.572,2.421c0.106-0.05-1.245-2.885-1.006-3.019c0.238-0.133,1.956,2.491,2.013,2.453
	c0.061-0.041-2.07-3.072-1.793-3.302c0.278-0.231,2.869,2.446,2.925,2.39c0.056-0.057-2.631-2.688-2.453-2.893
	c0.178-0.204,3.105,2.073,3.176,1.981c0.074-0.096-3.136-2.537-2.925-2.862c0.207-0.317,3.578,1.542,3.648,1.415
	c0.074-0.136-3.847-2.195-3.648-2.673c0.184-0.444,3.847,0.647,3.868,0.566c0.022-0.085-4.062-1.057-3.994-1.572
	c0.059-0.444,3.178-0.405,3.176-0.503c-0.002-0.102-3.41,0.053-3.491-0.44c-0.063-0.39,1.981-1.049,1.95-1.132
	c-0.034-0.091-2.443,0.865-2.642,0.503c-0.155-0.282,1.08-1.273,1.038-1.32c-0.049-0.055-1.534,1.425-1.981,1.132
	c-0.348-0.228,0.073-1.438-0.063-1.478c-0.148-0.043-0.6,1.401-0.943,1.352c-0.263-0.038-0.213-0.914-0.566-1.006
	c-0.369-0.097-0.819,0.798-1.069,0.692c-0.226-0.096,0.007-0.885-0.252-1.006c-0.246-0.115-0.685,0.493-0.881,0.378
	c-0.181-0.107,0.07-0.7-0.126-0.818c-0.178-0.106-0.516,0.299-0.692,0.189c-0.157-0.099,0.058-0.464-0.126-0.692
	c-0.229-0.284-0.805-0.019-0.943-0.252c-0.131-0.22,0.316-0.571,0.189-0.818c-0.145-0.279-0.848-0.078-0.943-0.315
	c-0.084-0.208,0.428-0.447,0.378-0.755c-0.064-0.392-0.958-0.4-1.006-0.755c-0.043-0.315,0.641-0.488,0.629-0.881
	c-0.011-0.39-0.693-0.501-0.692-0.881c0.001-0.293,0.408-0.304,0.629-0.755c0.268-0.547-0.091-1.015,0.189-1.258
	c0.222-0.193,0.5,0.055,0.755-0.126c0.424-0.302,0.072-1.287,0.315-1.383c0.243-0.097,0.727,0.836,0.943,0.755
	c0.225-0.084-0.223-1.448-0.063-1.509c0.157-0.061,0.7,1.205,0.943,1.132c0.235-0.071,0-1.338,0.189-1.383
	c0.183-0.043,0.54,1.114,0.755,1.069c0.208-0.043,0.109-1.177,0.252-1.195c0.151-0.019,0.318,1.248,0.629,1.258
	c0.3,0.01,0.534-1.162,0.692-1.132c0.16,0.03-0.077,1.24,0.252,1.383c0.28,0.121,0.821-0.979,1.069-0.881
	c0.229,0.091-0.077,1.058,0.189,1.195c0.244,0.125,0.812-0.851,1.006-0.755c0.2,0.098-0.238,1.189,0,1.32
	c0.22,0.121,0.818-0.683,1.006-0.566c0.178,0.112-0.265,0.894,0,1.132c0.23,0.208,0.792-0.184,0.943,0
	c0.151,0.184-0.333,0.678-0.189,0.881c0.196,0.276,1.337-0.31,1.446-0.126c0.154,0.259-0.615,1.308-0.881,1.195
	c-0.326-0.138,0.145-2.053,0.22-2.044c0.089,0.011-0.118,2.799-0.283,2.799c-0.185,0-0.313-3.524-0.346-3.522
	c-0.036,0.002,0.052,4.34,0.157,4.34c0.094-0.001,0.415-3.524-0.126-3.648c-0.51-0.118-1.831,2.776-1.446,3.05
	c0.314,0.223,1.935-1.18,1.761-1.509c-0.137-0.259-1.482-0.043-2.201,0.818c-0.169,0.202-0.5,0.599-0.378,0.912
	c0.231,0.59,2.058,0.848,3.019,0c0.868-0.767,0.761-2.199,0.471-3.05c-0.755-2.224-3.598-2.966-5.126-3.365
	c-1.579-0.412-2.957-0.776-4.34-0.063c-1.541,0.796-2.166,2.448-2.453,3.207c-0.543,1.437-0.461,2.638-0.44,2.893
	c0.115,1.411,0.676,2.392,1.006,2.956c0.349,0.595,1.061,1.777,2.453,2.579c1.063,0.612,2.197,0.815,2.579,0.881
	c1.299,0.222,1.688,0.028,2.264,0.44c0.899,0.644,0.984,1.906,1.006,2.232c0.093,1.365-0.63,2.345-0.881,2.673
	c-0.64,0.84-1.405,1.196-1.824,1.383c-0.597,0.268-1.364,0.612-1.824,0.252c-0.257-0.202-0.378-0.592-0.315-0.943
	c0.089-0.5,0.515-0.728,0.566-0.755"/>
<path class="st01" d="M63.25,7.455c0.82,1.378,1.366,2.356,1.712,3.06c0.06,0.123,0.199,0.41,0.364,0.401
	c0.279-0.016,0.325-0.864,0.583-1.421c0.582-1.255,2.773-2.174,4.554-1.53c2.461,0.89,2.513,4.179,2.514,4.59
	c0.002,2.032-1.145,4.475-2.915,4.918c-2.163,0.542-3.939-2.36-5.21-1.603c-0.738,0.44-0.942,1.89-0.401,2.915
	c0.497,0.941,1.616,1.507,2.477,1.312c0.619-0.14,0.661-0.577,1.239-0.765c1.261-0.411,2.8,1.066,3.17,1.421
	c0.492,0.472,2.543,2.44,2.04,4.991c-0.348,1.764-1.71,2.759-2.222,3.133c-2.129,1.555-5.818,2.2-7.286,0.401
	c-0.833-1.021-1.115-3.028-0.328-3.935c0.265-0.305,0.602-0.43,0.619-0.765c0.03-0.582-0.937-1.311-1.567-1.129
	c-0.544,0.157-0.636,0.934-0.947,1.822c-1.032,2.943-3.377,3.984-2.987,4.663c0.303,0.528,1.64-0.237,3.497,0.51
	c0.871,0.351,1.381,0.841,1.639,1.057c2.22,1.852,9.143,3.009,12.569-0.619c1.8-1.907,2.001-4.464,2.077-5.428
	c0.114-1.457,0.243-3.094-0.765-4.262c-1.492-1.73-4.42-1.211-4.554-2.149c-0.055-0.384,0.379-0.705,0.911-1.129
	c2.265-1.806,2.608-5.078,2.623-5.246c0.176-1.916-0.616-4.167-2.368-5.647c-1.728-1.46-4.542-2.296-6.303-1.275
	c-0.951,0.552-1.296,1.473-2.113,1.384c-0.962-0.104-1.208-1.494-2.04-1.457c-0.595,0.026-1.144,0.764-1.202,1.421
	c-0.12,1.355,1.83,2.51,2.587,2.149c0.403-0.192,0.198-0.696,0.765-1.166c0.623-0.515,1.128-0.17,1.749-0.692
	c0.559-0.47,0.552-1.09,0.874-1.093c0.37-0.004,0.571,0.812,0.801,0.765c0.267-0.055,0.208-1.188,0.364-1.202
	c0.169-0.016,0.261,1.312,0.692,1.384c0.419,0.071,0.931-1.082,1.057-1.02c0.119,0.059-0.42,1.065-0.146,1.312
	c0.327,0.294,1.575-0.71,1.749-0.51c0.169,0.195-0.912,1.262-0.729,1.494c0.202,0.255,1.751-0.745,1.894-0.546
	c0.141,0.195-1.237,1.325-1.093,1.53c0.146,0.207,1.706-0.72,1.822-0.546c0.124,0.187-1.58,1.4-1.421,1.676
	c0.157,0.271,1.995-0.569,2.077-0.401c0.091,0.187-2.132,1.309-2.004,1.639c0.126,0.324,2.425-0.323,2.477-0.146
	c0.058,0.195-2.702,1.054-2.623,1.421c0.07,0.323,2.311,0.079,2.332,0.255c0.02,0.173-2.157,0.45-2.149,0.801
	c0.006,0.308,1.69,0.487,1.676,0.619c-0.017,0.153-2.274-0.072-2.332,0.219c-0.053,0.268,1.796,0.805,1.749,0.984
	c-0.051,0.196-2.303-0.314-2.404,0c-0.079,0.244,1.216,0.774,1.129,1.057c-0.095,0.312-1.77-0.004-1.822,0.219
	c-0.048,0.205,1.314,0.68,1.275,0.801c-0.042,0.135-1.687-0.493-2.04,0c-0.277,0.387,0.39,1.256,0.255,1.348
	c-0.126,0.086-0.559-0.781-1.275-1.093c-1.643-0.715-3.634,1.946-4.663,1.348c-0.903-0.525-0.452-3.212-0.109-3.242
	c0.345-0.03,0.885,2.603,0.947,2.587c0.053-0.014-0.586-1.85-0.146-2.113c0.259-0.155,0.673,0.367,1.384,0.801
	c2.114,1.291,4.61,0.437,4.809,1.166c0.097,0.355-0.442,0.748-0.255,1.02c0.182,0.265,0.831,0.092,0.874,0.255
	c0.04,0.151-0.391,0.387-0.364,0.437c0.048,0.089,1.426-0.694,1.603-0.474c0.183,0.228-1.062,1.348-0.874,1.603
	c0.23,0.313,2.404-0.976,2.514-0.801c0.104,0.166-1.819,1.398-1.676,1.676c0.174,0.339,3.326-0.939,3.352-0.874
	c0.027,0.068-3.528,1.336-3.425,1.749c0.107,0.425,4.067-0.205,4.08-0.109c0.013,0.094-3.837,0.552-3.825,0.984
	c0.012,0.431,3.871,0.615,3.862,0.838c-0.01,0.227-3.998,0.086-4.044,0.51c-0.045,0.417,3.747,1.155,3.716,1.312
	c-0.03,0.15-3.501-0.592-3.643-0.146c-0.14,0.439,3.006,1.809,2.951,1.931c-0.059,0.129-3.523-1.516-3.752-1.129
	c-0.226,0.382,2.771,2.61,2.732,2.66c-0.038,0.048-2.756-2.301-3.17-1.931c-0.404,0.362,1.551,3.182,1.457,3.242
	c-0.094,0.061-1.956-2.841-2.222-2.696c-0.267,0.145,1.238,3.254,0.984,3.388c-0.241,0.127-1.797-2.549-2.077-2.404
	c-0.256,0.132,0.77,2.538,0.583,2.623c-0.186,0.085-1.295-2.241-1.639-2.113c-0.318,0.118,0.222,2.246,0.036,2.295
	c-0.179,0.048-0.765-1.917-1.057-1.858c-0.26,0.053-0.099,1.686-0.291,1.712c-0.2,0.027-0.478-1.722-0.838-1.712
	c-0.332,0.009-0.5,1.511-0.729,1.494c-0.217-0.017-0.192-1.372-0.51-1.421c-0.281-0.043-0.593,0.963-0.838,0.911
	c-0.215-0.046-0.082-0.897-0.401-1.02c-0.309-0.12-0.779,0.548-0.947,0.437c-0.158-0.103,0.22-0.709,0-0.947
	c-0.247-0.268-1.012,0.184-1.166-0.036c-0.138-0.197,0.368-0.713,0.255-0.838c-0.126-0.138-0.828,0.407-0.984,0.255
	c-0.152-0.149,0.41-0.786,0.255-0.984c-0.24-0.306-1.927,0.785-2.077,0.583c-0.169-0.228,1.751-1.923,1.712-1.967
	c-0.044-0.05-2.471,2.205-2.696,2.004c-0.341-0.305,3.238-5.007,3.425-4.882c0.086,0.058-0.831,0.968-0.911,2.222
	c-0.149,2.337,2.663,5.031,5.683,5.756c2.772,0.665,6.367-0.172,8.343-3.097c1.664-2.463,1.851-5.917,0.291-8.051
	c-2.582-3.536-9.59-2.954-9.582-3.024c0.006-0.053,3.822,1.168,6.412-0.546c1.834-1.214,3.082-3.919,2.441-6.631
	c-0.642-2.716-3.04-4.853-5.21-4.845c-2.459,0.009-3.835,2.771-5.61,2.077c-0.901-0.353-1.5-1.438-1.384-1.567
	c0.1-0.112,0.847,0.388,1.567,0.911"/>
</svg>
