<?xml version="1.0" encoding="utf-8"?>
<!-- Generator: Adobe Illustrator 19.2.1, SVG Export Plug-In . SVG Version: 6.00 Build 0)  -->
<svg version="1.1" id="Layer_2" xmlns="http://www.w3.org/2000/svg" xmlns:xlink="http://www.w3.org/1999/xlink" x="0px" y="0px"
	 viewBox="0 0 100 37" style="enable-background:new 0 0 100 37;" xml:space="preserve">
	 	 <defs>
		<style type="text/css">
			.st003{fill:none;stroke:#D34237;stroke-linecap:round;stroke-miterlimit:10;}
			.st002{fill:none;stroke:#EF5552;stroke-linecap:round;stroke-miterlimit:10;}

			.st003,
			.st002 {
				stroke-dasharray: 800;
				stroke-dashoffset: 0;
				opacity: 0;

				-webkit-animation: dash 5s linear forwards;
				-o-animation: dash 5s linear forwards;
				-moz-animation: dash 5s linear forwards;
				animation: dash 5s linear forwards;
				animation-delay: 1.5s;

			}

			@keyframes dash {
				from {
					stroke-dashoffset: 800;
				}
				20% {
					stroke-dashoffset: 800;
					opacity: 0;
				}
				30% {
					opacity: 1;
				}
				to {
					stroke-dashoffset: 0;
					opacity: 1;
				}
			}

		</style>
	 </defs>
<path class="st003" d="M2.746,7.039c3.011-0.232,5.218-0.13,5.408,0.22C8.26,7.454,8.311,7.664,8.311,7.664
	C8.386,7.969,8.356,8.22,8.349,8.283c-0.09,0.911-0.342,14.995-0.261,15.004c0.037,0.004-0.478-5.51,1.89-7.099
	c1.852-1.243,4.595,0.503,4.805,0.64c0,0,5.269,3.45,4.708,15.827c-0.002,0.041-0.006,0.08-0.006,0.08
	c-0.015,0.157-0.065,0.459-0.255,0.725c-0.713,0.995-3.021,0.954-3.649-0.366c-0.243-0.51-0.152-1.051-0.065-1.537
	c0,0,0.27-1.519,0.586-5.27c0.071-0.848,0.252-3.872-1.173-6.514c-0.664-1.23-1.184-1.466-1.499-1.537
	c-1.197-0.269-2.284,1.213-2.411,1.391c-0.634,0.888-0.767,1.821-0.912,2.928c-0.873,6.659-1.309,9.988-1.173,10.612
	c0.046,0.212,0.169,0.724-0.065,1.025c-0.386,0.495-1.279-0.179-2.737-0.22c-1.676-0.047-2.267,0.795-2.867,0.366
	c-0.857-0.613-0.46-2.909-0.326-3.733C3.566,26.775,5.434,15.329,2.55,9.308C2.287,8.759,1.753,7.77,2.094,7.186
	c0.775-1.327,5.469,0.454,5.408,0.878C7.443,8.477,2.831,7.891,2.811,8.137c-0.02,0.25,4.714,0.838,4.691,1.171
	c-0.021,0.298-3.837,0.17-3.844,0.366c-0.007,0.192,3.653,0.436,3.649,0.732c-0.004,0.276-3.188,0.355-3.193,0.659
	c-0.005,0.302,3.135,0.528,3.128,0.805c-0.007,0.251-2.604,0.298-2.606,0.512c-0.003,0.223,2.806,0.39,2.802,0.586
	c-0.004,0.197-2.86,0.213-2.867,0.439c-0.007,0.225,2.81,0.462,2.802,0.659c-0.008,0.19-2.647,0.086-2.671,0.366
	c-0.021,0.235,2.748,0.525,2.737,0.805c-0.011,0.278-2.735,0.317-2.737,0.512c-0.001,0.181,2.345,0.29,2.346,0.512
	c0.001,0.199-1.883,0.273-1.89,0.512c-0.006,0.221,2.088,0.34,2.085,0.512c-0.003,0.186-2.435,0.214-2.443,0.439
	c-0.008,0.229,2.485,0.463,2.476,0.695c-0.009,0.227-2.387,0.191-2.411,0.512c-0.024,0.322,2.339,0.715,2.313,0.988
	c-0.026,0.272-2.395,0.15-2.411,0.366c-0.016,0.221,2.452,0.509,2.443,0.842c-0.009,0.33-2.447,0.44-2.443,0.659
	c0.003,0.226,2.607,0.317,2.606,0.476c-0.001,0.164-2.761,0.197-2.769,0.439c-0.009,0.243,2.746,0.486,2.737,0.695
	c-0.009,0.21-2.8,0.184-2.802,0.293c-0.003,0.138,4.497,0.3,4.496,0.476c-0.001,0.172-4.296,0.203-4.3,0.439
	c-0.004,0.229,4.045,0.465,4.04,0.622c-0.006,0.165-4.488,0.035-4.496,0.22c-0.008,0.185,4.471,0.531,4.463,0.695
	c-0.008,0.159-4.224-0.022-4.235,0.183c-0.011,0.199,3.921,0.553,3.909,0.805c-0.011,0.258-4.165,0.181-4.17,0.366
	c-0.005,0.185,4.174,0.415,4.17,0.622c-0.004,0.208-4.229,0.182-4.235,0.403c-0.006,0.23,4.567,0.53,4.561,0.659
	c-0.006,0.134-4.977-0.077-4.985,0.073c-0.007,0.147,4.763,0.472,4.757,0.732c-0.007,0.265-4.951,0.273-4.952,0.439
	c-0.001,0.163,4.784,0.232,4.789,0.512c0.005,0.285-4.927,0.579-4.919,0.768c0.007,0.188,4.847,0.059,4.854,0.256
	c0.008,0.192-4.599,0.476-4.594,0.768c0.005,0.28,4.214,0.149,4.235,0.512c0.019,0.331-3.409,1.593-4.333,0.329
	c-1.585-2.167,4.403-11.475,5.604-10.868c0.719,0.363,0.021,4.427-0.326,4.428c-0.409,0.001-0.956-5.648-0.13-5.928
	c0.294-0.1,0.745,0.487,0.814,0.403c0.096-0.117-0.848-1.172-0.717-1.354c0.115-0.16,0.953,0.494,1.075,0.329
	c0.144-0.195-0.883-1.325-0.749-1.5c0.119-0.156,1.028,0.615,1.173,0.439c0.171-0.208-0.919-1.509-0.749-1.72
	c0.17-0.212,1.435,0.896,1.596,0.695c0.164-0.205-0.951-1.611-0.88-1.683c0.079-0.08,1.281,1.42,1.499,1.244
	c0.207-0.167-0.582-1.773-0.489-1.83c0.089-0.054,0.829,1.421,1.043,1.317c0.153-0.075-0.062-0.917,0.057-0.961
	c0.145-0.053,0.539,1.167,0.79,1.107c0.204-0.048,0.18-0.908,0.309-0.915c0.12-0.006,0.083,0.727,0.505,1.025
	c0.209,0.148,0.372,0.076,0.586,0.293c0.147,0.148,0.189,0.3,0.261,0.476c0.236,0.575,0.681,1.125,0.814,1.061
	c0.118-0.056,0.078-0.634-0.138-1.098c-0.281-0.603-0.887-1.071-1.051-0.933c-0.264,0.222,0.319,2.276,1.45,2.69
	c0.473,0.173,0.989,0.04,1.018,0.192c0.039,0.2-0.85,0.465-0.823,0.723c0.038,0.361,1.849,0.324,1.857,0.586
	c0.008,0.271-1.447,0.469-1.433,0.732c0.014,0.27,1.561,0.267,1.596,0.622c0.031,0.314-1.146,0.652-1.108,0.842
	c0.039,0.193,1.287,0.001,1.303,0.11c0.02,0.132-1.778,0.491-1.759,0.732c0.019,0.247,1.939,0.177,1.955,0.403
	c0.015,0.221-1.807,0.508-1.792,0.659c0.016,0.157,2.012,0.008,2.02,0.11c0.008,0.099-1.897,0.323-1.89,0.476
	c0.008,0.153,1.907,0.091,1.922,0.293c0.016,0.22-2.225,0.488-2.215,0.805c0.009,0.312,2.189,0.44,2.183,0.586
	c-0.006,0.148-2.272,0.099-2.281,0.256c-0.008,0.158,2.256,0.381,2.248,0.549c-0.008,0.175-2.468,0.122-2.476,0.293
	c-0.008,0.176,2.579,0.385,2.574,0.622c-0.005,0.236-2.574,0.305-2.574,0.476c0.001,0.169,2.508,0.247,2.509,0.403
	c0,0.162-2.705,0.252-2.704,0.403c0.001,0.153,2.798,0.204,2.802,0.403c0.004,0.203-2.902,0.357-2.9,0.586
	c0.002,0.235,3.097,0.337,3.095,0.512c-0.002,0.161-2.603,0.192-2.606,0.366c-0.002,0.099,0.835,0.212,2.15,0.329"/>
<path class="st003" d="M23.58,7.344c2.552,0,4.12-0.087,4.871-0.256c0.101-0.023,0.389-0.092,0.521,0.073
	c0.278,0.347-0.36,1.445-0.489,1.683c-1.781,3.284,0.921,12.918-0.033,20.456c-0.079,0.628-0.281,2.005,0.391,2.671
	c0.759,0.753,2.53,0.501,3.193-0.512c0.516-0.789,0.133-1.694,0.847-2.342c0.088-0.08,0.514-0.467,0.977-0.366
	c0.487,0.106,0.576,0.655,1.075,0.732c0.442,0.068,0.642-0.321,0.847-0.22c0.404,0.2,0.491,2.139-0.326,3.513
	c-1.277,2.149-4.29,2.112-6.451,2.086c-1.499-0.018-2.112-0.295-2.541-0.586c-1.501-1.018-1.841-2.958-1.89-3.257
	c-0.218-1.35,0.133-2.452,0.261-2.891c1.135-3.885,0.398-8.861-0.391-14.052c-0.32-2.103-1.042-5.956-0.814-6.02
	c0.087-0.024,0.218,0.531,0.586,0.604C24.573,8.732,24.78,8.178,25.193,8c1.286-0.556,2.723-0.148,2.736,0.149
	c0.02,0.446-3.159,0.886-3.128,1.098c0.032,0.216,2.647-0.147,2.671,0.037c0.026,0.203-3.121,0.83-3.095,1.025
	c0.024,0.185,2.876-0.185,2.9,0c0.023,0.182-2.731,0.715-2.704,0.951c0.025,0.22,2.416-0.017,2.443,0.22
	c0.026,0.228-2.174,0.636-2.15,0.878c0.025,0.255,2.21,0.058,2.215,0.146c0.008,0.127-4.41,1.479-6.451-0.695
	c-0.3-0.32-0.486-0.649-0.684-0.586c-0.672,0.216-0.719,4.708,0.814,5.526c0.487,0.26,0.908,0.028,1.792-0.256
	c0.526-0.169,6.51-2.036,9.741-0.11c0.208,0.124,0.52,0.332,0.847,0.22c1.158-0.398,1.492-4.461,0.489-5.05
	c-0.351-0.206-0.794,0.048-1.043,0.183c0,0-2.718,1.475-6.614,1.72c-3.05,0.192-5.092-1.648-5.571-0.842
	c-0.202,0.341-0.015,0.939,0.228,1.317c1.271,1.982,6.368,1.561,10.099-0.476c0.969-0.529,1.907-1.2,2.443-0.768
	c0.609,0.491,0.67,2.382-0.195,2.854c-0.513,0.28-1.104-0.377-2.02-0.951c-3.251-2.037-7.961-1.332-9.415,0.695
	c-0.205,0.285-0.428,0.713-0.554,0.659c-0.253-0.11-0.063-2.153,0.717-2.452c0.272-0.104,0.538,0.033,0.619,0.073
	c0.872,0.435,2.058,0.497,4.431,0.622c3.008,0.158,4.5-1.612,5.473-0.586c0.192,0.203,0.415,0.568,0.326,0.842
	c-0.176,0.537-1.416,0.268-2.9,0.439c-2.349,0.27-4.196,1.515-4.138,1.757c0.056,0.228,1.884-0.197,1.922,0
	c0.04,0.206-1.933,0.787-1.89,1.025c0.042,0.229,1.93-0.059,1.955,0.11c0.024,0.168-1.818,0.574-1.792,0.805
	c0.025,0.221,1.739,0.091,1.759,0.293c0.02,0.198-1.617,0.511-1.596,0.695c0.02,0.18,1.598,0.033,1.629,0.256
	c0.032,0.231-1.627,0.634-1.596,0.842c0.032,0.219,1.901,0.008,1.922,0.183c0.022,0.175-1.841,0.499-1.824,0.805
	c0.016,0.303,1.858,0.359,1.857,0.549c-0.001,0.197-1.986,0.286-1.987,0.476c-0.001,0.185,1.892,0.302,1.89,0.476
	c-0.002,0.173-1.88,0.209-1.89,0.439c-0.01,0.234,1.934,0.461,1.922,0.695c-0.01,0.207-1.536,0.17-1.564,0.439
	c-0.026,0.253,1.71,0.51,1.694,0.732c-0.017,0.246-2.149,0.236-2.15,0.329c-0.001,0.096,2.274,0.139,2.281,0.329
	c0.007,0.191-2.282,0.347-2.281,0.586c0.001,0.201,2.338,0.198,2.346,0.403c0.008,0.22-2.675,0.422-2.671,0.695
	c0.004,0.269,2.611,0.408,2.606,0.549c-0.005,0.139-2.53,0.09-2.541,0.293c-0.01,0.182,2.028,0.392,2.02,0.622
	c-0.009,0.247-2.38,0.31-2.378,0.439c0.002,0.132,2.496,0.13,2.509,0.366c0.013,0.235-2.458,0.53-2.443,0.768
	c0.014,0.229,2.302,0.106,2.346,0.476c0.039,0.333-1.763,0.901-1.759,0.915c0.004,0.014,1.855-0.788,1.987-0.512
	c0.127,0.264-1.376,1.418-1.303,1.537c0.074,0.121,1.633-1.087,1.857-0.805c0.195,0.245-0.718,1.484-0.619,1.574
	c0.1,0.091,1.041-1.202,1.303-1.025c0.215,0.146-0.142,1.198-0.033,1.244c0.121,0.051,0.541-1.231,0.847-1.171
	c0.281,0.055,0.292,1.206,0.456,1.208c0.161,0.001,0.179-1.105,0.489-1.171c0.308-0.065,0.693,0.939,0.814,0.878
	c0.115-0.058-0.211-0.97-0.065-1.061c0.185-0.115,0.968,1.174,1.075,1.098c0.109-0.078-0.644-1.443-0.456-1.61
	c0.194-0.173,1.244,1.075,1.368,0.951c0.135-0.134-0.962-1.717-0.88-1.793c0.087-0.08,1.371,1.586,1.466,1.5
	c0.106-0.094-1.372-2.212-1.205-2.379c0.174-0.174,2.023,1.899,2.085,1.83c0.066-0.075-2.011-2.499-1.955-2.562
	c0.05-0.056,1.781,1.804,1.857,1.72c0.068-0.076-1.369-1.511-1.14-1.903c0.175-0.3,1.38-0.074,1.662,0.622
	c0.368,0.912-0.859,2.61-2.052,3.403c-2.646,1.759-7.19,0.443-7.982-2.049c-0.686-2.159,2.029-3.355,2.737-7.904
	c0.682-4.387-0.948-9.036-2.639-9.331c-1.027-0.18-1.658,1.318-3.258,1.134c-1.177-0.135-2.222-1.105-2.118-1.464
	c0.219-0.748,5.259,1.784,11.403-0.037c0.622-0.184,1.128-0.375,1.466-0.512"/>
<path class="st003" d="M38.978,34.844c0.269-0.661,0.586-1.52,0.888-2.552c0,0,0.24-0.822,0.423-1.629
	c0.546-2.416,1.428-10.94-1.015-14.552c-0.163-0.241-0.72-1.022-0.55-1.412c0.077-0.176,0.277-0.217,1.649-0.163
	c1.154,0.045,1.227,0.083,1.31,0.163c0.402,0.384,0.465,1.257,0.592,2.987c0.045,0.612,0.043,1.071,0.127,1.086
	c0.198,0.034,0.155-2.691,1.437-3.801c0.582-0.504,1.23-0.495,1.437-0.489c0.215,0.006,1.195,0.07,1.776,0.977
	c0.24,0.375,0.147,0.499,0.465,1.303c0.319,0.806,0.643,1.628,1.015,1.629c0.381,0.002,0.434-0.862,1.226-2.063
	c0.381-0.578,0.873-1.324,1.564-1.52c0.354-0.1,0.952-0.054,2.029,0.815c1.987,1.6,2.97,4.518,3.466,6.245
	c1.725,6.003,1.727,12.138,0.761,12.489c-0.378,0.137-0.774-0.656-1.564-0.434c-0.511,0.143-0.794,0.602-1.184,0.434
	c-0.204-0.088-0.343-0.307-0.465-0.597c-0.495-1.178-0.374-2.718-0.338-3.204c0,0,0.146-1.972,0.127-4.67
	c-0.017-2.398-0.241-3.129-0.465-3.638c-0.181-0.412-0.651-1.479-1.522-1.683c-0.538-0.126-0.996,0.133-1.141,0.217
	c-0.114,0.067-0.812,0.457-1.184,1.412c-0.347,0.889-0.036,1.3-0.338,1.792c-0.5,0.816-2.05,0.82-2.579-0.054
	c-0.486-0.804,0.392-1.753-0.296-2.715c-0.346-0.483-1.043-0.844-1.628-0.697c-0.678,0.17-0.968,0.961-1.003,1.061
	c-0.079,0.225-0.12,0.68-0.202,1.59c-0.005,0.055-0.01,0.113-0.013,0.147c-0.03,0.372-0.069,1.106-0.072,3.165
	c-0.003,2.017-0.004,3.026,0.042,3.475c0.142,1.38,0.356,1.842,0.169,2.769c-0.05,0.247-0.287,1.42-0.93,1.683
	c-0.407,0.167-0.638-0.17-1.226-0.217c-0.354-0.028-0.418,0.16-1.564,0.597c-0.54,0.206-0.61,0.209-0.634,0.163
	c-0.098-0.187,0.48-1.289,1.268-1.466c0.715-0.161,1.075,0.557,1.733,0.271c0.382-0.166,0.736-0.614,0.676-0.869
	c-0.145-0.62-2.731-0.062-2.748-0.217c-0.014-0.13,2.888-0.614,2.875-0.815c-0.013-0.195-2.763-0.01-2.776-0.217
	c-0.013-0.202,2.578-0.558,2.565-0.833c-0.012-0.243-2.056-0.242-2.057-0.398c-0.001-0.149,1.859-0.247,1.86-0.434
	c0.001-0.183-1.777-0.29-1.776-0.471c0.001-0.183,1.827-0.244,1.832-0.471c0.005-0.217-1.668-0.391-1.663-0.615
	c0.005-0.224,1.674-0.241,1.691-0.543c0.016-0.29-1.512-0.574-1.494-0.833c0.019-0.268,1.679-0.218,1.691-0.434
	c0.012-0.231-1.873-0.534-1.86-0.724c0.012-0.175,1.615-0.069,1.635-0.29c0.02-0.225-1.625-0.566-1.606-0.796
	c0.02-0.244,1.875-0.127,1.888-0.326c0.013-0.2-1.845-0.502-1.832-0.724c0.012-0.211,1.704-0.139,1.719-0.362
	c0.016-0.237-1.875-0.572-1.86-0.76c0.015-0.191,1.984-0.023,2.001-0.217c0.017-0.199-2.045-0.573-2.029-0.796
	c0.017-0.235,2.322-0.064,2.339-0.29c0.018-0.239-2.552-0.695-2.536-0.869c0.016-0.172,2.552,0.109,2.565-0.036
	c0.013-0.15-2.69-0.595-2.677-0.76c0.014-0.176,3.095,0.06,3.1-0.036c0.005-0.098-3.147-0.346-3.156-0.833
	c-0.005-0.266,0.927-0.496,0.902-0.652c-0.026-0.166-1.101,0.024-1.127-0.145c-0.026-0.164,0.957-0.491,0.93-0.688
	c-0.026-0.195-1.017-0.063-1.043-0.253c-0.027-0.199,1.037-0.545,1.015-0.688c-0.028-0.179-1.745,0.181-1.776,0
	c-0.03-0.174,1.546-0.575,1.522-0.905c-0.024-0.329-1.644-0.726-1.916-0.109c-0.3,0.681,0.865,2.415,2.424,3.439
	c1.257,0.826,2.703,1.158,2.788,0.997c0.098-0.186-1.574-1.131-1.52-1.214c0.061-0.094,2.187,1.139,2.291,0.994
	c0.115-0.16-2.27-1.959-2.291-1.935c-0.022,0.025,2.287,2.321,2.831,1.972c0.608-0.39-0.948-4.102-1.788-3.999
	c-0.369,0.045-0.782,0.838-0.648,1.122c0.01,0.022,0.024,0.039,0.04,0.051c0.207,0.157,0.51,0.075,0.693,0.094
	c0.567,0.059,0.797,1.465,0.894,1.451c0.142-0.02-0.314-3.071-0.105-3.117c0.261-0.057,1.543,4.628,1.691,4.561
	c0.104-0.047-0.803-4.231-0.789-4.235c0.009-0.003,0.221,2.084,1.381,3.113c0.028,0.025,0.618,0.542,0.761,0.362
	c0.268-0.336-1.06-3.061-1.494-2.86c-0.502,0.233,0.168,4.396,0.479,4.38c0.11-0.006,0.075-0.534,0.423-0.977
	c0.443-0.565,1.215-0.621,1.296-0.398c0.111,0.301-1.154,0.809-1.522,2.317c-0.024,0.099-0.333,1.423,0.225,2.063
	c0.486,0.557,1.361,0.288,1.381,0.109c0.019-0.168-0.715-0.189-1.043-0.905c-0.211-0.461-0.208-1.111-0.028-1.231
	c0.317-0.212,1.188,1.218,1.24,1.158c0.056-0.064-1.044-1.645-0.902-1.846c0.132-0.187,1.262,0.938,1.381,0.76
	c0.115-0.172-0.854-1.341-0.705-1.593c0.144-0.242,1.183,0.599,1.296,0.398c0.137-0.242-1.225-1.736-1.155-1.846
	c0.083-0.13,2.054,1.871,2.17,1.701c0.118-0.172-1.72-2.457-1.663-2.534c0.058-0.078,1.979,2.269,2.086,2.136
	c0.109-0.136-1.724-2.818-1.719-2.824c0.005-0.006,2.007,3.178,2.198,3.005c0.191-0.173-1.499-3.644-1.437-3.692
	c0.064-0.05,1.949,3.704,2.057,3.62c0.106-0.082-1.804-3.575-1.212-4.344c0.291-0.378,1.158-0.06,1.212,0.29
	c0.042,0.271-0.426,0.409-0.507,0.941c-0.091,0.598,0.365,1.296,0.564,1.231c0.225-0.074,0.024-1.102,0.395-1.339
	c0.237-0.152,0.659,0.052,0.733,0.362c0.115,0.482-0.706,0.818-0.874,1.846c-0.115,0.707,0.119,1.492,0.338,1.52
	c0.388,0.051,0.634-2.283,1.212-2.281c0.248,0.001,0.509,0.431,0.535,0.833c0.068,1.035-1.414,1.931-1.353,2.063
	c0.069,0.148,1.864-1.091,1.916-0.977c0.051,0.109-1.557,1.36-1.465,1.593c0.092,0.232,1.822-0.694,1.86-0.579
	c0.038,0.116-1.721,1.099-1.663,1.303c0.057,0.202,1.859-0.483,1.888-0.362c0.029,0.121-1.768,0.827-1.719,1.122
	c0.05,0.305,2.036-0.041,2.057,0.145c0.022,0.184-1.909,0.654-1.888,0.833c0.021,0.182,2.036-0.111,2.057,0.072
	c0.022,0.185-1.995,0.657-1.973,0.869c0.023,0.217,2.177-0.059,2.198,0.145c0.022,0.206-2.157,0.725-2.142,0.833
	c0.015,0.113,2.4-0.373,2.424-0.217c0.025,0.164-2.597,0.864-2.565,1.122c0.032,0.256,2.663-0.118,2.677,0.036
	c0.015,0.159-2.779,0.662-2.762,0.869c0.017,0.208,2.858-0.062,2.875,0.145c0.016,0.206-2.807,0.661-2.79,0.905
	c0.017,0.249,2.975,0.046,2.987,0.253c0.013,0.218-3.254,0.651-3.241,0.869c0.012,0.213,3.148,0.037,3.156,0.217
	c0.009,0.177-2.995,0.486-2.987,0.724c0.008,0.246,3.236,0.193,3.241,0.398c0.006,0.211-3.416,0.482-3.41,0.652
	c0.006,0.17,3.432,0.068,3.438,0.253c0.007,0.18-3.215,0.403-3.213,0.688c0.001,0.169,1.135,0.312,2.931,0.434"/>
<path class="st003" d="M62.389,7.915c0.17-0.198,0.452-0.479,0.867-0.704c0.713-0.388,2.049-0.736,2.87,0
	C66.56,7.6,66.68,8.155,66.722,8.456c0.425,3.033,0.089,16.457,0.162,19.497c0.034,1.385,0.199,2.549,1.029,3.304
	c0.746,0.678,1.731,0.753,1.841,1.408c0.097,0.572-0.553,1.119-0.704,1.246c-1.284,1.08-3.755,1.014-5.091-0.162
	c-1.105-0.974-1.168-2.474-1.246-4.17c-0.42-9.132-0.629-13.699-0.812-14.623c-0.589-2.972-1.445-4.763-0.379-6.066
	c0.74-0.904,2.36-1.517,3.466-0.975c0.681,0.334,1.104,1.075,0.975,1.246c-0.164,0.217-1.088-0.654-2.329-0.487
	c-1.006,0.135-1.823,0.899-1.733,1.137c0.068,0.182,0.642,0.004,1.896,0.054c0.614,0.025,1.935,0.126,1.95,0.325
	c0.026,0.35-4.028,0.823-4.008,1.029c0.017,0.179,4.366-0.229,4.387-0.054c0.02,0.171-4.086,0.725-4.062,0.975
	c0.024,0.241,3.878-0.012,3.899,0.217c0.02,0.222-3.594,0.679-3.574,0.867c0.02,0.191,3.765-0.116,3.791,0.108
	c0.026,0.22-3.542,0.767-3.52,0.921c0.021,0.154,3.609-0.255,3.629-0.108c0.02,0.146-3.488,0.7-3.466,0.867
	c0.021,0.162,3.326-0.21,3.358,0c0.033,0.221-3.605,0.898-3.574,1.083c0.03,0.182,3.572-0.338,3.629-0.054
	c0.055,0.279-3.305,1.079-3.249,1.354c0.052,0.258,3.075-0.147,3.087-0.054c0.012,0.093-2.995,0.495-2.979,0.704
	c0.017,0.215,3.232,0.054,3.249,0.271c0.018,0.225-3.428,0.602-3.412,0.812c0.012,0.162,3.121-0.075,3.141,0.108
	c0.02,0.186-3.161,0.636-3.141,0.812c0.02,0.175,3.167-0.11,3.195,0.108c0.028,0.214-2.953,0.709-2.925,0.921
	c0.026,0.195,2.586-0.023,2.6,0.108c0.014,0.136-2.722,0.463-2.708,0.65c0.015,0.2,3.174,0.04,3.195,0.271
	c0.021,0.232-3.158,0.68-3.141,0.812c0.017,0.129,3.046-0.236,3.087,0c0.041,0.235-2.91,0.872-2.87,1.083
	c0.037,0.197,2.644-0.134,2.654-0.054c0.011,0.085-2.938,0.439-2.925,0.704c0.013,0.258,2.811,0.249,2.816,0.433
	c0.004,0.148-2.6,0.235-2.6,0.379c0,0.15,2.804,0.179,2.816,0.433c0.012,0.256-2.831,0.53-2.816,0.758
	c0.014,0.219,2.64,0.159,2.654,0.379c0.013,0.214-2.451,0.492-2.437,0.65c0.014,0.161,2.588,0.024,2.6,0.162
	c0.011,0.141-2.665,0.424-2.654,0.596c0.011,0.168,2.583,0.069,2.6,0.271c0.016,0.2-2.506,0.483-2.491,0.704
	c0.016,0.236,2.921,0.191,2.925,0.325c0.004,0.135-2.982,0.302-2.979,0.433c0.004,0.133,3.063,0.049,3.087,0.325
	c0.024,0.278-3.051,0.743-3.033,0.867c0.019,0.127,3.257-0.342,3.304-0.108c0.046,0.233-3.113,1.035-3.087,1.137
	c0.027,0.106,3.382-0.752,3.466-0.487c0.073,0.229-2.339,1.222-2.329,1.246c0.011,0.025,2.708-1.256,2.87-0.975
	c0.014,0.024,0.006,0.052-0.003,0.077c-0.225,0.635-1.83,1.211-1.784,1.548c0.038,0.277,1.22,0.594,1.733,0.108
	c0.435-0.411,0.179-1.2,0.542-1.354c0.207-0.088,0.485,0.088,0.704,0.271"/>
<path class="st002" d="M94.038,5.87c-5.924,1.478-9.033,0.969-10.789,0.159c-0.426-0.197-1.746-0.859-2.454-0.212
	c-0.801,0.731-0.497,2.84-0.417,3.399c0.12,0.832,0.314,1.321,0.463,1.806c0.912,2.973-0.293,4.529,0.37,5.523
	c1.365,2.046,7.343-3.231,11.298-0.531c1.197,0.817,1.763,2.06,2.639,3.983c0.838,1.839,2.339,5.132,1.389,8.444
	c-1.136,3.962-5.048,5.4-6.251,5.842c-4.894,1.799-10.928-0.032-11.483-2.708c-0.207-1,0.308-2.32,1.111-2.921
	c0.781-0.584,1.998-0.611,2.547,0.053c0.359,0.434,0.22,0.907,0.37,1.381c0.575,1.808,7.047,2.855,9.492,0.159
	c1.038-1.145,1-2.561,0.931-5.089c-0.011-0.397-0.101-2.803-1.395-5.241c-0.962-1.813-1.811-2.175-2.361-2.256
	c-0.105-0.015-0.181-0.021-0.28-0.021c-0.47,0-1.121,0.194-3.332,1.03c-3.416,1.291-3.923,1.606-4.816,1.328
	c-1.695-0.528-2.5-2.484-2.547-2.602c-0.16-0.404-0.227-0.738-0.324-2.602c-0.21-4.03,0.037-3.708-0.093-6.532
	c-0.068-1.484-0.156-1.994,0.185-2.549c0.583-0.95,1.803-1.023,2.686-1.062c8.268-0.368,11.206,0.686,13.058,0
	c0.139-0.052,0.538-0.211,0.741,0c0.537,0.558-0.737,3.032-0.926,3.399c-0.429,0.832-0.652,1.251-1.065,1.381
	c-0.572,0.18-1.155-0.25-1.945-0.85c-0.85-0.645-0.798-0.835-1.303-1.18c-0.696-0.475-1.129-0.308-4.573-0.365
	c-1.338-0.022-1.966-0.059-2.391,0.369c-0.258,0.26-0.284,0.533-0.438,1.255c-0.303,1.419-0.432,1.435-0.598,2.288
	c-0.298,1.538-0.494,4.658,0.644,5.067c0.403,0.145,0.833-0.089,1.158-0.266c2.291-1.245,5.569-0.816,7.316,0.266
	c2.292,1.42,4.11,5.304,3.149,9.187c-0.25,1.01-0.557,2.491-1.921,3.541c-1.48,1.14-3.335,1.139-4.726,1.139
	c-1.471,0-2.239-0.318-2.63-0.517c-0.181-0.092-0.614-0.328-1.233-0.924c-1.68-1.617-1.512-2.847-2.361-3.027
	c-1.275-0.27-2.546,1.181-3.102,2.337c-0.527,1.094-1.109,3.364,0.139,4.833c1.362,1.603,3.657,0.74,3.658,0.69
	c0.001-0.049-2.214,0.402-3.133-0.974c-0.493-0.738-0.407-1.694-0.34-2.443c0.034-0.378,0.237-2.622,1.636-3.399
	c0.142-0.079,0.88-0.488,1.513-0.106c0.45,0.272,0.725,0.872,0.617,1.027c-0.131,0.187-0.705-0.453-1.42-0.319
	c-0.63,0.118-1.122,0.791-1.327,1.345c-0.674,1.823,1.091,4.172,1.142,4.142c0.038-0.022-0.874-1.332-0.463-2.372
	c0.357-0.904,1.559-1.214,1.667-1.027c0.08,0.138-0.481,0.475-0.741,1.345c-0.225,0.753-0.146,1.639,0.062,1.699
	c0.368,0.108,1.178-2.357,1.296-2.301c0.119,0.056-0.701,2.51-0.494,2.62c0.164,0.087,0.839-1.368,1.019-1.275
	c0.231,0.121-0.406,2.276-0.309,2.301c0.127,0.034,1.322-3.699,1.497-3.657c0.179,0.043-0.808,4.014-0.664,4.047
	c0.143,0.033,1.208-3.875,1.461-3.825c0.25,0.049-0.44,3.918-0.35,3.932c0.089,0.013,0.752-3.696,0.947-3.673
	c0.198,0.024-0.238,3.859-0.021,3.886c0.212,0.026,0.832-3.617,1.057-3.59c0.222,0.027-0.155,3.602,0.054,3.626
	c0.21,0.024,0.774-3.577,1.022-3.552c0.252,0.026-0.022,3.79,0.12,3.8c0.145,0.01,0.513-3.958,0.757-3.947
	c0.23,0.01,0.207,3.556,0.355,3.558c0.147,0.002,0.238-3.514,0.522-3.521c0.267-0.006,0.534,3.112,0.717,3.1
	c0.177-0.011-0.001-2.903,0.335-2.943c0.313-0.037,0.882,2.441,0.988,2.408c0.123-0.039-0.523-2.871-0.34-2.939
	c0.178-0.065,1.012,2.495,1.142,2.443c0.129-0.052-0.612-2.593-0.401-2.691c0.21-0.097,1.188,2.314,1.358,2.23
	c0.179-0.088-0.739-2.866-0.587-2.939c0.139-0.066,1.042,2.187,1.173,2.124c0.148-0.071-0.905-3.006-0.648-3.151
	c0.251-0.142,1.602,2.473,1.698,2.408c0.101-0.069-1.428-3.009-1.204-3.186c0.209-0.166,1.842,2.156,1.914,2.089
	c0.076-0.071-1.766-2.624-1.574-2.832c0.185-0.201,2.178,1.864,2.223,1.806c0.045-0.059-2.023-2.126-1.883-2.337
	c0.131-0.198,2.157,1.329,2.253,1.168c0.075-0.126-1.133-1.108-0.988-1.416c0.112-0.239,0.956-0.028,0.957-0.035
	c0.002-0.012-1.785-0.176-1.793-0.401c-0.009-0.223,1.737-0.382,1.732-0.661c-0.005-0.232-1.209-0.341-1.204-0.566
	c0.004-0.202,0.981-0.271,0.988-0.496c0.007-0.237-1.074-0.336-1.111-0.743c-0.027-0.296,0.519-0.512,0.463-0.779
	c-0.05-0.242-0.525-0.197-0.587-0.46c-0.062-0.267,0.378-0.516,0.309-0.743c-0.068-0.225-0.531-0.093-0.648-0.354
	c-0.157-0.352,0.281-0.887,0.185-0.956c-0.138-0.1-1.169,1.089-1.402,0.961c-0.23-0.126,0.782-1.285,0.507-2.342
	c-0.492-1.886-4.895-2.616-4.939-2.443c-0.018,0.07,0.322,0.205,1.043,0.613c0.973,0.55,1.45,0.853,1.735,1.087
	c0.75,0.617,1.348,1.485,1.216,1.609c-0.194,0.181-2.259-0.948-3.778-2.529c-0.232-0.241-0.76-0.819-0.895-0.708
	c-0.162,0.133,0.261,1.066,0.154,1.133c-0.123,0.077-0.725-1.134-0.957-1.027c-0.213,0.098,0.022,1.243-0.093,1.275
	c-0.107,0.03-0.361-0.951-0.494-0.921c-0.148,0.034,0.045,1.295-0.185,1.381c-0.248,0.092-0.778-1.251-0.957-1.168
	c-0.155,0.071,0.087,1.141,0,1.168c-0.081,0.026-0.298-0.906-0.494-0.885c-0.241,0.026-0.231,1.463-0.463,1.487
	c-0.209,0.022-0.434-1.125-0.556-1.098c-0.126,0.029,0.034,1.266-0.123,1.31c-0.154,0.043-0.446-1.103-0.648-1.062
	c-0.222,0.045-0.144,1.473-0.278,1.487c-0.137,0.015-0.3-1.459-0.494-1.452c-0.191,0.007-0.271,1.456-0.401,1.452
	c-0.129-0.004-0.096-1.406-0.34-1.452c-0.272-0.051-0.737,1.619-0.803,1.593c-0.065-0.026,0.581-1.582,0.185-1.983
	c-0.38-0.384-1.696,0.321-1.667,0.779c0.016,0.247,0.428,0.489,0.71,0.389c0.517-0.183,0.695-1.546,0.309-1.912
	c-0.41-0.387-1.461,0.339-1.482,0.283c-0.023-0.064,1.446-0.745,1.389-0.991c-0.054-0.233-1.444,0.073-1.482-0.106
	c-0.03-0.144,1.56-0.474,1.543-0.779c-0.017-0.315-1.734-0.398-1.729-0.531c0.005-0.138,1.848-0.125,1.852-0.248
	c0.005-0.127-1.977-0.273-1.976-0.46c0.002-0.184,1.91-0.245,1.914-0.46c0.004-0.205-1.731-0.343-1.729-0.566
	c0.003-0.229,1.821-0.324,1.821-0.531c0-0.209-1.85-0.318-1.852-0.566c-0.002-0.205,1.259-0.296,1.266-0.566
	c0.007-0.278-1.314-0.493-1.296-0.673c0.017-0.172,1.249-0.109,1.266-0.283c0.02-0.214-1.266-0.551-1.235-0.673
	c0.043-0.166,2.516,0.354,2.599,0.112c0.091-0.267-2.795-1.322-2.753-1.422c0.041-0.097,2.753,0.854,2.833,0.684
	c0.087-0.184-2.977-1.622-2.894-1.782c0.045-0.086,0.941,0.322,1.111,0.106c0.202-0.256-0.784-1.172-0.71-1.239
	c0.114-0.103,2.473,2.006,2.573,1.918c0.092-0.082-1.743-2.049-1.647-2.13c0.075-0.063,1.049,1.129,1.821,0.991
	c0.676-0.12,0.699-0.898,1.574-1.275c0.079-0.034,0.145-0.056,0.212-0.069c0.774-0.15,1.423,0.007,1.609,0.069
	c0.736,0.248,0.723,0.574,1.092,0.531c0.452-0.052,0.624-0.559,1.116-0.525c0.062,0.004,0.098,0.007,0.323,0.1
	c0.613,0.254,0.941,0.626,1.42,0.46c0.416-0.144,0.517-0.546,0.741-0.496c0.475,0.106,0.449,2.011,0.648,2.018
	c0.199,0.007,0.368-1.885,0.494-1.876c0.14,0.01,0.062,2.386,0.247,2.408c0.186,0.021,0.499-2.357,0.648-2.337
	c0.161,0.022-0.079,2.789,0.154,2.832c0.247,0.046,0.832-2.98,1.019-2.939c0.164,0.037-0.205,2.408,0.031,2.478
	c0.342,0.102,1.731-2.07,1.111-2.762c-0.653-0.728-2.902,0.866-6.757,0.896c-1.433,0.011-2.603-0.198-3.347-0.369"/>
</svg>
