<?xml version="1.0" encoding="utf-8"?>
<!-- Generator: Adobe Illustrator 19.2.1, SVG Export Plug-In . SVG Version: 6.00 Build 0)  -->
<svg version="1.1" id="Layer_2" xmlns="http://www.w3.org/2000/svg" xmlns:xlink="http://www.w3.org/1999/xlink" x="0px" y="0px"
	 viewBox="0 0 63.625 27.75" style="enable-background:new 0 0 63.625 27.75;" xml:space="preserve">
	<defs>
		<style type="text/css">
			.st005{fill:none;stroke:#FF9810;stroke-linecap:round;stroke-miterlimit:10;}

			.st005{
				stroke-dasharray: 800;
				stroke-dashoffset: 0;
				opacity: 0;

				-webkit-animation: dash 5s linear forwards;
				-o-animation: dash 5s linear forwards;
				-moz-animation: dash 5s linear forwards;
				animation: dash 5s linear forwards;
				animation-delay: 2s;

			}

			@keyframes dash {
				from {
					stroke-dashoffset: 800;
					opacity: 0;
				}
				20% {
					stroke-dashoffset: 800;
					opacity: 0;
				}
				30% {
					opacity: 1;
				}
				to {
					stroke-dashoffset: 0;
					opacity: 1;
				}
			}

		</style>
	</defs>
<path class="st005" d="M42.111,9.804c0.208,0.267,0.456,0.565,0.503,0.534c0.102-0.065-0.407-1.876-1.698-2.768
	c-2.12-1.463-5.889-1.271-6.918,0.692c-0.665,1.269-0.131,3.179,0.943,4.403c2.401,2.733,6.21,0.569,8.962,3.239
	c1.519,1.474,2.216,3.937,1.604,6.038c-0.828,2.844-3.727,3.908-4.56,4.214c-2.776,1.019-6.891,0.848-8.27-1.478
	c-0.824-1.389-0.742-3.668,0.346-4.245c1.22-0.647,3.313,1.057,3.239,1.227c-0.075,0.171-2.533-0.845-2.642-0.597
	c-0.106,0.242,2.178,1.379,2.076,1.604c-0.104,0.23-2.6-0.707-2.642-0.597c-0.045,0.118,2.854,1.226,2.768,1.509
	c-0.078,0.255-2.533-0.26-2.547-0.189c-0.014,0.075,2.686,0.491,2.673,0.912c-0.012,0.382-2.254,0.675-2.264,0.629
	c-0.011-0.053,2.922-0.91,3.144-0.44c0.169,0.357-1.254,1.414-1.227,1.446c0.032,0.037,1.624-1.567,2.107-1.258
	c0.393,0.252-0.074,1.688-0.031,1.698c0.052,0.011,0.424-2.201,0.849-2.201c0.381,0,0.666,1.784,0.786,1.761
	c0.12-0.023-0.214-1.814,0.031-1.887c0.253-0.075,0.943,1.722,1.101,1.667c0.184-0.065-0.643-2.579-0.409-2.673
	c0.243-0.097,1.471,2.469,1.572,2.421c0.106-0.05-1.245-2.885-1.006-3.019s1.956,2.491,2.013,2.453
	c0.061-0.041-2.07-3.072-1.793-3.302c0.278-0.231,2.869,2.446,2.925,2.39c0.056-0.057-2.631-2.688-2.453-2.893
	c0.178-0.204,3.105,2.073,3.176,1.981c0.074-0.096-3.136-2.537-2.925-2.862c0.207-0.317,3.578,1.542,3.648,1.415
	c0.074-0.136-3.847-2.195-3.648-2.673c0.184-0.444,3.847,0.647,3.868,0.566c0.022-0.085-4.062-1.057-3.994-1.572
	c0.059-0.444,3.178-0.405,3.176-0.503c-0.002-0.102-3.41,0.053-3.491-0.44c-0.063-0.39,1.981-1.049,1.95-1.132
	c-0.034-0.091-2.443,0.865-2.642,0.503c-0.155-0.282,1.08-1.273,1.038-1.32c-0.049-0.055-1.534,1.425-1.981,1.132
	c-0.348-0.228,0.073-1.438-0.063-1.478c-0.148-0.043-0.6,1.401-0.943,1.352c-0.263-0.038-0.213-0.914-0.566-1.006
	c-0.369-0.096-0.818,0.798-1.069,0.692c-0.226-0.096,0.007-0.885-0.252-1.006c-0.246-0.115-0.685,0.493-0.881,0.378
	c-0.181-0.107,0.07-0.7-0.126-0.818c-0.178-0.106-0.516,0.299-0.692,0.189c-0.157-0.099,0.058-0.464-0.126-0.692
	c-0.229-0.284-0.805-0.019-0.943-0.252c-0.131-0.22,0.316-0.571,0.189-0.818c-0.145-0.279-0.848-0.078-0.943-0.315
	c-0.084-0.208,0.428-0.447,0.378-0.755c-0.064-0.392-0.958-0.4-1.006-0.755c-0.043-0.315,0.641-0.488,0.629-0.881
	c-0.011-0.39-0.693-0.501-0.692-0.881c0.001-0.293,0.408-0.304,0.629-0.755c0.268-0.547-0.091-1.015,0.189-1.258
	c0.222-0.193,0.5,0.055,0.755-0.126c0.424-0.302,0.072-1.287,0.315-1.383c0.243-0.097,0.727,0.836,0.943,0.755
	c0.225-0.084-0.223-1.448-0.063-1.509c0.157-0.061,0.7,1.205,0.943,1.132c0.235-0.071,0-1.338,0.189-1.383
	c0.183-0.043,0.54,1.114,0.755,1.069c0.208-0.043,0.109-1.177,0.252-1.195c0.151-0.019,0.318,1.248,0.629,1.258
	c0.3,0.01,0.534-1.162,0.692-1.132c0.16,0.03-0.077,1.24,0.252,1.383c0.28,0.121,0.821-0.979,1.069-0.881
	c0.229,0.091-0.077,1.058,0.189,1.195c0.244,0.125,0.812-0.851,1.006-0.755c0.2,0.098-0.238,1.189,0,1.32
	c0.22,0.121,0.818-0.683,1.006-0.566c0.178,0.112-0.265,0.894,0,1.132c0.23,0.208,0.792-0.184,0.943,0
	c0.151,0.184-0.333,0.678-0.189,0.881c0.196,0.276,1.337-0.31,1.446-0.126c0.154,0.259-0.615,1.308-0.881,1.195
	c-0.326-0.138,0.145-2.053,0.22-2.044c0.089,0.011-0.118,2.799-0.283,2.799c-0.185,0-0.313-3.524-0.346-3.522
	c-0.036,0.001,0.052,4.34,0.157,4.34c0.094-0.001,0.415-3.524-0.126-3.648c-0.51-0.118-1.831,2.776-1.446,3.05
	c0.314,0.223,1.935-1.18,1.761-1.509c-0.137-0.259-1.482-0.043-2.201,0.818c-0.169,0.202-0.5,0.599-0.378,0.912
	c0.231,0.59,2.058,0.848,3.019,0c0.868-0.767,0.761-2.199,0.471-3.05c-0.755-2.224-3.598-2.966-5.126-3.365
	c-1.579-0.412-2.957-0.776-4.34-0.063c-1.541,0.796-2.166,2.448-2.453,3.207c-0.543,1.437-0.461,2.638-0.44,2.893
	c0.115,1.411,0.676,2.392,1.006,2.956c0.349,0.595,1.061,1.777,2.453,2.579c1.063,0.612,2.197,0.815,2.579,0.881
	c1.299,0.222,1.688,0.028,2.264,0.44c0.899,0.644,0.984,1.906,1.006,2.232c0.093,1.365-0.63,2.345-0.881,2.673
	c-0.64,0.84-1.405,1.196-1.824,1.383c-0.597,0.268-1.364,0.612-1.824,0.252c-0.257-0.202-0.378-0.592-0.315-0.943
	c0.089-0.5,0.515-0.728,0.566-0.755"/>
<path class="st005" d="M21.696,5.626c0.04-0.12,0.503-1.432,1.894-1.819c1.416-0.395,2.572,0.51,2.759,0.657
	c1.042,0.816,1.26,2.044,1.353,2.628c0.574,3.639,1.366,15.344-1.028,17.991c-0.548,0.605-1.205,0.979-1.205,0.979
	c-0.875,0.497-1.741,0.608-2.474,0.638c-2.83,0.115-5.191,0.141-6.601-1.567c-1.164-1.41-1.111-3.633-0.108-5.003
	c0.651-0.89,1.877-1.659,2.435-1.365c0.462,0.244,0.41,1.188,0.379,1.769c-0.068,1.256-0.55,1.603-0.271,2.123
	c0.405,0.754,1.815,0.76,2.002,0.758c0.861-0.007,1.531-0.407,1.708-0.515c0.032-0.02,0.182-0.111,0.348-0.243
	c0.891-0.709,1.3-1.821,1.353-1.971c1.542-4.355,0.22-8.027,0.216-8.035l0,0c-2.371-5.536-2.452-5.937-2.312-6.455
	c0.218-0.81,0.877-1.542,1.663-1.783c0.77-0.235,1.655,0.003,1.677,0.202c0.019,0.174-0.676,0.228-1.515,0.758
	c-0.795,0.502-1.473,1.285-1.353,1.466c0.229,0.345,3.391-1.461,3.478-1.308c0.092,0.163-3.448,2.28-3.369,2.42
	c0.08,0.141,3.782-1.862,3.896-1.668c0.112,0.191-3.368,2.299-3.192,2.628c0.159,0.298,3.218-1.044,3.291-0.88
	c0.069,0.155-2.672,1.342-2.533,1.79c0.131,0.423,2.771-0.01,2.783,0.085c0.012,0.092-2.486,0.302-2.513,0.774
	c-0.015,0.261,0.731,0.572,1.357,0.664c0.849,0.125,1.475-0.153,1.511-0.057c0.066,0.175-2.038,1.001-1.948,1.263
	c0.095,0.276,2.374-0.18,2.395-0.087c0.022,0.099-2.591,0.618-2.557,0.845c0.033,0.221,2.542-0.02,2.593,0.266
	c0.05,0.278-2.259,0.815-2.215,0.997c0.043,0.178,2.282-0.193,2.323-0.02c0.042,0.175-2.206,0.718-2.16,0.93
	c0.043,0.2,2.099-0.065,2.124,0.081c0.027,0.151-2.152,0.562-2.124,0.728c0.026,0.156,1.99-0.044,2.016,0.115
	c0.027,0.168-2.15,0.519-2.124,0.795c0.025,0.271,2.153,0.258,2.16,0.452c0.008,0.198-2.212,0.341-2.215,0.61
	c-0.002,0.262,2.118,0.444,2.106,0.603c-0.013,0.167-2.347,0.069-2.377,0.306c-0.029,0.235,2.226,0.609,2.196,0.805
	c-0.03,0.199-2.379-0.008-2.413,0.205c-0.033,0.209,2.193,0.61,2.16,0.839c-0.035,0.239-2.505,0.039-2.539,0.273
	c-0.03,0.203,2.308,0.52,2.287,0.805c-0.016,0.211-1.314,0.335-1.919,0.37c-0.833,0.048-1.2-0.022-1.233,0.088
	c-0.094,0.315,2.759,1.411,2.72,1.496c-0.054,0.116-3.097-1.099-3.206-0.89c-0.088,0.168,2.603,1.367,2.489,1.668
	c-0.078,0.207-1.453-0.061-2.456-0.362c-0.976-0.293-1.495-0.584-1.548-0.497c-0.124,0.205,2.591,2.062,2.543,2.123
	c-0.063,0.08-3.43-2.291-3.679-2.022c-0.185,0.2,1.405,1.776,1.353,1.819c-0.06,0.05-2.144-2.092-2.381-1.92
	c-0.164,0.119,0.77,1.182,0.433,1.567c-0.231,0.263-1.028,0.176-1.299-0.202c-0.33-0.462,0.234-1.206,0.054-1.314
	c-0.231-0.139-1.204,1.211-1.461,1.061c-0.214-0.125,0.151-1.258,0.266-1.615c0.222-0.689,0.39-0.94,0.275-1.064
	c-0.256-0.278-1.531,0.518-1.569,0.455c-0.067-0.11,1.988-1.158,1.84-1.516c-0.123-0.298-1.707,0.018-1.731-0.101
	c-0.026-0.127,1.764-0.502,1.731-0.758c-0.021-0.163-0.762-0.126-0.812-0.354c-0.049-0.23,0.636-0.579,0.703-0.505
	c0.105,0.114-1.524,0.985-1.825,2.473c-0.215,1.064,0.34,1.988,0.469,2.19c1.123,1.758,4.23,2.49,6.349,1.752
	c3.305-1.151,4.018-5.817,4.509-9.029c0.315-2.063,0.591-5.724-0.794-10.276"/>
</svg>
