<?xml version="1.0" encoding="utf-8"?>
<!-- Generator: Adobe Illustrator 19.2.1, SVG Export Plug-In . SVG Version: 6.00 Build 0)  -->
<svg version="1.1" id="Layer_2" xmlns="http://www.w3.org/2000/svg" xmlns:xlink="http://www.w3.org/1999/xlink" x="0px" y="0px"
	 viewBox="0 0 701.5 75.7" style="enable-background:new 0 0 701.5 75.7;" xml:space="preserve">
	 <defs>
		<style type="text/css">
			.st0{fill:none;stroke:#000000;stroke-linecap:round;stroke-linejoin:round;stroke-miterlimit:10;stroke-dasharray:900;}
			.st1{fill:none;stroke:#000000;stroke-width:2;stroke-linecap:round;stroke-linejoin:round;stroke-miterlimit:10;stroke-dasharray:900;}
			.st2{fill:none;stroke:#000000;stroke-width:2;stroke-linecap:round;stroke-linejoin:round;stroke-miterlimit:10;}
			.st3{fill:none;stroke:#000000;stroke-linecap:round;stroke-linejoin:round;stroke-miterlimit:10;}

			.st0,
			.st1,
			.st2,
			.st3 {
				stroke-dasharray: 1500;
				stroke-dashoffset: 0;

				-webkit-animation: dash 4s linear forwards;
				-o-animation: dash 4s linear forwards;
				-moz-animation: dash 4s linear forwards;
				animation: dash 4s linear forwards;
			}

			@keyframes dash {
				from {
					stroke-dashoffset: 1500;
					opacity: 0;
				}
				20% {
					stroke-dashoffset: 1500;
					opacity: 0;
				}
				30% {
					opacity: 1;
				}
				to {
					stroke-dashoffset: 0;
				}
			}
		</style>
	</defs>
<style type="text/css">
	
</style>
<path class="st0" d="M50.393,57.948c0.945,1.805,2.099,2.87,2.825,3.436c0.961,0.749,2.297,1.792,3.473,1.351
	c0.669-0.251,1.007-0.877,1.227-1.285c1.01-1.874,0.349-3.965,0.537-4.006c0.289-0.063,0.747,5.144,3.023,5.795
	c1.279,0.366,2.202-0.973,4.283-0.504c1.137,0.256,1.917,0.893,2.016,0.756c0.153-0.215-2.09-1.286-2.519-3.275
	c-0.304-1.405,0.349-3.035,1.512-4.031c0.379-0.325,1.611-1.38,2.519-1.007c2.052,0.843,0.454,8.162,1.26,8.314
	c0.438,0.082,1.644-1.944,1.763-4.283c0.118-2.299-0.875-3.691,0-4.786c0.645-0.806,1.666-0.656,1.763-1.26
	c0.104-0.646-1.04-0.978-2.016-2.267c-1.106-1.463-1.367-3.327-1.007-3.527c0.497-0.277,1.904,2.774,3.527,2.519
	c0.928-0.145,1.797-1.351,1.763-2.519c-0.026-0.887-0.564-1.496-0.71-1.65c-1.059-1.123-2.822-0.98-2.817-1.121
	c0.008-0.227,4.582,0.084,4.786-0.756c0.188-0.772-3.455-1.981-3.275-2.771c0.215-0.941,5.6-0.163,5.795-1.007
	c0.225-0.976-6.762-2.889-6.55-4.283c0.182-1.196,5.553-1.258,5.542-1.763c-0.011-0.561-6.637-0.535-6.802-1.763
	c-0.118-0.873,3.138-1.549,3.023-2.519c-0.102-0.859-2.826-1.748-4.283-0.756c-1.014,0.691-1.026,2.029-1.512,2.016
	c-0.729-0.021-1.035-3.043-1.512-3.023c-0.224,0.009-0.013,1.83-0.902,3.606c-0.147,0.292-0.233,0.406-0.358,0.426
	c-0.908,0.144-2.157-4.913-2.771-4.786c-0.584,0.12,0.079,4.584-0.756,4.786c-0.22,0.054-0.472-0.206-0.804-0.637
	c-1.608-2.093-2.142-4.418-2.219-4.401c-0.122,0.026,1.582,5.833,0.252,6.55c-0.091,0.049-0.385,0.176-1.363-0.324
	c-2.605-1.332-3.654-3.831-3.927-3.706c-0.382,0.174,1.854,4.972,1.007,5.542c-0.759,0.511-3.635-2.62-4.031-2.267
	c-0.411,0.365,2.663,3.747,1.763,5.039c-0.345,0.494-1.165,0.528-1.963,0.561c-1.744,0.071-3.041-0.641-3.076-0.561
	c-0.066,0.15,4.738,1.977,4.535,3.023c-0.075,0.385-0.809,0.562-1.579,0.748c-1.764,0.426-2.422-0.08-3.208,0.259
	c-1.759,0.76-2.292,4.956-1.007,5.795c1.086,0.709,3.259-1.123,3.527-0.756c0.388,0.531-4.297,4.183-3.779,5.039
	c0.446,0.737,4.421-1.157,4.786-0.504c0.409,0.732-4.189,3.798-3.779,4.535c0.407,0.732,5.206-1.834,6.298-0.504
	c0.848,1.033-1.501,3.242-0.63,4.786c0.955,1.694,5.131,1.432,7.936,0.63c3.375-0.965,3.771-2.428,5.92-2.267
	c3.068,0.228,4.3,3.356,5.668,2.771c1.157-0.494,1.561-3.279,0.63-5.29c-1.074-2.324-3.624-2.954-3.4-3.655
	c0.299-0.931,4.856,0.031,5.29-1.26c0.029-0.087,0.046-0.202-0.03-0.515c-0.517-2.119-2.753-2.921-2.615-3.642
	c0.196-1.018,4.876-0.567,5.039-1.385c0.175-0.884-5.054-2.496-4.913-3.023c0.143-0.533,5.615,0.623,5.795,0
	c0.179-0.624-5.201-2.18-5.039-3.653c0.142-1.29,4.43-1.555,4.408-2.394c-0.024-0.986-5.986-1.272-6.046-2.394
	c-0.05-0.932,4.013-1.772,3.905-2.394c-0.099-0.568-3.464,0.358-5.039-1.385c-1.116-1.236-0.367-2.743-1.512-3.527
	c-1.082-0.741-3.103-0.323-3.527,0.63c-0.642,1.443,2.633,3.539,2.016,4.661c-0.404,0.732-2.349,0.837-3.653,0
	c-1.985-1.273-1.407-4.034-2.771-4.408c-1.078-0.296-2.564,1.116-3.275,2.394c-1.153,2.069-0.388,3.987-1.134,4.283
	c-0.995,0.394-3.027-2.761-3.401-2.519c-0.4,0.258,2.038,3.777,1.134,4.786c-0.897,1.002-4.6-1.007-4.786-0.63
	c-0.196,0.397,3.951,2.522,3.653,3.401c-0.294,0.865-4.657-0.174-5.039,0.882c-0.283,0.785,1.979,1.775,1.763,3.149
	c-0.13,0.827-1.02,0.92-2.267,2.141c-1.243,1.218-2.528,3.249-2.016,4.031c0.687,1.048,4.314-0.586,4.661,0.126
	c0.382,0.786-3.759,3.334-3.401,4.031c0.339,0.661,4.299-1.182,5.039-0.126c0.643,0.918-1.841,3.031-1.134,4.283
	c0.606,1.072,2.686-0.02,4.535,1.26c2.02,1.399,1.752,4.238,2.645,4.283c1.194,0.059,2.032-4.993,3.023-4.913
	c0.971,0.079,0.646,4.977,2.267,5.417c1.149,0.311,2.898-1.719,3.779-3.653c1.702-3.74-0.12-6.516,1.007-7.18
	c1.883-1.108,9.174,5.334,9.196,9.447c0.002,0.343-0.044,1.279,0.504,1.638c0.893,0.584,2.991-0.607,2.897-1.26
	c-0.139-0.973-5.163-0.875-5.164-1.385c-0.002-0.453,3.948-0.429,4.157-1.512c0.213-1.103-3.619-2.502-3.401-3.149
	c0.204-0.606,3.731,0.108,3.779-0.126c0.057-0.28-4.984-1.382-4.913-1.889c0.064-0.457,4.263-0.217,4.283-0.504
	c0.018-0.258-3.382-0.543-3.401-1.134c-0.019-0.584,3.292-0.976,3.275-1.638c-0.015-0.574-2.508-0.525-2.897-1.638
	c-0.295-0.845,0.755-1.979,1.638-2.771"/>
<path class="st1" d="M72.184,27.213c-3.341,0.283-5.074,1.437-6.046,2.519c-1.196,1.331-1.332,2.656-2.519,2.897
	c-0.772,0.156-1.868-0.481-4.031-1.763c-1.71-1.014-2.298-1.497-2.645-1.26c-0.294,0.202-0.173,0.758,0.126,3.149
	c0.267,2.135,0.274,2.532,0,2.771c-0.352,0.308-0.814,0.046-2.771-0.252c-1.373-0.209-2.066-0.31-2.394-0.126
	c-1.135,0.639-1.487,3.266-0.504,5.039c0.683,1.232,1.854,1.766,1.638,2.394c-0.119,0.348-0.581,0.479-1.094,0.618
	c-1.728,0.469-3.106-0.082-3.189,0.138c-0.122,0.319,2.802,1.502,2.645,2.141c-0.088,0.362-1.054,0.096-2.016,0.756
	c-0.882,0.606-1.535,1.839-1.259,2.771c0.216,0.729,0.803,0.61,1.385,1.638c0.368,0.65,0.206,0.826,0.63,2.016
	c0.196,0.549,0.438,1.228,0.882,1.889c0.908,1.352,1.663,1.15,2.016,2.016c0.561,1.379-1.029,2.695-0.504,3.401
	c0.436,0.586,1.586-0.252,3.401-0.126c3.048,0.211,3.998,2.862,6.172,2.394c1.171-0.252,1.134-1.075,2.394-1.26
	c1.979-0.291,3.31,1.556,3.905,1.134c0.862-0.613-1.742-4.632-0.756-5.542c1.075-0.992,5.693,2.364,5.92,2.016
	c0.074-0.114-0.403-0.504-1.217-1.387c-1.139-1.234-2.176-2.359-1.932-2.77c0.299-0.503,2.316,0.388,4.356-0.331
	c0.194-0.069,0.355-0.14,0.432-0.299c0.447-0.934-2.833-3.274-2.645-3.527c0.124-0.166,1.645,0.705,3.929,1.239
	c0.326,0.076,0.542,0.116,0.605,0.02c0.37-0.559-5.355-4.386-4.786-5.542c0.422-0.859,3.961,0.465,4.535-0.63
	c0.447-0.853-1.5-2.04-1.134-3.779c0.211-0.998,1.085-1.713,1.763-2.267c1.278-1.044,2.292-1.143,2.267-1.512
	c-0.002-0.025-0.012-0.061-0.044-0.113c-0.495-0.799-3.754-0.687-4.238-1.65c-0.497-0.988,2.24-2.49,1.889-4.031
	c-0.228-1.001-1.566-1.15-4.408-2.267c-5.045-1.982-5.978-3.537-7.809-2.897c-0.862,0.301-1.54,1.166-2.897,2.897
	c-2.223,2.835-2.063,3.938-3.275,4.408c-2.231,0.862-4.892-2.044-5.545-1.388c-0.693,0.697,2.536,3.747,1.638,5.668
	c-1.033,2.208-6.746,1.27-6.928,2.394c-0.161,0.993,4.312,1.713,4.535,3.653c0.246,2.146-5.037,2.957-5.668,6.424
	c-0.429,2.36,1.418,5.293,3.653,6.172c2.309,0.908,3.923-0.811,5.417,0.252c2.075,1.476,0.983,6.233,1.512,6.298
	c0.49,0.06,0.469-4.143,2.771-5.29c1.741-0.868,4.383,0.224,5.92,1.512c1.95,1.632,1.871,3.366,3.149,3.527
	c1.463,0.184,2.926-1.92,3.779-3.149c1.542-2.22,1.017-2.912,2.267-4.157c1.851-1.842,3.77-1.09,4.535-2.645
	c0.608-1.236,0.03-3.002-0.882-4.031c-1.554-1.753-4.03-1.311-4.157-2.141c-0.161-1.054,3.83-1.714,4.031-3.527
	c0.205-1.855-3.783-2.895-3.653-4.913c0.091-1.401,3.551-2.263,3.777-3.635c0.014-0.082,0.008-0.118,0.002-0.144
	c-0.202-0.796-3.783,0.388-5.039-0.882c-1.516-1.533,1.194-5.798,0.378-6.298c-0.772-0.473-3.901,2.907-3.527,3.401
	c0.193,0.255,1.285-0.307,6.298-2.016c1.02-0.348,2.43-0.813,2.897-0.252c0.088,0.107,0.155,0.264,0.142,0.72
	c-0.045,1.626-0.972,2.6-0.772,2.807c0.302,0.313,2.709-1.598,2.897-1.385c0.175,0.199-1.926,1.886-1.512,2.897
	c0.265,0.648,1.318,0.42,1.638,1.134c0.309,0.69-0.509,1.279-0.882,2.645c-0.407,1.491,0.237,1.997,0.126,3.527
	c-0.17,2.338-1.902,4.308-2.267,4.157c-0.512-0.212,0.637-5.034,2.215-9.013c0.434-1.093,1.283-3.089,1.06-3.205
	c-0.249-0.131-1.268,2.378-2.394,2.267c-1.149-0.113-1.694-2.886-2.141-5.164c-0.543-2.767-0.119-3.312,0.126-3.527
	c0.546-0.48,1.554-0.51,2.287-0.219c0.181,0.072,0.563,0.228,0.862,0.597c0.58,0.715,0.441,1.725,0.378,2.141
	c-1.752,11.533-2.628,17.3-3.653,17.257c-2.574-0.108-5.728-17.656-1.512-19.776c1.89-0.951,5.295,3.693,6.55,2.771
	c0.906-0.666,0.339-3.861-0.63-4.031c-2.623-0.462-8.914,21.121-6.172,27.964c0.589,1.47,1.934,3.106,2.267,6.172
	c0.139,1.283,0.089,2.701,1.134,3.779c0.702,0.725,1.835,1.23,2.267,0.882c0.625-0.503-0.388-2.653-0.504-2.897
	c-1.111-2.355-3.602-4.881-5.039-4.283c-0.931,0.388-1.1,1.954-1.134,2.267c-0.16,1.487,0.65,2.612,0.878,2.905
	c0.71,0.911,1.463,1.062,1.389,1.377c-0.108,0.461-1.865,0.769-2.394,0.126c-0.518-0.63,0.125-2.198,1.512-3.905"/>
<path class="st1" d="M93.762,30.836c1.303-2.336,3.656-3.355,5.443-2.722c1.052,0.373,2.235,1.434,2.041,2.268
	c-0.415,1.786-6.931,1.623-6.917,1.928c0.014,0.321,7.249-0.032,7.37,0.794c0.118,0.803-6.55,2.34-6.463,2.722
	c0.085,0.375,6.559-0.958,6.69-0.453c0.132,0.509-6.316,2.583-6.237,2.835c0.076,0.24,5.902-1.585,6.123-1.02
	c0.213,0.543-4.928,2.909-4.762,3.288c0.169,0.387,5.685-1.717,5.783-1.474c0.108,0.268-6.528,3.011-6.35,3.515
	c0.166,0.469,6.092-1.338,6.237-0.907c0.141,0.419-5.37,2.474-5.216,2.948c0.149,0.46,5.486-0.935,5.556-0.68
	c0.079,0.288-6.693,2.205-6.577,2.722c0.118,0.521,7.171-0.761,7.257-0.34c0.079,0.388-5.848,1.873-5.783,2.155
	c0.062,0.267,5.43-0.908,5.556-0.453c0.135,0.484-5.796,2.391-5.67,2.835c0.128,0.45,6.369-1.037,6.463-0.68
	c0.096,0.361-6.25,2.149-6.123,2.722c0.128,0.58,6.821-0.585,6.917-0.113c0.102,0.501-7.345,2.31-7.257,2.722
	c0.09,0.42,7.939-1.058,8.051-0.567c0.114,0.501-7.955,2.555-7.824,3.175c0.122,0.578,7.274-0.607,7.37-0.113
	c0.099,0.51-7.463,2.266-7.37,2.722c0.09,0.445,7.399-0.769,7.484-0.34c0.089,0.451-8.019,1.792-7.937,2.948
	c0.085,1.21,9.135,2.058,9.525,0.68c0.21-0.743-2.131-2.019-2.041-2.155c0.071-0.107,3.731,2.647,4.082,2.268
	c0.379-0.409-3.402-4.09-2.722-4.989c0.391-0.518,2.055,0.158,2.155-0.113c0.135-0.37-2.988-1.55-2.835-2.381
	c0.124-0.671,2.289-0.588,2.381-1.247c0.096-0.679-2.131-1.279-2.041-2.041c0.076-0.639,1.703-0.764,1.701-1.247
	c-0.002-0.482-1.861-0.364-2.268-1.247c-0.565-1.226,2.019-3.57,1.899-3.678c-0.093-0.084-1.53,1.414-1.673,1.297
	c-0.194-0.16,2.153-3.248,1.799-3.564c-0.164-0.147-0.709,0.479-1.232,0.276c-0.491-0.19-0.781-1.041-0.532-1.662
	c0.26-0.647,1.265-0.806,1.439-0.833c1.099-0.173,1.814,0.394,1.962,0.203c0.302-0.389-2.798-2.784-2.415-3.492
	c0.413-0.766,4.595,1.01,4.934,0.342c0.317-0.624-3.019-2.775-2.781-3.177c0.252-0.426,4.199,1.626,4.422,1.247
	c0.264-0.448-4.736-3.618-4.422-4.195c0.314-0.578,5.648,2.005,6.01,1.36c0.328-0.584-3.677-3.399-3.515-3.629
	c0.171-0.243,4.612,2.936,5.102,2.381c0.524-0.593-3.718-5.143-3.515-5.33c0.204-0.187,4.381,4.486,5.102,3.969
	c0.675-0.484-2.044-5.248-1.701-5.443c0.34-0.193,3.135,4.45,3.628,4.195c0.481-0.248-1.542-4.971-1.247-5.102
	c0.301-0.135,2.459,4.77,3.175,4.535c0.689-0.225-0.655-4.977-0.227-5.102c0.508-0.15,3.836,6.139,1.928,8.164
	c-0.552,0.586-1.602,0.879-1.928,0.567c-0.427-0.41,0.559-1.708,0.113-2.155c-0.472-0.473-2.096,0.467-2.268,0.567
	c-1.093,0.633-1.771,1.469-2.155,2.041"/>
<path class="st0" d="M92.968,29.363c6.557,0.031,8.617-0.532,8.731-1.247c0.157-0.98-3.162-3.331-5.33-2.041
	c-1.706,1.016-2.063,3.91-1.02,4.989c1.703,1.762,7.253-1.201,7.37-0.907c0.143,0.358-8.378,4.054-8.277,4.309
	c0.096,0.245,8.108-2.783,8.277-2.381c0.184,0.438-9.166,4.428-8.845,5.33c0.302,0.846,8.919-1.645,9.072-1.134
	c0.143,0.48-7.329,3.08-7.257,3.288c0.07,0.206,7.407-2.152,7.484-1.928c0.079,0.227-7.423,2.824-7.257,3.402
	c0.162,0.561,7.424-1.273,7.597-0.68c0.179,0.613-7.368,3.307-7.257,3.628c0.107,0.308,7.064-2.072,7.37-1.36
	c0.33,0.768-7.443,4.314-7.03,5.443c0.395,1.079,8.006-0.778,8.051-0.567c0.045,0.215-7.869,2.048-7.824,2.268
	c0.043,0.211,7.367-1.261,7.484-0.794c0.119,0.478-7.377,2.58-7.257,3.062c0.118,0.471,7.437-0.919,7.484-0.68
	c0.046,0.235-7.137,1.293-7.144,2.722c-0.007,1.41,6.986,2.462,6.917,2.835c-0.069,0.367-6.827-0.753-6.917-0.34
	c-0.119,0.549,11.638,3.559,11.566,3.855c-0.069,0.283-10.626-2.986-11.339-1.36c-0.429,0.977,2.631,3.879,6.237,4.422
	c2.101,0.316,5.326-0.028,6.01-1.701c0.449-1.097-0.529-1.95-2.155-5.33c-1.668-3.47-2.662-6.782-2.381-6.917
	c0.366-0.176,2.779,4.34,3.062,4.195c0.382-0.196-3.592-8.704-3.455-8.768c0.075-0.035,1.358,2.408,1.385,2.394
	c0.052-0.027-2.55-4.365-1.763-5.039c0.692-0.593,3.703,1.898,3.905,1.638c0.189-0.243-2.672-2.473-2.34-3.037
	c0.354-0.601,4.012,1.217,4.356,0.644c0.374-0.625-4.083-3.452-3.675-4.272c0.439-0.885,6.191,1.227,6.321,0.871
	c0.132-0.358-5.627-2.764-5.527-3.026c0.107-0.277,6.555,2.347,7.03,1.474c0.442-0.811-4.786-4.462-4.649-4.649
	c0.144-0.197,5.812,4.006,6.237,3.515c0.456-0.526-5.385-6.163-5.102-6.463c0.305-0.324,7.215,6.132,7.824,5.556
	c0.624-0.59-5.688-8.286-5.557-8.391c0.135-0.107,6.772,7.881,7.144,7.597c0.339-0.258-5.279-6.793-3.742-8.731
	c0.574-0.725,1.939-0.542,2.608-0.34c2.301,0.692,3.895,3.861,3.628,7.937"/>
<path class="st0" d="M130.379,58.159c0.945,1.805,2.099,2.87,2.825,3.436c0.961,0.749,2.297,1.792,3.473,1.351
	c0.669-0.251,1.007-0.877,1.227-1.285c1.01-1.874,0.349-3.965,0.537-4.006c0.289-0.063,0.747,5.144,3.023,5.795
	c1.279,0.366,2.202-0.973,4.283-0.504c1.137,0.256,1.917,0.893,2.016,0.756c0.153-0.215-2.09-1.286-2.519-3.275
	c-0.304-1.405,0.349-3.035,1.512-4.031c0.379-0.325,1.611-1.38,2.519-1.007c2.052,0.843,0.454,8.162,1.26,8.314
	c0.438,0.082,1.644-1.943,1.763-4.283c0.118-2.299-0.875-3.691,0-4.786c0.645-0.806,1.666-0.656,1.763-1.26
	c0.104-0.646-1.04-0.978-2.016-2.267c-1.106-1.463-1.367-3.327-1.007-3.527c0.497-0.277,1.904,2.774,3.527,2.519
	c0.928-0.145,1.797-1.351,1.763-2.519c-0.026-0.887-0.564-1.496-0.71-1.65c-1.059-1.123-2.822-0.98-2.817-1.121
	c0.008-0.227,4.582,0.084,4.786-0.756c0.188-0.772-3.455-1.981-3.275-2.771c0.215-0.941,5.6-0.163,5.795-1.007
	c0.225-0.976-6.762-2.889-6.55-4.283c0.182-1.196,5.553-1.258,5.542-1.763c-0.011-0.561-6.637-0.535-6.802-1.763
	c-0.118-0.873,3.138-1.549,3.023-2.519c-0.102-0.859-2.826-1.748-4.283-0.756c-1.014,0.691-1.026,2.029-1.512,2.016
	c-0.729-0.021-1.035-3.043-1.512-3.023c-0.224,0.009-0.013,1.831-0.902,3.606c-0.147,0.292-0.233,0.406-0.358,0.426
	c-0.908,0.144-2.157-4.913-2.771-4.786c-0.584,0.12,0.079,4.584-0.756,4.786c-0.22,0.054-0.472-0.206-0.804-0.637
	c-1.608-2.093-2.142-4.418-2.219-4.401c-0.122,0.026,1.582,5.833,0.252,6.55c-0.091,0.049-0.385,0.176-1.363-0.324
	c-2.605-1.332-3.654-3.831-3.927-3.706c-0.382,0.174,1.854,4.972,1.007,5.542c-0.759,0.511-3.635-2.62-4.031-2.267
	c-0.411,0.365,2.663,3.747,1.763,5.039c-0.345,0.494-1.165,0.528-1.963,0.561c-1.744,0.071-3.04-0.641-3.076-0.561
	c-0.066,0.15,4.738,1.977,4.535,3.023c-0.075,0.385-0.809,0.562-1.579,0.748c-1.764,0.426-2.422-0.08-3.208,0.259
	c-1.759,0.76-2.292,4.956-1.007,5.795c1.086,0.709,3.259-1.123,3.527-0.756c0.388,0.531-4.297,4.183-3.779,5.039
	c0.446,0.737,4.421-1.157,4.786-0.504c0.409,0.732-4.189,3.798-3.779,4.535c0.407,0.732,5.206-1.834,6.298-0.504
	c0.848,1.033-1.501,3.242-0.63,4.786c0.955,1.694,5.131,1.432,7.936,0.63c3.375-0.965,3.771-2.428,5.92-2.267
	c3.068,0.228,4.3,3.356,5.668,2.771c1.157-0.494,1.561-3.279,0.63-5.29c-1.075-2.322-3.625-2.953-3.401-3.653
	c0.299-0.931,4.856,0.031,5.29-1.26c0.029-0.087,0.046-0.202-0.03-0.515c-0.517-2.119-2.753-2.921-2.615-3.642
	c0.196-1.018,4.876-0.567,5.039-1.385c0.175-0.884-5.054-2.496-4.913-3.023c0.143-0.533,5.615,0.623,5.795,0
	c0.179-0.624-5.201-2.18-5.039-3.653c0.142-1.29,4.43-1.555,4.408-2.394c-0.024-0.986-5.986-1.272-6.046-2.394
	c-0.05-0.932,4.013-1.772,3.905-2.394c-0.099-0.568-3.464,0.358-5.039-1.385c-1.116-1.236-0.367-2.743-1.512-3.527
	c-1.082-0.741-3.103-0.323-3.527,0.63c-0.642,1.443,2.633,3.539,2.016,4.661c-0.404,0.732-2.349,0.837-3.653,0
	c-1.985-1.273-1.407-4.034-2.771-4.408c-1.078-0.296-2.564,1.116-3.275,2.394c-1.153,2.069-0.388,3.987-1.134,4.283
	c-0.995,0.394-3.027-2.761-3.401-2.519c-0.4,0.258,2.038,3.777,1.134,4.786c-0.897,1.002-4.6-1.007-4.786-0.63
	c-0.196,0.397,3.951,2.522,3.653,3.401c-0.294,0.865-4.657-0.174-5.039,0.882c-0.283,0.785,1.979,1.775,1.763,3.149
	c-0.13,0.827-1.02,0.92-2.267,2.141c-1.243,1.218-2.528,3.249-2.016,4.031c0.687,1.048,4.314-0.586,4.661,0.126
	c0.382,0.786-3.759,3.334-3.401,4.031c0.339,0.661,4.299-1.182,5.039-0.126c0.643,0.918-1.841,3.031-1.134,4.283
	c0.606,1.072,2.686-0.02,4.535,1.26c2.02,1.399,1.752,4.238,2.645,4.283c1.194,0.059,2.032-4.993,3.023-4.913
	c0.971,0.079,0.646,4.977,2.267,5.417c1.149,0.311,2.898-1.719,3.779-3.653c1.702-3.74-0.12-6.516,1.007-7.18
	c1.883-1.108,9.174,5.334,9.196,9.447c0.002,0.343-0.044,1.279,0.504,1.638c0.893,0.584,2.991-0.607,2.897-1.26
	c-0.139-0.973-5.163-0.875-5.164-1.385c-0.002-0.453,3.948-0.429,4.157-1.512c0.213-1.103-3.619-2.502-3.401-3.149
	c0.204-0.606,3.731,0.108,3.779-0.126c0.057-0.28-4.984-1.382-4.913-1.889c0.064-0.457,4.263-0.217,4.283-0.504
	c0.018-0.258-3.382-0.543-3.401-1.134c-0.019-0.584,3.292-0.976,3.275-1.638c-0.015-0.574-2.508-0.525-2.897-1.638
	c-0.295-0.845,0.755-1.979,1.638-2.771"/>
<path class="st1" d="M152.171,27.424c-3.341,0.283-5.074,1.437-6.046,2.519c-1.196,1.331-1.332,2.656-2.519,2.897
	c-0.772,0.156-1.868-0.481-4.031-1.763c-1.71-1.014-2.298-1.497-2.645-1.26c-0.294,0.202-0.173,0.758,0.126,3.149
	c0.267,2.135,0.274,2.532,0,2.771c-0.352,0.308-0.814,0.046-2.771-0.252c-1.372-0.209-2.066-0.31-2.394-0.126
	c-1.135,0.639-1.487,3.266-0.504,5.039c0.683,1.232,1.854,1.766,1.638,2.394c-0.119,0.348-0.581,0.479-1.094,0.618
	c-1.728,0.469-3.105-0.082-3.189,0.138c-0.122,0.319,2.802,1.502,2.645,2.141c-0.088,0.362-1.054,0.096-2.016,0.756
	c-0.883,0.606-1.536,1.839-1.26,2.771c0.216,0.729,0.803,0.61,1.385,1.638c0.368,0.65,0.206,0.826,0.63,2.016
	c0.196,0.549,0.438,1.228,0.882,1.889c0.908,1.352,1.663,1.15,2.016,2.016c0.561,1.379-1.029,2.695-0.504,3.401
	c0.436,0.586,1.586-0.252,3.401-0.126c3.048,0.211,3.998,2.862,6.172,2.394c1.171-0.252,1.134-1.075,2.394-1.26
	c1.979-0.291,3.31,1.556,3.905,1.134c0.862-0.613-1.742-4.632-0.756-5.542c1.075-0.992,5.693,2.364,5.92,2.016
	c0.074-0.114-0.403-0.504-1.217-1.387c-1.139-1.234-2.176-2.359-1.932-2.77c0.299-0.503,2.316,0.388,4.356-0.331
	c0.194-0.069,0.355-0.14,0.432-0.299c0.447-0.934-2.833-3.274-2.645-3.527c0.124-0.166,1.645,0.705,3.929,1.239
	c0.326,0.076,0.542,0.116,0.605,0.02c0.37-0.559-5.355-4.386-4.786-5.542c0.422-0.859,3.961,0.465,4.535-0.63
	c0.447-0.853-1.5-2.04-1.134-3.779c0.211-0.998,1.085-1.713,1.763-2.267c1.278-1.044,2.292-1.143,2.267-1.512
	c-0.002-0.025-0.012-0.061-0.044-0.113c-0.495-0.799-3.754-0.687-4.238-1.65c-0.497-0.988,2.24-2.49,1.889-4.031
	c-0.228-1.001-1.566-1.15-4.408-2.267c-5.045-1.982-5.978-3.537-7.809-2.897c-0.862,0.301-1.54,1.166-2.897,2.897
	c-2.223,2.835-2.063,3.938-3.275,4.408c-2.228,0.864-4.89-2.041-5.542-1.385c-0.693,0.697,2.536,3.747,1.638,5.668
	c-1.033,2.208-6.746,1.27-6.928,2.394c-0.161,0.993,4.312,1.713,4.535,3.653c0.246,2.146-5.037,2.957-5.668,6.424
	c-0.429,2.36,1.418,5.293,3.653,6.172c2.309,0.908,3.923-0.811,5.417,0.252c2.075,1.476,0.983,6.233,1.512,6.298
	c0.49,0.06,0.469-4.143,2.771-5.29c1.741-0.868,4.383,0.224,5.92,1.512c1.95,1.632,1.871,3.366,3.149,3.527
	c1.463,0.184,2.926-1.92,3.779-3.149c1.542-2.22,1.017-2.912,2.267-4.157c1.851-1.842,3.77-1.09,4.535-2.645
	c0.608-1.236,0.03-3.002-0.882-4.031c-1.554-1.753-4.03-1.311-4.157-2.141c-0.161-1.054,3.83-1.714,4.031-3.527
	c0.205-1.855-3.783-2.895-3.653-4.913c0.091-1.401,3.551-2.263,3.777-3.635c0.014-0.082,0.008-0.118,0.002-0.144
	c-0.202-0.796-3.783,0.388-5.039-0.882c-1.516-1.533,1.194-5.798,0.378-6.298c-0.772-0.473-3.901,2.907-3.527,3.401
	c0.193,0.255,1.285-0.307,6.298-2.016c1.02-0.348,2.43-0.813,2.897-0.252c0.088,0.107,0.155,0.264,0.142,0.72
	c-0.045,1.626-0.972,2.6-0.772,2.807c0.302,0.313,2.709-1.598,2.897-1.385c0.175,0.199-1.926,1.886-1.512,2.897
	c0.265,0.648,1.318,0.42,1.638,1.134c0.309,0.69-0.509,1.279-0.882,2.645c-0.407,1.491,0.237,1.997,0.126,3.527
	c-0.17,2.338-1.902,4.308-2.267,4.157c-0.512-0.212,0.637-5.034,2.215-9.013c0.434-1.093,1.283-3.089,1.06-3.205
	c-0.249-0.131-1.268,2.378-2.394,2.267c-1.149-0.113-1.694-2.886-2.141-5.164c-0.543-2.767-0.119-3.312,0.126-3.527
	c0.546-0.48,1.554-0.51,2.287-0.219c0.181,0.072,0.563,0.228,0.862,0.597c0.58,0.715,0.441,1.725,0.378,2.141
	c-1.752,11.533-2.628,17.3-3.653,17.257c-2.574-0.108-5.728-17.656-1.512-19.777c1.89-0.951,5.295,3.693,6.55,2.771
	c0.906-0.666,0.339-3.861-0.63-4.031c-2.623-0.462-8.914,21.121-6.172,27.964c0.589,1.47,1.934,3.106,2.267,6.172
	c0.139,1.283,0.089,2.701,1.134,3.779c0.702,0.725,1.835,1.23,2.267,0.882c0.625-0.503-0.388-2.653-0.504-2.897
	c-1.111-2.355-3.602-4.881-5.039-4.283c-0.931,0.388-1.1,1.954-1.134,2.267c-0.16,1.487,0.65,2.612,0.878,2.905
	c0.71,0.911,1.463,1.062,1.389,1.377c-0.108,0.461-1.865,0.769-2.394,0.126c-0.518-0.63,0.125-2.198,1.512-3.905"/>
<path class="st1" d="M199.992,33.669c1.725-0.064,3.116-1.407,3.346-3.087c0.221-1.621-0.656-3.447-1.619-3.561
	c-1.707-0.203-3.215,5.03-3.994,4.749c-0.789-0.285,0.411-5.793-0.323-6.055c-0.77-0.273-2.79,5.516-3.777,5.223
	c-0.97-0.287-0.11-6.194-0.971-6.411c-0.831-0.209-2.037,5.177-3.669,5.105c-1.555-0.07-2.067-5.024-3.238-4.986
	c-1.556,0.05-2.382,8.851-3.13,8.784c-0.649-0.058-0.211-6.689-1.403-7.004c-0.764-0.202-2.083,2.583-3.454,6.173
	c2.079,1.484,3.495,2.644,3.346,2.968c-0.289,0.624-6.307-2.07-6.367-1.899c-0.138,0.388,6.907,4.273,6.907,4.274
	c-3.616-0.459-6.271,0.063-6.692,1.306c-0.395,1.168,1.681,3.802,3.885,3.917c2.771,0.145,4.759-3.74,5.504-3.205
	c0.761,0.546-1.14,4.72-0.54,5.105c0.667,0.427,3.646-4.294,4.209-3.917c0.531,0.354-1.568,4.908-1.079,5.223
	c0.558,0.36,3.621-5.349,5.073-4.749c1.107,0.457,0.484,4.257,1.403,4.511c0.973,0.268,1.908-3.919,3.885-4.036
	c1.375-0.082,2.985,1.82,2.914,3.443c-0.092,2.112-3.016,3.301-2.806,3.799c0.302,0.718,6.33-1.892,6.584-1.306
	c0.276,0.639-6.637,4.326-6.259,5.461c0.413,1.239,9.304-1.219,9.39-0.831c0.089,0.405-9.662,2.852-9.497,4.63
	c0.101,1.093,3.877,1.134,3.885,2.018c0.008,0.778-2.906,2.149-5.073,1.069c-1.99-0.992-2.477-3.616-3.022-3.443
	c-0.781,0.248,0.136,5.663-0.432,5.817c-0.563,0.152-1.639-5.131-3.022-5.105c-1.647,0.032-2.493,7.573-3.454,7.479
	c-0.994-0.097-0.722-8.243-1.942-8.428c-1.267-0.193-2.944,8.382-4.317,8.191c-1.308-0.181-0.856-8.106-2.482-8.428
	c-1.547-0.307-3.962,6.461-4.317,6.292c-0.376-0.18,3.013-7.441,1.187-9.26c-1.302-1.297-4.558,0.875-4.965,0.119
	c-0.562-1.045,3.382-5.241,3.994-4.749c0.681,0.549-3.21,6.615-2.159,7.598c0.94,0.879,5.216-2.883,5.396-2.612
	c0.172,0.259-4.251,2.95-4.101,5.936c0.113,2.263,2.258,4.401,3.238,4.036c1.022-0.38,0.527-3.415,1.835-3.917
	c0.865-0.333,1.62,0.788,2.375,0.356c0.902-0.516,0.677-2.603,0.863-2.612c0.338-0.016,0.798,6.875,1.403,6.885
	c0.383,0.007,0.203-2.755,1.942-4.274c0.231-0.202,1.292-1.128,2.375-0.831c1.478,0.406,1.254,2.618,3.13,4.155
	c1.197,0.98,3.05,1.523,3.669,0.831c1.171-1.31-2.176-6.929-2.05-7.004c0.128-0.076,3.138,6.104,3.777,5.817
	c0.634-0.286-1.695-6.655-0.432-7.479c1.336-0.871,4.896,5.634,7.771,4.63c1.477-0.516,2.512-2.923,1.942-4.155
	c-1.033-2.236-7.289-0.476-7.447-1.306c-0.172-0.901,7.166-3.214,7.015-3.917c-0.133-0.619-5.919,0.752-6.259-0.356
	c-0.348-1.134,5.22-4.161,4.965-4.749c-0.224-0.517-4.383,2.151-6.259,0.475c-1.515-1.353-0.549-4.647-1.511-4.986
	c-1.162-0.409-3.155,4.192-4.101,3.799c-0.853-0.354,0.002-4.412-0.648-4.63c-0.793-0.265-2.071,5.765-4.749,6.055
	c-1.124,0.121-2.152-0.829-4.209-2.731c-1.208-1.117-1.813-1.692-1.835-2.493c-0.051-1.92,3.229-3.62,3.346-3.443
	c0.189,0.286-7.239,6.441-7.555,6.055c-0.2-0.244,2.79-2.657,2.267-4.63c-0.505-1.904-3.913-2.017-3.885-2.849
	c0.042-1.223,7.421-1.363,7.555-2.849c0.111-1.229-4.798-2.664-4.64-3.324c0.105-0.441,2.223,0.51,3.994-0.593
	c2.279-1.421,2.224-5.152,3.13-5.105c0.588,0.031,0.644,1.607,2.05,4.036c0.849,1.467,1.533,2.649,2.267,2.612
	c1.806-0.091,2.875-7.539,3.13-7.479c0.245,0.058-1.174,6.841-0.216,7.241c0.893,0.373,3.317-5.03,4.209-4.63
	c0.794,0.357-0.832,4.767,0.54,5.936c1.335,1.137,5.103-0.19,5.504-2.018c0.669-3.043-8.148-6.481-7.674-7.541
	c0.469-1.051,10.299-0.291,11.588,5.164c0.652,2.759-1.208,5.331-1.763,6.046"/>
<path class="st0" d="M202.42,32.629c2.41-0.678,4.103-2.522,4.352-4.661c0.029-0.252,0.249-2.143-0.573-2.645
	c-1.715-1.046-6.962,4.565-6.413,5.542c0.376,0.67,3.919-0.042,4.466-2.141c0.444-1.703-1.154-4.05-2.978-4.283
	c-2.489-0.317-4.63,3.404-4.008,4.786c0.633,1.407,4.574,1.385,5.268-0.126c0.896-1.951-3.229-7.224-5.612-6.55
	c-2.069,0.585-2.239,5.487-3.321,5.417c-1.205-0.079-1.549-6.191-2.29-6.172c-0.781,0.02-1.202,6.822-1.489,6.802
	c-0.291-0.02-0.147-7.033-0.458-7.054c-0.306-0.02-0.316,6.741-1.832,7.054c-1.488,0.307-3.795-5.725-3.894-5.668
	c-0.107,0.061,3.15,6.72,2.405,7.306c-0.283,0.223-1.72-2.914-5.095-4.538c-1.335-0.642-1.99-0.581-2.348-0.5
	c-2.048,0.466-3.469,3.605-2.634,5.039c0.917,1.574,5.25,0.671,5.497-0.63c0.231-1.217-3.083-2.956-3.207-2.771
	c-0.173,0.258,5.721,4.554,5.039,6.172c-0.512,1.215-4.073-0.639-7.329,1.638c-1.455,1.017-2.781,2.812-2.405,3.653
	c0.705,1.578,7.237-0.537,7.329-0.126c0.092,0.41-6.606,1.647-6.642,3.527c-0.027,1.392,3.595,3.356,5.612,2.141
	c2.112-1.273,1.637-5.538,2.29-5.542c0.667-0.005,2.236,4.433,0.573,5.92c-1.492,1.334-4.901-0.32-5.154-2.016
	c-0.304-2.045,3.748-5.767,6.528-4.408c2.14,1.047,3.193,4.944,1.947,6.676c-0.558,0.775-1.677,1.258-2.061,0.882
	c-0.732-0.717,0.539-5.21,3.436-6.172c0.19-0.063,2.202-0.696,3.436,0.63c1.207,1.298,1.03,3.787-0.115,5.29
	c-1.074,1.41-3.016,1.972-4.237,1.26c-2.557-1.49-1.491-8.282-0.229-8.565c1.525-0.343,3.551,8.775,5.841,8.44
	c1.837-0.269,2.459-6.418,3.207-6.298c0.707,0.113,0.187,5.629,1.26,5.92c1.189,0.323,2.73-6.21,4.81-6.046
	c1.218,0.096,2.609,2.49,1.947,4.031c-0.684,1.592-3.372,1.834-3.894,1.007c-0.356-0.563,0.143-1.865,0.916-2.267
	c1.469-0.766,3.941,1.71,3.665,2.645c-0.354,1.196-5.102-0.481-6.07,1.512c-0.487,1.003,0.194,2.499,0.916,3.275
	c2.029,2.181,6.137,0.835,7.128-0.291c0.537-0.61,0.775-1.094,0.775-1.094c0.359-0.731,0.287-1.143,0.573-1.26
	c0.47-0.193,1.279,0.384,1.374,1.007c0.143,0.93-1.31,1.902-2.061,2.394c-4.263,2.789-8.258,1.537-8.933,3.527
	c-0.13,0.385-0.184,1.031,0.115,1.385c0.917,1.093,4.378-1.497,8.36-1.134c0.536,0.049,1.27,0.169,1.603,0.756
	c0.392,0.692,0.168,1.93-0.458,2.394c-0.968,0.718-2.213-0.922-4.695-1.385c-2.555-0.477-5.306,0.5-5.383,1.385
	c-0.119,1.385,6.304,2.434,6.184,3.527c-0.098,0.893-4.603,2.19-7.1,0c-1.88-1.648-1.51-4.297-3.665-5.29
	c-0.889-0.41-2.155-0.515-2.634,0.126c-0.73,0.978,0.31,3.777,1.832,5.542c0.903,1.048,1.671,1.376,1.603,2.016
	c-0.088,0.819-1.502,1.707-2.52,1.385c-2.371-0.75-2.001-7.886-2.978-7.936c-0.13-0.007-0.228,0.114-0.299,0.206
	c-1.495,1.914-2.013,7.184-2.449,7.226c-0.556,0.054-1.657-8.351-2.176-8.314c-0.523,0.037-0.331,8.912-0.802,8.943
	c-0.466,0.031-0.982-8.674-1.947-8.691c-0.941-0.017-1.62,8.233-2.176,8.187c-0.623-0.051-0.521-10.449-0.802-10.455
	c-0.249-0.006,0.276,8.258-1.832,8.943c-1.176,0.382-3.244-1.569-3.436-3.653c-0.046-0.5,0.017-0.933,0.131-1.371
	c0.884-3.411,4.139-5.29,3.991-5.557c-0.181-0.329-4.976,2.739-5.383,2.141c-0.138-0.202,1.59-1.385,2.569-3.724
	c0.271-0.649,0.275-0.883,0.18-1.063c-0.611-1.159-4.919,0.614-5.268-0.126c-0.293-0.622,2.065-3.332,4.466-2.771
	c0.998,0.233,1.902,1.007,2.336,2.016c0.113,0.263,0.718,1.663,0.126,2.394c-1.097,1.352-4.9-1.329-6.298,0
	c-1.066,1.014-0.589,4.217,1.134,5.29c2.846,1.774,8.298-2.765,8.943-1.889c0.617,0.835-4.555,4.694-3.653,6.55
	c0.523,1.075,3,1.298,4.913,0.63c3.748-1.309,3.797-5.499,6.172-5.668c2.425-0.173,5.441,3.975,4.661,6.424
	c-0.503,1.578-2.428,1.973-2.267,2.519c0.261,0.886,5.677,1.072,6.55-0.882c1.239-2.773-6.903-9.328-7.18-9.069
	c-0.297,0.277,7.29,9.528,8.691,8.691c1.248-0.745-3.331-8.947-1.638-10.203c1.843-1.367,9.992,6.896,10.077,6.802
	c0.088-0.098-9.094-8.58-8.691-9.069c0.355-0.432,7.453,6.263,9.699,4.661c1.618-1.154,0.017-6.112-1.26-8.691
	c-0.627-1.267-2.606-5.267-6.802-6.802c-2.169-0.794-4.052-0.608-5.164-0.504c-8.843,0.823-19.588,1.14-19.776,0.252
	c-0.179-0.843,9.192-2.715,9.069-4.913c-0.106-1.904-7.281-3.031-7.18-3.527c0.111-0.546,8.684,1.609,9.825-0.63
	c0.991-1.944-4.452-5.566-3.401-7.558c0.694-1.314,4.043-1.6,5.92-0.126c2.921,2.295,1.3,8.089,2.267,8.314
	c0.57,0.132,1.774-1.73,4.408-9.196"/>
<path class="st1" d="M672.512,31.387c1.725-0.064,3.116-1.407,3.346-3.087c0.221-1.621-0.656-3.447-1.619-3.561
	c-1.707-0.203-3.215,5.03-3.994,4.749c-0.789-0.285,0.411-5.793-0.323-6.055c-0.77-0.273-2.79,5.516-3.777,5.223
	c-0.97-0.287-0.11-6.194-0.971-6.411c-0.831-0.209-2.037,5.177-3.669,5.105c-1.555-0.07-2.067-5.024-3.238-4.986
	c-1.556,0.05-2.382,8.851-3.13,8.784c-0.649-0.058-0.211-6.689-1.403-7.004c-0.764-0.202-2.083,2.583-3.454,6.173
	c2.079,1.484,3.495,2.644,3.346,2.968c-0.289,0.624-6.307-2.07-6.367-1.899c-0.138,0.388,6.907,4.273,6.907,4.274
	c-3.616-0.459-6.271,0.063-6.692,1.306c-0.395,1.168,1.681,3.802,3.885,3.917c2.771,0.145,4.759-3.74,5.504-3.205
	c0.761,0.546-1.14,4.72-0.54,5.105c0.667,0.427,3.646-4.294,4.209-3.917c0.531,0.354-1.568,4.908-1.079,5.223
	c0.558,0.36,3.621-5.349,5.073-4.749c1.107,0.457,0.484,4.257,1.403,4.511c0.973,0.268,1.908-3.919,3.885-4.036
	c1.375-0.082,2.985,1.82,2.914,3.443c-0.092,2.112-3.016,3.301-2.806,3.799c0.302,0.718,6.33-1.892,6.584-1.306
	c0.276,0.639-6.637,4.326-6.259,5.461c0.413,1.239,9.304-1.219,9.39-0.831c0.089,0.405-9.662,2.852-9.497,4.63
	c0.101,1.093,3.877,1.134,3.885,2.018c0.008,0.778-2.906,2.149-5.073,1.069c-1.99-0.992-2.477-3.616-3.022-3.443
	c-0.781,0.248,0.136,5.663-0.432,5.817c-0.563,0.152-1.639-5.131-3.022-5.105c-1.647,0.032-2.493,7.573-3.454,7.479
	c-0.994-0.097-0.722-8.243-1.942-8.428c-1.267-0.193-2.944,8.382-4.317,8.191c-1.308-0.181-0.856-8.106-2.482-8.428
	c-1.547-0.307-3.962,6.461-4.317,6.292c-0.376-0.18,3.013-7.441,1.187-9.26c-1.302-1.297-4.558,0.875-4.965,0.119
	c-0.562-1.045,3.382-5.241,3.994-4.749c0.681,0.549-3.21,6.615-2.159,7.598c0.94,0.879,5.216-2.883,5.396-2.612
	c0.172,0.259-4.251,2.95-4.101,5.936c0.113,2.263,2.258,4.401,3.238,4.036c1.022-0.38,0.527-3.415,1.835-3.917
	c0.865-0.333,1.62,0.788,2.375,0.356c0.902-0.516,0.677-2.603,0.863-2.612c0.338-0.016,0.798,6.875,1.403,6.885
	c0.383,0.007,0.203-2.755,1.942-4.274c0.231-0.202,1.292-1.128,2.375-0.831c1.478,0.406,1.254,2.618,3.13,4.155
	c1.197,0.98,3.05,1.523,3.669,0.831c1.171-1.31-2.176-6.929-2.05-7.004c0.128-0.076,3.138,6.104,3.777,5.817
	c0.634-0.286-1.695-6.655-0.432-7.479c1.336-0.871,4.896,5.634,7.771,4.63c1.477-0.516,2.512-2.923,1.942-4.155
	c-1.033-2.236-7.289-0.476-7.447-1.306c-0.172-0.901,7.166-3.214,7.015-3.917c-0.133-0.619-5.919,0.752-6.259-0.356
	c-0.348-1.134,5.22-4.161,4.965-4.749c-0.224-0.517-4.383,2.151-6.259,0.475c-1.515-1.353-0.549-4.647-1.511-4.986
	c-1.162-0.409-3.155,4.192-4.101,3.799c-0.853-0.354,0.002-4.412-0.648-4.63c-0.793-0.265-2.071,5.765-4.749,6.055
	c-1.124,0.121-2.152-0.829-4.209-2.731c-1.208-1.117-1.813-1.692-1.835-2.493c-0.051-1.92,3.229-3.62,3.346-3.443
	c0.189,0.286-7.239,6.441-7.555,6.055c-0.2-0.244,2.79-2.657,2.267-4.63c-0.505-1.904-3.913-2.017-3.885-2.849
	c0.042-1.223,7.421-1.363,7.555-2.849c0.111-1.229-4.798-2.664-4.641-3.324c0.105-0.441,2.223,0.51,3.994-0.593
	c2.279-1.421,2.224-5.152,3.13-5.105c0.588,0.031,0.644,1.607,2.05,4.036c0.849,1.467,1.533,2.649,2.267,2.612
	c1.806-0.091,2.875-7.539,3.13-7.479c0.245,0.058-1.174,6.841-0.216,7.241c0.893,0.373,3.317-5.03,4.209-4.63
	c0.794,0.357-0.832,4.767,0.54,5.936c1.335,1.137,5.103-0.19,5.504-2.018c0.669-3.043-8.148-6.481-7.674-7.541
	c0.469-1.051,10.299-0.291,11.588,5.164c0.652,2.759-1.208,5.331-1.763,6.046"/>
<path class="st0" d="M674.94,30.347c2.41-0.678,4.103-2.522,4.352-4.661c0.029-0.252,0.249-2.143-0.573-2.645
	c-1.715-1.046-6.962,4.565-6.413,5.542c0.376,0.67,3.919-0.042,4.466-2.141c0.444-1.703-1.154-4.05-2.978-4.283
	c-2.489-0.317-4.63,3.404-4.008,4.786c0.633,1.407,4.574,1.385,5.268-0.126c0.896-1.951-3.229-7.224-5.612-6.55
	c-2.069,0.585-2.239,5.487-3.321,5.417c-1.205-0.079-1.549-6.191-2.29-6.172c-0.781,0.02-1.202,6.822-1.489,6.802
	c-0.291-0.02-0.147-7.033-0.458-7.054c-0.306-0.02-0.316,6.741-1.832,7.054c-1.488,0.307-3.795-5.725-3.894-5.668
	c-0.107,0.061,3.15,6.72,2.405,7.306c-0.283,0.223-1.72-2.914-5.095-4.538c-1.335-0.642-1.99-0.581-2.348-0.5
	c-2.048,0.466-3.469,3.605-2.634,5.039c0.917,1.574,5.25,0.671,5.497-0.63c0.231-1.217-3.083-2.956-3.207-2.771
	c-0.173,0.258,5.72,4.554,5.039,6.172c-0.512,1.215-4.073-0.639-7.329,1.638c-1.455,1.017-2.781,2.812-2.405,3.653
	c0.705,1.578,7.237-0.537,7.329-0.126c0.092,0.41-6.606,1.647-6.642,3.527c-0.027,1.392,3.595,3.356,5.612,2.141
	c2.112-1.273,1.637-5.538,2.29-5.542c0.667-0.005,2.236,4.433,0.573,5.92c-1.492,1.334-4.901-0.32-5.154-2.016
	c-0.304-2.045,3.748-5.767,6.528-4.408c2.14,1.047,3.193,4.944,1.947,6.676c-0.558,0.775-1.677,1.258-2.061,0.882
	c-0.732-0.717,0.539-5.21,3.436-6.172c0.19-0.063,2.202-0.696,3.436,0.63c1.207,1.298,1.03,3.787-0.115,5.29
	c-1.074,1.41-3.016,1.972-4.237,1.26c-2.557-1.49-1.491-8.282-0.229-8.565c1.525-0.343,3.551,8.775,5.841,8.44
	c1.837-0.269,2.459-6.418,3.207-6.298c0.707,0.113,0.187,5.629,1.26,5.92c1.189,0.323,2.73-6.21,4.81-6.046
	c1.218,0.096,2.609,2.49,1.947,4.031c-0.684,1.592-3.372,1.834-3.894,1.007c-0.356-0.563,0.143-1.865,0.916-2.267
	c1.469-0.766,3.941,1.71,3.665,2.645c-0.354,1.196-5.102-0.481-6.07,1.512c-0.487,1.003,0.194,2.499,0.916,3.275
	c2.029,2.181,6.137,0.835,7.128-0.291c0.537-0.61,0.775-1.094,0.775-1.094c0.359-0.731,0.287-1.143,0.573-1.26
	c0.47-0.193,1.279,0.384,1.374,1.007c0.143,0.93-1.31,1.902-2.061,2.394c-4.263,2.789-8.258,1.537-8.933,3.527
	c-0.13,0.385-0.184,1.031,0.115,1.385c0.917,1.093,4.378-1.497,8.36-1.134c0.536,0.049,1.271,0.169,1.603,0.756
	c0.392,0.692,0.168,1.93-0.458,2.394c-0.968,0.718-2.213-0.922-4.695-1.385c-2.555-0.477-5.306,0.5-5.383,1.385
	c-0.119,1.385,6.304,2.434,6.184,3.527c-0.098,0.893-4.603,2.19-7.1,0c-1.88-1.648-1.51-4.297-3.665-5.29
	c-0.889-0.41-2.155-0.515-2.634,0.126c-0.73,0.978,0.31,3.777,1.832,5.542c0.903,1.048,1.671,1.376,1.603,2.016
	c-0.088,0.819-1.502,1.707-2.52,1.385c-2.371-0.75-2.001-7.886-2.978-7.936c-0.13-0.007-0.228,0.114-0.299,0.206
	c-1.495,1.914-2.013,7.184-2.449,7.226c-0.556,0.054-1.657-8.351-2.176-8.314c-0.523,0.037-0.331,8.912-0.802,8.943
	c-0.466,0.031-0.982-8.674-1.947-8.691c-0.941-0.017-1.62,8.233-2.176,8.187c-0.623-0.051-0.521-10.449-0.802-10.455
	c-0.249-0.006,0.276,8.258-1.832,8.943c-1.176,0.382-3.244-1.569-3.436-3.653c-0.046-0.5,0.017-0.933,0.131-1.371
	c0.884-3.411,4.139-5.29,3.991-5.557c-0.181-0.329-4.976,2.739-5.383,2.141c-0.138-0.202,1.59-1.385,2.569-3.724
	c0.271-0.649,0.275-0.883,0.18-1.063c-0.611-1.159-4.919,0.614-5.268-0.126c-0.293-0.622,2.065-3.332,4.466-2.771
	c0.998,0.233,1.902,1.007,2.336,2.016c0.113,0.263,0.718,1.663,0.126,2.394c-1.097,1.352-4.9-1.329-6.298,0
	c-1.066,1.014-0.589,4.217,1.134,5.29c2.846,1.774,8.298-2.765,8.943-1.889c0.617,0.835-4.555,4.694-3.653,6.55
	c0.523,1.075,3,1.298,4.913,0.63c3.748-1.309,3.797-5.499,6.172-5.668c2.425-0.173,5.441,3.975,4.661,6.424
	c-0.503,1.578-2.428,1.973-2.267,2.519c0.261,0.886,5.677,1.072,6.55-0.882c1.24-2.773-6.903-9.328-7.18-9.069
	c-0.297,0.277,7.29,9.528,8.691,8.691c1.248-0.745-3.331-8.947-1.638-10.203c1.843-1.367,9.992,6.896,10.077,6.802
	c0.088-0.098-9.094-8.58-8.691-9.069c0.355-0.432,7.453,6.263,9.699,4.661c1.618-1.154,0.017-6.112-1.26-8.691
	c-0.627-1.267-2.606-5.267-6.802-6.802c-2.169-0.794-4.052-0.608-5.164-0.504c-8.843,0.823-19.588,1.14-19.776,0.252
	c-0.179-0.843,9.192-2.715,9.069-4.913c-0.106-1.904-7.281-3.031-7.18-3.527c0.111-0.546,8.684,1.609,9.825-0.63
	c0.991-1.944-4.452-5.566-3.401-7.558c0.694-1.314,4.043-1.6,5.92-0.126c2.921,2.295,1.3,8.089,2.267,8.314
	c0.57,0.132,1.774-1.73,4.409-9.196"/>
<path class="st1" d="M246.555,54.594c1.858-0.017,3.321,1.301,3.553,2.894c0.204,1.4-0.533,3.084-1.453,3.256
	c-1.995,0.37-4.52-6.428-4.684-6.33c-0.179,0.107,3.45,7.881,3.068,8.139c-0.379,0.255-4.462-7.035-5.006-6.692
	c-0.547,0.345,2.859,8.168,2.584,8.32c-0.283,0.157-3.919-8.123-4.684-7.777c-0.73,0.33,1.617,8.311,1.131,8.501
	c-0.503,0.196-3.312-8.209-4.037-7.958c-0.683,0.237,0.973,7.994,0.484,8.139c-0.53,0.157-2.648-8.894-3.876-8.682
	c-1.168,0.202-0.858,8.667-1.292,8.682c-0.469,0.016-0.735-9.88-1.776-9.948c-1.007-0.066-2.336,9.094-2.584,9.044
	c-0.262-0.053,1.749-10.174,0.162-10.852c-1.28-0.546-4.451,5.244-4.684,5.064c-0.246-0.19,3.888-6.216,2.907-7.416
	c-0.995-1.217-6.926,2.932-6.944,2.894c-0.019-0.04,6.973-3.539,6.621-5.064c-0.373-1.615-8.833-0.39-8.882-0.905
	c-0.051-0.539,9.249-1.797,9.205-2.713c-0.045-0.913-9.351-0.918-9.366-1.628c-0.016-0.698,8.979-1.02,9.044-2.351
	c0.063-1.326-8.767-2.985-8.72-3.256c0.046-0.268,8.584,2.055,9.205,0.362c0.622-1.697-6.94-6.787-6.782-7.054
	c0.162-0.274,7.783,5.815,8.882,4.522c1.057-1.244-4.402-8.752-3.876-9.224c0.518-0.465,5.853,6.779,6.944,5.968
	c0.965-0.716-1.961-7.311-1.453-7.596c0.534-0.299,3.815,6.992,5.006,6.511c1.145-0.462-0.299-7.85,0.162-7.958
	c0.468-0.11,1.886,7.528,2.907,7.416c1.058-0.116,1.19-8.512,1.453-8.501c0.26,0.011-0.28,8.199,0.969,8.501
	c1.214,0.293,3.593-7.001,3.876-6.873c0.296,0.133-2.658,7.951-1.776,8.501c0.933,0.582,5.805-7.194,5.975-7.054
	c0.169,0.14-5.031,7.584-4.199,8.501c0.791,0.871,6.705-4.501,6.944-4.16c0.243,0.345-5.979,5.603-5.329,6.873
	c0.602,1.177,6.807-1.667,6.944-1.266c0.155,0.45-7.678,4.018-7.429,4.883c0.244,0.847,7.991-1.747,8.559-0.181
	c0.206,0.568-0.584,1.535-1.131,1.989c-0.984,0.819-2.122,0.757-2.584,0.723c-2.703-0.193-4.008-2.634-4.898-2.05
	c-0.741,0.486-0.302,2.482-0.754,2.592c-0.533,0.13-1.307-2.601-1.938-2.472c-0.494,0.101-0.302,1.833-0.969,2.11
	c-0.896,0.373-2.461-2.248-2.799-1.989c-0.243,0.186,0.46,1.623,0.215,1.809c-0.32,0.243-1.676-2.106-2.476-1.809
	c-0.916,0.341-0.484,3.92-0.862,3.979c-0.484,0.075-1.291-5.816-2.153-5.788c-0.815,0.027-1.159,5.332-1.722,5.306
	c-0.552-0.026-0.823-5.14-1.184-5.124c-0.245,0.011-0.185,2.283-0.807,2.532c-0.593,0.237-1.302-1.973-1.938-1.809
	c-0.489,0.127-0.834,1.597-0.377,2.713c0.308,0.75,1.056,1.586,1.722,1.447c1.352-0.283,1.249-4.341,2.261-4.461
	c1.038-0.123,2.048,4.038,2.799,3.858c0.593-0.142,0.496-2.868,0.862-2.894c0.414-0.029,0.511,3.474,1.831,3.858
	c0.49,0.143,0.961-0.2,1.184-0.362c1.589-1.156,1.355-4.087,1.722-4.099c0.488-0.017,0.809,5.166,1.4,5.185
	c0.567,0.019,1.221-4.735,1.4-4.702c0.142,0.026-0.645,2.986,0.431,3.979c0.715,0.661,1.945,0.122,3.015-0.241
	c1.017-0.345,5.015-1.905,6.352-6.391c0.638-2.14,0.38-3.971,0.323-4.34c-0.737-4.799-5.012-7.429-6.46-8.32
	c-7.642-4.701-16.132-0.902-17.764-0.121c-3.871,1.854-6.141,4.437-6.675,5.064c-1.216,1.426-3.979,4.756-4.737,10.008
	c-0.639,4.433,0.489,7.883,1.184,10.008c0.603,1.843,2.281,6.768,6.782,10.49c3.294,2.723,6.478,3.463,8.828,3.979
	c5.337,1.171,14.763,1.428,16.149-2.773c1.143-3.464-3.533-8.89-3.876-8.682c-0.166,0.101,0.825,1.432,0.646,3.015
	c-0.429,3.78-7.364,7.432-13.457,6.391c-5.901-1.009-9.331-6.135-10.873-8.441c-1.554-2.322-5.412-8.088-3.984-14.348
	c0.791-3.468,2.871-5.623,5.706-8.561c1.981-2.053,4.838-5.013,8.397-6.15c8.698-2.776,17.301,6.708,17.979,7.476"/>
<path class="st0" d="M248.493,53.328c3.702-0.316,6.736,1.231,7.22,3.108c0.809,3.133-5.482,7.207-6.897,6.478
	c-0.061-0.032-0.124-0.064-0.159-0.137c-0.402-0.853,5.276-2.803,5.417-5.46c0.117-2.202-3.563-4.951-6.659-4.472
	c-0.877,0.136-1.96,0.57-1.938,0.964c0.049,0.87,5.374,0.039,6.959,2.626c0.914,1.492,0.331,3.706-0.715,5.091
	c-1.199,1.587-3.472,2.763-5.06,2.05c-3.378-1.518-3.44-9.578-3.768-9.526c-0.369,0.059,0.961,10.05-0.107,10.37
	c-1.02,0.305-3.745-8.326-4.414-8.079c-0.632,0.234,1.299,8.128,0.754,8.32c-0.577,0.203-3.241-8.436-3.984-8.199
	c-0.713,0.227,0.791,8.475,0.431,8.561c-0.373,0.088-1.852-8.77-3.229-8.682c-1.243,0.08-1.747,7.4-2.153,7.355
	c-0.478-0.053,0.41-10.176-0.538-10.37c-0.923-0.188-3.171,9.098-3.338,9.044c-0.174-0.057,2.53-10.179,2.046-10.37
	c-0.472-0.185-3.908,9.027-3.876,9.044c0.034,0.017,4.402-9.685,3.445-10.37c-0.924-0.661-6.523,7.277-6.567,7.234
	c-0.047-0.045,6.662-8.455,6.244-8.923c-0.404-0.452-7.38,6.573-7.429,6.511c-0.049-0.063,7.441-7.033,6.998-7.717
	c-0.425-0.656-8.02,4.685-8.075,4.582c-0.056-0.105,8.045-5.374,7.751-6.029c-0.299-0.666-9.097,3.87-9.366,3.256
	c-0.274-0.625,8.607-5.749,8.29-6.511c-0.302-0.728-8.886,2.812-8.828,3.015c0.062,0.216,10.18-2.711,10.013-3.979
	c-0.008-0.064-0.04-0.112-0.081-0.157c-1.283-1.438-11.257-0.871-11.223-0.566c0.036,0.327,11.418-0.837,11.412-1.326
	c-0.006-0.45-9.965-1.298-10.013-0.844c-0.047,0.441,9.487,0.49,10.335-0.603c0.026-0.034,0.646-0.844,0.646-0.844
	c-0.16,0.129-0.473,0.368-0.893,0.604c-3.758,2.107-9.375,0.128-9.658-2.05c-0.13-1.001,0.848-2.164,1.292-2.05
	c0.491,0.126,0.371,1.829,0.862,1.93c0.509,0.104,0.974-1.666,1.507-1.567c0.571,0.105,0.862,2.291,0.862,2.291
	c0.79-0.04,1.579-0.08,2.369-0.121c2.669,0.492,4.849,0.677,5.06,0c0.459-1.472-8.607-6.291-8.506-6.511
	c0.101-0.218,8.867,4.885,9.151,4.34c0.274-0.527-7.411-6.298-7.429-6.27c-0.018,0.029,7.706,6.817,8.613,5.788
	c0.874-0.992-4.821-8.975-4.737-9.044c0.218-0.178,4.434,8.017,6.367,8.23c0.075,0.008,0.138,0.005,0.201-0.03
	c1.162-0.642-1.84-9.687-1.615-9.767c0.088-0.031,0.45,0.994,0.5,1.135c1.639,4.668,2.6,8.183,2.73,8.149
	c0.205-0.053-1.551-8.934-1.184-9.044c0.378-0.113,2.474,9.236,3.553,9.044c1.108-0.197,0.543-10.354,0.862-10.37
	c0.305-0.015,0.574,9.349,1.507,9.405c0.927,0.055,2.045-9.081,2.261-9.044c0.219,0.039-0.988,9.482-0.754,9.526
	c0.227,0.042,1.713-8.845,1.938-8.802c0.242,0.046-1.467,10.377-0.646,10.611c0.81,0.231,3.752-9.456,3.876-9.405
	c0.125,0.051-3.349,9.673-2.369,10.249c0.972,0.571,6.026-7.927,6.137-7.837c0.113,0.091-5.711,8.438-4.737,9.526
	c0.865,0.966,6.845-4.055,6.89-3.979c0.044,0.074-6.132,4.124-5.706,5.306c0.37,1.028,7.76-2.4,8.29-1.205
	c0.457,1.032-4.461,4.831-4.306,5.064c0.146,0.221,4.278-3.641,5.168-2.773c0.523,0.509-0.013,2.712-0.969,3.015
	c-1.387,0.439-2.679-3.427-4.414-3.135c-1.645,0.277-1.777,4.122-3.122,4.22c-1.523,0.111-2.766-4.682-3.445-4.461
	c-0.649,0.211,0.036,4.746-0.323,4.823c-0.355,0.077-1.314-4.312-1.831-4.22c-0.453,0.08,0.07,3.508-0.969,3.979
	c-0.583,0.265-1.408-0.519-2.285-1.352c-1.731-1.644-2.091-2.979-2.667-2.868c-0.911,0.175-0.839,3.674-1.507,3.738
	c-0.684,0.066-1.253-3.563-1.938-3.497c-0.757,0.073-0.836,4.201-1.4,4.22c-0.583,0.02-1.132-4.377-1.4-4.34
	c-0.255,0.035,0.623,3.967-0.431,4.702c-2.078,1.451-11.591-9.59-10.335-11.576c1.174-1.858,11.351,4.882,12.166,3.376
	c0.754-1.395-7.268-8.49-7.213-8.561c0.057-0.076,8.742,8.501,9.473,7.717c0.665-0.713-6.575-7.78-5.168-10.611
	c1.942-3.906,20.838-0.732,22.286,8.441c0.691,4.376-2.71,8.34-3.122,8.802c-3.306,3.706-9.165,4.548-14.426,2.412"/>
<path class="st1" d="M534.976,54.154c1.858-0.017,3.321,1.301,3.553,2.894c0.204,1.4-0.533,3.084-1.453,3.256
	c-1.995,0.37-4.52-6.428-4.684-6.33c-0.179,0.107,3.45,7.881,3.068,8.139c-0.379,0.255-4.462-7.035-5.006-6.692
	c-0.547,0.345,2.859,8.168,2.584,8.32c-0.283,0.157-3.919-8.123-4.684-7.777c-0.73,0.33,1.617,8.311,1.131,8.501
	c-0.503,0.196-3.312-8.209-4.037-7.958c-0.683,0.237,0.973,7.994,0.484,8.139c-0.53,0.157-2.648-8.894-3.876-8.682
	c-1.168,0.202-0.858,8.667-1.292,8.682c-0.469,0.016-0.735-9.88-1.776-9.948c-1.007-0.066-2.336,9.094-2.584,9.044
	c-0.262-0.053,1.749-10.174,0.162-10.852c-1.28-0.546-4.451,5.244-4.684,5.064c-0.246-0.19,3.888-6.216,2.907-7.416
	c-0.995-1.217-6.926,2.932-6.944,2.894c-0.019-0.04,6.973-3.539,6.621-5.064c-0.373-1.615-8.833-0.39-8.882-0.905
	c-0.051-0.539,9.249-1.797,9.205-2.713c-0.045-0.913-9.35-0.918-9.366-1.628c-0.016-0.698,8.979-1.02,9.044-2.351
	c0.063-1.326-8.767-2.985-8.72-3.256c0.046-0.268,8.584,2.055,9.205,0.362c0.622-1.697-6.94-6.787-6.782-7.054
	c0.162-0.274,7.783,5.815,8.882,4.522c1.057-1.244-4.402-8.752-3.876-9.224c0.518-0.465,5.853,6.779,6.944,5.968
	c0.965-0.716-1.961-7.311-1.453-7.596c0.534-0.299,3.815,6.992,5.006,6.511c1.145-0.462-0.299-7.85,0.162-7.958
	c0.468-0.11,1.886,7.528,2.907,7.416c1.058-0.116,1.19-8.512,1.453-8.501c0.26,0.011-0.28,8.199,0.969,8.501
	c1.214,0.293,3.593-7.001,3.876-6.873c0.296,0.133-2.658,7.951-1.776,8.501c0.933,0.582,5.805-7.194,5.975-7.054
	c0.169,0.14-5.031,7.584-4.199,8.501c0.791,0.871,6.705-4.501,6.944-4.16c0.243,0.345-5.979,5.603-5.329,6.873
	c0.602,1.177,6.807-1.667,6.944-1.266c0.155,0.45-7.678,4.018-7.429,4.883c0.244,0.847,7.991-1.747,8.559-0.181
	c0.206,0.568-0.584,1.535-1.131,1.989c-0.984,0.819-2.122,0.757-2.584,0.723c-2.703-0.193-4.008-2.634-4.898-2.05
	c-0.741,0.486-0.302,2.482-0.753,2.592c-0.533,0.13-1.307-2.601-1.938-2.472c-0.494,0.101-0.302,1.833-0.969,2.11
	c-0.896,0.373-2.461-2.248-2.799-1.989c-0.243,0.186,0.46,1.623,0.215,1.809c-0.32,0.243-1.676-2.106-2.476-1.809
	c-0.916,0.341-0.484,3.92-0.862,3.979c-0.484,0.075-1.291-5.816-2.153-5.788c-0.815,0.027-1.159,5.332-1.722,5.306
	c-0.552-0.026-0.823-5.14-1.184-5.124c-0.245,0.011-0.185,2.283-0.807,2.532c-0.593,0.237-1.302-1.973-1.938-1.809
	c-0.489,0.127-0.834,1.597-0.377,2.713c0.308,0.75,1.056,1.586,1.722,1.447c1.352-0.283,1.249-4.341,2.261-4.461
	c1.038-0.123,2.048,4.038,2.799,3.858c0.593-0.142,0.496-2.868,0.862-2.894c0.414-0.029,0.511,3.474,1.831,3.858
	c0.49,0.143,0.961-0.2,1.184-0.362c1.589-1.156,1.355-4.087,1.722-4.099c0.488-0.017,0.809,5.166,1.4,5.185
	c0.567,0.019,1.221-4.735,1.4-4.702c0.142,0.026-0.645,2.986,0.431,3.979c0.715,0.661,1.945,0.122,3.015-0.241
	c1.017-0.345,5.015-1.905,6.352-6.391c0.638-2.14,0.38-3.971,0.323-4.34c-0.737-4.799-5.012-7.429-6.46-8.32
	c-7.642-4.701-16.132-0.902-17.764-0.121c-3.871,1.854-6.141,4.437-6.675,5.064c-1.216,1.426-3.979,4.756-4.737,10.008
	c-0.639,4.433,0.489,7.883,1.184,10.008c0.603,1.843,2.281,6.768,6.782,10.49c3.294,2.723,6.478,3.463,8.828,3.979
	c5.337,1.171,14.763,1.428,16.149-2.773c1.143-3.464-3.533-8.89-3.876-8.682c-0.166,0.101,0.825,1.432,0.646,3.015
	c-0.429,3.78-7.364,7.432-13.457,6.391c-5.901-1.009-9.331-6.135-10.873-8.441c-1.554-2.322-5.412-8.088-3.984-14.348
	c0.791-3.468,2.871-5.623,5.706-8.561c1.981-2.053,4.838-5.013,8.398-6.15c8.698-2.776,17.301,6.708,17.979,7.476"/>
<path class="st0" d="M536.913,52.888c3.702-0.316,6.736,1.231,7.22,3.108c0.809,3.133-5.482,7.207-6.897,6.478
	c-0.061-0.032-0.124-0.064-0.159-0.137c-0.402-0.853,5.276-2.803,5.417-5.46c0.117-2.202-3.563-4.951-6.659-4.472
	c-0.878,0.136-1.96,0.57-1.938,0.964c0.049,0.87,5.374,0.039,6.959,2.626c0.914,1.492,0.331,3.706-0.715,5.091
	c-1.199,1.587-3.472,2.763-5.06,2.05c-3.378-1.518-3.44-9.578-3.768-9.526c-0.369,0.059,0.961,10.05-0.107,10.37
	c-1.02,0.305-3.745-8.326-4.414-8.079c-0.632,0.234,1.299,8.128,0.753,8.32c-0.577,0.203-3.241-8.436-3.984-8.199
	c-0.713,0.227,0.791,8.475,0.431,8.561c-0.373,0.088-1.852-8.77-3.229-8.682c-1.243,0.08-1.747,7.4-2.153,7.355
	c-0.478-0.053,0.41-10.176-0.538-10.37c-0.923-0.188-3.171,9.098-3.338,9.044c-0.174-0.057,2.53-10.179,2.046-10.37
	c-0.472-0.185-3.908,9.027-3.876,9.044c0.034,0.017,4.402-9.685,3.445-10.37c-0.924-0.661-6.523,7.277-6.567,7.234
	c-0.047-0.045,6.662-8.455,6.244-8.923c-0.404-0.452-7.38,6.573-7.429,6.511c-0.049-0.063,7.441-7.033,6.998-7.717
	c-0.426-0.656-8.02,4.685-8.075,4.582c-0.056-0.105,8.045-5.374,7.751-6.029c-0.299-0.666-9.097,3.87-9.366,3.256
	c-0.274-0.625,8.607-5.749,8.29-6.511c-0.302-0.728-8.886,2.812-8.828,3.015c0.062,0.216,10.18-2.711,10.013-3.979
	c-0.008-0.064-0.04-0.112-0.081-0.157c-1.283-1.438-11.257-0.871-11.223-0.566c0.036,0.327,11.418-0.837,11.412-1.326
	c-0.006-0.45-9.965-1.298-10.013-0.844c-0.047,0.441,9.487,0.49,10.335-0.603c0.026-0.034,0.646-0.844,0.646-0.844
	c-0.16,0.129-0.473,0.368-0.893,0.604c-3.758,2.107-9.375,0.128-9.658-2.05c-0.13-1.001,0.848-2.164,1.292-2.05
	c0.491,0.126,0.371,1.829,0.862,1.93c0.509,0.104,0.974-1.666,1.507-1.567c0.571,0.105,0.862,2.291,0.862,2.291
	c0.79-0.04,1.579-0.08,2.369-0.121c2.669,0.492,4.849,0.677,5.06,0c0.459-1.472-8.607-6.291-8.506-6.511
	c0.101-0.218,8.867,4.885,9.151,4.34c0.274-0.527-7.411-6.298-7.429-6.27c-0.018,0.029,7.706,6.817,8.613,5.788
	c0.874-0.992-4.821-8.975-4.737-9.044c0.218-0.178,4.434,8.017,6.367,8.23c0.075,0.008,0.138,0.005,0.201-0.03
	c1.162-0.642-1.84-9.687-1.615-9.767c0.088-0.031,0.45,0.994,0.5,1.135c1.639,4.668,2.6,8.183,2.73,8.149
	c0.205-0.053-1.551-8.934-1.184-9.044c0.378-0.113,2.474,9.236,3.553,9.044c1.108-0.197,0.543-10.354,0.862-10.37
	c0.305-0.015,0.574,9.349,1.507,9.405c0.927,0.055,2.045-9.081,2.261-9.044c0.219,0.039-0.988,9.482-0.754,9.526
	c0.227,0.042,1.713-8.845,1.938-8.802c0.242,0.046-1.467,10.377-0.646,10.611c0.81,0.231,3.752-9.456,3.876-9.405
	c0.125,0.051-3.349,9.673-2.369,10.249c0.972,0.571,6.026-7.927,6.137-7.837c0.113,0.091-5.711,8.438-4.737,9.526
	c0.865,0.966,6.845-4.055,6.89-3.979c0.044,0.074-6.132,4.124-5.706,5.306c0.37,1.028,7.76-2.4,8.29-1.205
	c0.457,1.032-4.461,4.831-4.306,5.064c0.146,0.221,4.278-3.641,5.168-2.773c0.523,0.509-0.013,2.712-0.969,3.015
	c-1.387,0.439-2.679-3.427-4.414-3.135c-1.645,0.277-1.777,4.122-3.122,4.22c-1.523,0.111-2.766-4.682-3.445-4.461
	c-0.649,0.211,0.036,4.746-0.323,4.823c-0.355,0.077-1.314-4.312-1.831-4.22c-0.453,0.08,0.07,3.508-0.969,3.979
	c-0.583,0.265-1.408-0.519-2.285-1.352c-1.731-1.644-2.091-2.979-2.667-2.868c-0.911,0.175-0.839,3.674-1.507,3.738
	c-0.684,0.066-1.253-3.563-1.938-3.497c-0.757,0.073-0.836,4.201-1.4,4.22c-0.583,0.02-1.132-4.377-1.4-4.34
	c-0.255,0.035,0.623,3.967-0.431,4.702c-2.078,1.451-11.591-9.59-10.335-11.576c1.174-1.858,11.351,4.882,12.166,3.376
	c0.754-1.395-7.268-8.49-7.213-8.561c0.057-0.076,8.742,8.501,9.473,7.717c0.665-0.713-6.575-7.78-5.168-10.611
	c1.942-3.906,20.838-0.732,22.286,8.441c0.691,4.376-2.71,8.34-3.122,8.802c-3.306,3.706-9.165,4.548-14.426,2.412"/>
<path class="st2" d="M15.939,65.591c1.59,0.387,18.646,4.426,21.194-0.669c0.051-0.101,0.649-1.344,0.112-2.566
	c-2.21-5.027-20.078-1.531-20.078-1.562c-0.011-0.847,19.537-1.567,19.521-2.119c-0.005-0.177-18.723,3.492-20.19-0.558
	c-0.256-0.705,0.094-1.411,0.223-1.673c2.488-5.032,19.186-1.697,19.186-1.785c0.001-0.805-18.415-1.392-18.405-1.673
	c0.01-0.279,18.067,0.138,18.071,0c0.004-0.136-17.626-0.615-17.624-1.004c0.002-0.337,17.398-0.403,17.401-0.781
	c0.004-0.444-15.203,3.608-17.736-1.115c-0.101-0.188-0.636-1.236-0.223-2.231c1.728-4.16,17.511-0.943,17.513-1.115
	c0.005-0.524-17.186-1.028-17.178-1.339c0.007-0.293,18.04,0.162,18.071-0.446c0.031-0.622-18.767-1.882-18.74-2.342
	c0.027-0.459,18.734,0.265,18.74,0.112c0.006-0.149-17.517-0.775-17.513-1.339c0.003-0.374,12.362,3.788,16.397-1.115
	c0.267-0.325,1.267-1.54,0.892-2.566c-1.276-3.495-17.065-0.196-17.067-0.558c-0.001-0.192,16.15-0.183,16.174-0.892
	c0.024-0.718-16.532-1.726-16.509-2.119c0.013-0.23,14.565,3.538,16.174,0c0.447-0.984-0.26-2.167-0.446-2.454
	c-2.869-4.42-15.283-0.946-15.282-1.227c0.001-0.501,15.061-0.725,15.059-1.115c-0.002-0.389-14.949-0.632-14.947-0.781
	c0.002-0.149,15.026,0.165,15.059-0.446c0.033-0.621-15.424-1.775-15.393-2.231c0.029-0.442,14.606,0.152,14.613,0
	c0.018-0.452-11.328,2.522-13.386-1.227c-0.086-0.157-0.553-1.007-0.223-1.785c1.324-3.127,13.606-0.603,13.609-0.669
	c0.03-0.655-13.412-1.643-13.386-2.008c0.026-0.365,13.497,0.236,13.497,0.223c0.001-0.014-14.49-0.351-14.501-1.004
	c-0.008-0.475,15.584-0.594,15.616-1.673c0.014-0.471-2.933-1.109-2.9-1.227c0.024-0.087,1.544,0.618,2.454,0
	c1.014-0.689,0.276-2.223,0.892-3.123c1.678-2.45,10.523,3.527,14.389,0.669c2.566-1.896,2.687-7.61,0.223-10.151
	c-1.668-1.72-3.895-1.34-10.82-1.227c-1.507,0.025-8.091,0.132-14.278-0.223c0,0-7.152-0.411-16.732,0.335
	C6.857,2.837,5.506,2.96,4.338,3.905C2.789,5.159,2.485,7.107,2.33,8.144c-0.09,0.599-0.774,5.55,1.673,7.027
	c1.443,0.871,2.821-0.163,5.912-0.558c3.099-0.396,5.444-0.332,7.92,0.781c0.147,0.066,0.828,0.343,1.785,0.558
	c0.451,0.101,0.971,0.217,1.562,0.223c0,0,1.364,0.013,2.566-0.669c2.535-1.44,1.056-9.597,1.227-9.593
	c0.285,0.007,0.011,9.412,0.781,9.481c0.782,0.071,2.65-9.488,2.677-9.481c0.018,0.004-1.431,4.045,0.223,7.474
	c0.357,0.74,0.785,1.126,1.115,1.339c0.7,0.45,1.801,0.701,2.454,0.335c1.86-1.043,0.344-7.244,0.446-7.251
	c0.268-0.016,0.534,4.114,1.115,4.127c0.686,0.016,1.452-5.722,1.673-5.689c0.118,0.018-0.307,1.625,0.446,3.235
	c0.402,0.858,1.24,1.934,1.785,1.785c1.121-0.307,0.586-5.686,0.669-5.689c0.138-0.005-1.134,4.598,0.781,6.135
	c0.119,0.096,0.811,0.63,1.673,0.558c1.36-0.114,1.955-1.641,2.566-1.45c0.714,0.223,0.34,2.491,0.781,2.566
	c1.13,0.19,3.222-6.736,3.346-6.693c0.121,0.042-2.573,6.428-1.562,7.027c0.59,0.35,2.568-1.197,3.235-3.235
	c0.619-1.892,0.092-4.16-1.115-5.466c-2.34-2.531-6.252-0.386-14.613,0c-8.463,0.39-16.041-1.273-16.286-0.112
	c-0.056,0.265,0.324,0.424,1.673,2.454c0.309,0.465,0.616,0.928,0.781,1.227c1.205,2.196,0.229,5.652-0.446,5.689
	c-0.748,0.041-1.433-5.424-2.119-5.354c-0.32,0.033,0.36,2.658-1.004,3.793c-0.439,0.365-1.202,0.672-1.785,0.446
	c-2.189-0.847-1.147-8.925-1.115-8.924c0.032,0.001,0.148,8.338-0.892,8.478c-0.253,0.034-0.32-1.274-1.004-1.45
	c-0.944-0.243-1.749,1.97-2.677,1.896c-1.738-0.139-2.348-8.206-2.789-8.143C5.308,5.089,6.749,9.252,4.784,13.61
	c-0.982,2.178-2.577,3.876-1.896,4.908c0.243,0.368,0.832,0.729,1.413,0.632c0.451-0.075,0.933-0.464,0.967-0.892
	c0.073-0.924-1.97-1.616-1.859-1.933c0.135-0.387,3.025,1.03,4.945-0.037c1.518-0.844,1.609-2.432,2.008-3.793
	c1.861-6.351,28.418,6.337,37.368-1.673c0.93-0.833,2.076-2.23,2.9-1.896c1.783,0.721,0.39,9.939-1.896,10.262
	c-0.906,0.128-1.874-1.143-2.677-2.566"/>
<path class="st2" d="M265.796,64.517c6.36-0.246,10.333,0.035,12.846,0.365c0,0,1.239,0.163,1.243,0.122
	c0.012-0.116-14.655-2.002-14.607-2.92c0.047-0.902,14.271-0.081,14.4-1.582c0.128-1.487-13.706-3.866-13.571-5.353
	c0.128-1.408,12.643-0.573,12.743-1.825c0.103-1.294-13.151-3.462-13.053-4.502c0.094-1.002,12.488-0.057,12.535-0.73
	c0.05-0.705-13.517-2.271-13.468-3.407c0.048-1.103,12.907-0.947,12.95-2.068c0.042-1.101-12.327-2.089-12.328-3.772
	c-0.001-1.69,12.463-2.602,12.432-4.015c-0.031-1.378-11.914-1.814-11.914-2.92c0-1.013,9.953-1.538,9.945-2.433
	c-0.008-0.949-11.197-1.417-11.189-2.068c0.009-0.634,10.629-0.616,10.671-1.582c0.04-0.948-10.167-1.541-10.153-2.677
	c0.011-0.845,5.675-1.099,9.531-0.122c0.581,0.147,1.009,0.294,1.347,0.73c1.48,1.909-1.29,6.101,0.104,8.03
	c0.543,0.751,1.67,1.096,2.486,0.73c2.179-0.977,0.754-6.4,3.419-8.76c0.943-0.835,2.196-0.852,4.662-0.852
	c2.538,0.001,5.923,0.001,8.288,1.217c0,0,0.601,0.353,1.2,0.839c2.543,2.061,7.832,9.225,9.658,22.782
	c0,0,1.164,8.642-1.742,15.799c-0.203,0.499-0.383,0.745-0.622,0.973c-2.013,1.931-5.623-2.05-8.806-0.243
	c-0.611,0.347-1.162,0.882-1.554,0.608c-0.529-0.369-0.649-2.126,0-2.92c1.444-1.765,5.576,2.603,8.599,0.487
	c1.045-0.731,1.894-2.028,1.554-2.798c-0.78-1.77-7.496-0.173-7.633-0.821c-0.135-0.641,6.427-2.236,6.286-3.316
	c-0.126-0.968-5.542-0.75-5.656-1.723c-0.105-0.893,5.033-1.665,5.035-3.022c0.001-1.302-4.704-1.72-4.846-3.402
	c-0.129-1.537,3.7-2.407,3.602-4.02c-0.106-1.738-4.671-2.188-4.673-3.601c-0.002-1.868,7.15-2.849,7.054-4.031
	c-0.11-1.345-9.504-1.514-9.51-2.267c-0.005-0.618,6.304-1.07,6.298-1.763c-0.007-0.821-8.863-0.445-9.736-3.424
	c-0.425-1.45,1.132-3.336,1.036-3.407c-0.104-0.077-1.48,3.319-2.797,3.163c-1.175-0.139-1.715-3.036-2.072-2.92
	c-0.491,0.16,0.676,5.6-0.104,5.962c-0.715,0.332-2.68-3.792-3.108-3.528c-0.425,0.262,1.596,4.29,0.414,5.84
	c-0.67,0.879-1.672,0.045-2.901,0.973c-1.432,1.083-1.694,3.444-1.865,4.988c-0.345,3.114,0.224,5.584,0.311,5.962
	c1.93,8.432,3.436,15.012,1.554,17.763c-2.965,4.334-14.812-0.138-14.918-3.042c-0.023-0.618,0.495-0.905,0.829-2.312
	c0.481-2.028-0.033-3.808-0.207-4.502c-1.222-4.869,0.654-10.633-0.518-23.603c-0.105-1.164-0.294-3.034-0.622-5.353"/>
<path class="st3" d="M293.949,63.331c0.766-2.602,1.627-6.357,1.821-10.925c0.489-11.51-3.52-21.996-6.483-22.016
	c-0.192-0.001-1.768,0.625-4.895,1.916c-1.916,0.791-1.878,0.614-2.797,1.095c-0.729,0.382-3.464,1.814-4.584,4.198
	c-1.073,2.282-0.364,4.793,0.311,7.665c2.186,9.304,3.511,14.943,1.865,17.155c-2.669,3.587-13.236-1.708-13.053-2.738
	c0.171-0.962,9.909,0.749,9.945,0.365c0.035-0.366-8.822-1.62-8.78-2.19c0.048-0.643,11.387,0.167,11.422-0.365
	c0.032-0.485-9.353-1.638-9.324-2.008c0.027-0.35,8.512,0.406,8.547,0c0.04-0.467-11.155-1.986-11.111-2.555
	c0.037-0.471,7.75,0.062,7.77-0.274c0.021-0.347-8.178-1.212-8.158-1.551c0.023-0.393,11.034,0.449,11.111-0.365
	c0.078-0.835-11.427-2.656-11.344-3.65c0.078-0.934,10.312-0.387,10.334-0.913c0.018-0.423-6.622-1.117-6.604-1.369
	c0.017-0.242,6.183,0.274,6.216-0.091c0.041-0.452-9.363-1.856-9.324-2.281c0.033-0.356,6.667,0.222,6.682,0
	c0.015-0.22-6.54-0.834-6.527-1.369c0.015-0.6,8.305-0.598,8.314-1.095c0.008-0.484-7.855-1.057-7.848-1.186
	c0.007-0.13,7.9,0.43,7.925,0.091c0.018-0.242-3.984-0.755-3.963-1.095c0.022-0.342,4.113-0.2,4.118-0.365
	c0.008-0.239-8.613-0.547-8.625-1.186c-0.011-0.62,8.092-1.3,8.081-1.46c-0.011-0.162-8.352,0.594-8.391,0.183
	c-0.041-0.428,8.91-1.948,8.858-2.464c-0.041-0.399-5.421,0.268-5.594-0.73c-0.122-0.705,2.451-1.681,2.331-2.19
	c-0.172-0.73-5.669,0.386-5.672,0.365c-0.004-0.027,8.719-1.233,8.702-2.281c-0.017-1.078-9.243-0.868-9.324-2.19
	c-0.077-1.252,8.06-3.813,9.324-1.369c0.898,1.737-2.395,4.607-1.321,7.3c0.786,1.969,3.404,2.582,5.05,2.373
	c0.936-0.119,2.324-0.602,2.409-1.369c0.06-0.544-0.552-1.073-0.466-1.186c0.123-0.162,1.323,0.998,1.476,0.821
	c0.204-0.236-1.784-2.483-1.399-3.194c0.436-0.803,3.443,1.203,4.118,0.183c0.364-0.551-0.032-1.86-0.699-2.555
	c-0.925-0.964-2.191-0.563-2.253-1.004c-0.05-0.357,0.729-0.977,1.476-0.913c0.438,0.038,0.743,0.3,0.932,0.456
	c0.926,0.764,2.272,1.874,3.263,1.734c1.031-0.146,1.964-1.681,1.709-2.373c-0.215-0.584-1.385-0.853-1.865-0.274
	c-0.253,0.306-0.374,0.92-0.155,1.278c0.628,1.027,3.922-0.913,4.429-0.183c0.456,0.658-1.705,2.779-1.513,2.969
	c0.252,0.25,4.103-3.271,4.22-3.149c0.113,0.117-3.367,3.464-3.149,3.716c0.232,0.268,4.558-3.076,4.598-3.023
	c0.038,0.05-3.922,2.952-3.716,3.275c0.207,0.325,4.519-2.13,4.661-1.889c0.129,0.218-3.311,2.43-3.149,2.708
	c0.168,0.289,4.027-1.835,4.472-1.197c0.124,0.178-0.117,0.431-0.378,1.386c-0.256,0.936-0.203,1.342-0.295,1.683
	c-0.51,1.871-5.539,2.128-5.517,2.281c0.024,0.164,1.81,0.146,3.803-0.264c1.33-0.274,1.954-0.561,2.18-0.283
	c0.483,0.594-1.639,2.801-1.367,3.07c0.316,0.313,3.766-2.107,3.464-2.708c-0.349-0.694-5.785,0.871-5.731,2.015
	c0.049,1.048,4.701,1.575,4.645,1.911c-0.045,0.268-3.006,0.024-3.007,0.041c-0.002,0.024,5.879,0.203,5.92,0.819
	c0.042,0.629-6.025,1.441-5.983,1.763c0.042,0.322,6.107-0.356,6.172,0.063c0.067,0.429-6.224,1.665-6.172,1.952
	c0.056,0.311,7.447-0.838,7.495-0.567c0.049,0.276-7.553,1.709-7.495,2.078c0.059,0.373,7.918-0.589,7.936-0.441
	c0.018,0.148-7.776,1.149-7.747,1.449c0.03,0.304,8.065-0.417,8.125,0.063c0.055,0.446-6.773,1.938-6.802,1.826
	c-0.019-0.074,2.855-1.076,5.92-0.504c0.464,0.087,1.242,0.237,1.26,0.504c0.048,0.739-5.813,1.556-5.777,1.811
	c0.037,0.256,5.974-0.19,5.966-0.363c-0.01-0.205-8.394-0.05-8.503,1.008c-0.045,0.444,1.402,0.689,1.527,1.636
	c0.144,1.092-1.624,1.946-1.464,2.269c0.321,0.647,7.519-2.664,7.999-1.826c0.171,0.298-0.572,1.018-0.756,1.197
	c-2.9,2.811-7.558,2.769-7.558,2.771c0,0.002,7.388-0.811,7.432-0.567c0.042,0.235-6.677,1.506-6.613,1.952
	c0.063,0.443,6.747-0.394,6.865,0.227c0.131,0.686-9.005,2.987-8.935,3.376c0.061,0.338,6.569-1.457,6.915-0.274
	c0.141,0.482-0.729,1.5-1.632,1.734c-0.365,0.095-0.792,0.004-1.632-0.183c-1.127-0.25-1.71-0.379-1.709-0.548
	c0.001-0.289,1.728-0.974,3.263-0.365c1.951,0.774,2.197,2.98,2.875,2.92c1.149-0.101,1.991-6.749,1.421-14.32
	c-0.15-1.992-0.589-6.587-2.267-12.344c-1.55-5.318-3.316-11.119-7.312-12.3c-0.422-0.125-1.21-0.438-2.098-0.183
	c-3.408,0.981-6.149,5.254-5.905,5.566c0.119,0.152,0.757-0.884,1.709-0.73c1.123,0.182,1.342,1.803,2.564,2.19
	c0.88,0.279,1.368-0.659,1.865-0.365c0.678,0.401-0.119,1.971,0.675,3.931c0.281,0.695,0.516,0.828,0.882,1.449
	c1.092,1.85,0.877,3.827,0.819,5.102c-0.234,5.088,1.721,5.319,1.323,10.329c-0.03,0.381-0.377,2.269-1.071,6.046
	c-0.252,1.37-0.947,5.123-0.736,5.172c0.124,0.029,0.289-1.164,0.984-1.764c1.4-1.209,4.202,3.26,5.957,2.616
	c1.747-0.641,2.324-5.874,0.975-10.055c-0.588-1.822-1.694-3.919-1.183-4.281c0.369-0.262,1.183,0.668,1.498,0.439
	c0.703-0.512-2.549-5.711-4.035-10.193c-0.115-0.345-0.358-1.115-0.761-2.219c-0.753-2.059-1.219-2.934-2.191-6.115
	c-1.423-4.658-1.195-5.303-2.176-6.388c-2.309-2.553-6.379-2.079-8.858-0.913c-0.954,0.449-2.622,1.234-3.626,3.163
	c-0.983,1.889-0.413,3.118-1.243,5.232c-1.055,2.689-2.569,2.212-3.781,4.319c-2.844,4.944,0.785,15.738,2.176,18.798
	c0.173,0.38,0.667,1.425,0.622,2.798c-0.052,1.568-0.795,3.21-1.865,4.137c-3.232,2.801-8.525-1.723-9.427-2.494
	c-0.646-0.552-1.294-1.237-1.243-2.008c0.074-1.106,1.518-1.325,1.761-2.494c0.257-1.239-1.104-2.256-1.917-3.589
	c-1.582-2.596-0.341-5.179-0.052-10.585c0.41-7.67-1.725-9.255-0.259-12.532c0.784-1.752,2.727-3.709,6.993-5.049"/>
<path class="st2" d="M554.033,64.088c6.36-0.246,10.333,0.035,12.846,0.365c0,0,1.239,0.163,1.243,0.122
	c0.012-0.116-14.655-2.002-14.607-2.92c0.047-0.902,14.271-0.081,14.4-1.582c0.128-1.487-13.706-3.866-13.571-5.353
	c0.128-1.408,12.643-0.573,12.743-1.825c0.103-1.294-13.151-3.462-13.053-4.502c0.094-1.002,12.488-0.057,12.535-0.73
	c0.05-0.705-13.517-2.271-13.468-3.407c0.048-1.103,12.907-0.947,12.95-2.068c0.042-1.101-12.327-2.089-12.328-3.772
	c-0.001-1.69,12.463-2.602,12.432-4.015c-0.031-1.378-11.914-1.814-11.914-2.92c0-1.013,9.953-1.538,9.945-2.433
	c-0.008-0.949-11.197-1.417-11.189-2.068c0.008-0.634,10.629-0.616,10.671-1.582c0.04-0.948-10.167-1.541-10.153-2.677
	c0.011-0.845,5.675-1.099,9.531-0.122c0.581,0.147,1.009,0.294,1.347,0.73c1.48,1.909-1.29,6.101,0.104,8.03
	c0.543,0.751,1.67,1.096,2.486,0.73c2.179-0.977,0.754-6.4,3.419-8.76c0.943-0.835,2.196-0.852,4.662-0.852
	c2.538,0.001,5.923,0.001,8.288,1.217c0,0,0.601,0.353,1.2,0.839c2.543,2.061,7.832,9.225,9.658,22.782
	c0,0,1.164,8.642-1.742,15.799c-0.203,0.499-0.383,0.745-0.622,0.973c-2.013,1.931-5.623-2.05-8.806-0.243
	c-0.611,0.347-1.162,0.882-1.554,0.608c-0.529-0.369-0.649-2.126,0-2.92c1.444-1.765,5.576,2.603,8.599,0.487
	c1.045-0.731,1.894-2.028,1.554-2.798c-0.78-1.77-7.496-0.173-7.633-0.821c-0.135-0.641,6.427-2.236,6.286-3.316
	c-0.126-0.968-5.542-0.75-5.656-1.723c-0.105-0.893,5.033-1.665,5.035-3.022c0.001-1.302-4.704-1.72-4.846-3.402
	c-0.129-1.537,3.7-2.407,3.602-4.02c-0.106-1.738-4.671-2.188-4.673-3.601c-0.002-1.868,7.15-2.849,7.054-4.031
	c-0.11-1.345-9.504-1.514-9.51-2.267c-0.005-0.618,6.304-1.07,6.298-1.763c-0.007-0.821-8.863-0.445-9.736-3.424
	c-0.425-1.45,1.132-3.336,1.036-3.407c-0.104-0.077-1.48,3.319-2.797,3.163c-1.175-0.139-1.715-3.036-2.072-2.92
	c-0.491,0.16,0.676,5.6-0.104,5.962c-0.715,0.332-2.68-3.792-3.108-3.528c-0.425,0.262,1.596,4.29,0.414,5.84
	c-0.67,0.879-1.672,0.045-2.901,0.973c-1.432,1.083-1.694,3.444-1.865,4.988c-0.345,3.114,0.224,5.584,0.311,5.962
	c1.93,8.432,3.436,15.012,1.554,17.763c-2.965,4.334-14.812-0.138-14.918-3.042c-0.023-0.618,0.495-0.905,0.829-2.312
	c0.481-2.028-0.033-3.808-0.207-4.502c-1.221-4.869,0.654-10.633-0.518-23.603c-0.105-1.164-0.294-3.034-0.622-5.353"/>
<path class="st3" d="M582.186,62.902c0.766-2.602,1.627-6.357,1.821-10.925c0.489-11.51-3.52-21.996-6.482-22.016
	c-0.192-0.001-1.768,0.625-4.895,1.916c-1.916,0.791-1.878,0.614-2.797,1.095c-0.729,0.382-3.464,1.814-4.584,4.198
	c-1.073,2.282-0.364,4.793,0.311,7.665c2.186,9.304,3.511,14.943,1.865,17.155c-2.669,3.587-13.236-1.708-13.053-2.738
	c0.171-0.962,9.909,0.749,9.945,0.365c0.035-0.366-8.822-1.62-8.78-2.19c0.048-0.643,11.387,0.167,11.422-0.365
	c0.032-0.485-9.353-1.638-9.324-2.008c0.027-0.35,8.512,0.406,8.547,0c0.04-0.467-11.155-1.986-11.111-2.555
	c0.037-0.471,7.75,0.062,7.77-0.274c0.021-0.347-8.178-1.212-8.158-1.551c0.023-0.393,11.034,0.449,11.111-0.365
	c0.078-0.835-11.427-2.656-11.344-3.65c0.078-0.934,10.312-0.387,10.334-0.913c0.018-0.423-6.622-1.117-6.604-1.369
	c0.017-0.242,6.183,0.274,6.216-0.091c0.041-0.452-9.363-1.856-9.324-2.281c0.033-0.356,6.667,0.222,6.682,0
	c0.015-0.22-6.54-0.834-6.527-1.369c0.015-0.6,8.305-0.598,8.314-1.095c0.008-0.484-7.855-1.057-7.848-1.186
	c0.007-0.13,7.9,0.43,7.925,0.091c0.018-0.242-3.984-0.755-3.963-1.095c0.022-0.342,4.113-0.2,4.118-0.365
	c0.008-0.239-8.613-0.547-8.625-1.186c-0.011-0.62,8.092-1.3,8.081-1.46c-0.011-0.162-8.352,0.594-8.391,0.183
	c-0.041-0.428,8.91-1.948,8.858-2.464c-0.041-0.399-5.421,0.268-5.594-0.73c-0.122-0.705,2.451-1.681,2.331-2.19
	c-0.172-0.73-5.669,0.386-5.672,0.365c-0.004-0.027,8.719-1.233,8.702-2.281c-0.017-1.078-9.243-0.868-9.324-2.19
	c-0.077-1.252,8.06-3.813,9.324-1.369c0.898,1.737-2.395,4.607-1.321,7.3c0.786,1.969,3.404,2.582,5.05,2.373
	c0.936-0.119,2.324-0.602,2.409-1.369c0.06-0.544-0.552-1.073-0.466-1.186c0.123-0.162,1.323,0.998,1.476,0.821
	c0.204-0.236-1.784-2.483-1.399-3.194c0.436-0.803,3.443,1.203,4.118,0.183c0.364-0.551-0.032-1.86-0.699-2.555
	c-0.925-0.964-2.191-0.563-2.253-1.004c-0.05-0.357,0.729-0.977,1.476-0.913c0.438,0.038,0.743,0.3,0.932,0.456
	c0.926,0.764,2.272,1.874,3.263,1.734c1.031-0.146,1.964-1.681,1.709-2.373c-0.215-0.584-1.385-0.853-1.865-0.274
	c-0.253,0.306-0.374,0.92-0.155,1.278c0.628,1.027,3.922-0.913,4.429-0.183c0.456,0.658-1.705,2.779-1.513,2.969
	c0.252,0.25,4.103-3.271,4.22-3.149c0.113,0.117-3.367,3.464-3.149,3.716c0.232,0.268,4.558-3.076,4.598-3.023
	c0.038,0.05-3.922,2.952-3.716,3.275c0.207,0.325,4.519-2.13,4.661-1.889c0.129,0.218-3.311,2.43-3.149,2.708
	c0.168,0.289,4.027-1.835,4.472-1.197c0.124,0.178-0.117,0.431-0.378,1.386c-0.256,0.936-0.203,1.342-0.295,1.683
	c-0.51,1.871-5.539,2.128-5.517,2.281c0.024,0.164,1.81,0.146,3.803-0.264c1.331-0.274,1.954-0.561,2.18-0.283
	c0.483,0.594-1.639,2.801-1.367,3.07c0.316,0.313,3.766-2.107,3.464-2.708c-0.349-0.694-5.785,0.871-5.731,2.015
	c0.049,1.048,4.701,1.575,4.645,1.911c-0.045,0.268-3.006,0.024-3.007,0.041c-0.002,0.024,5.879,0.203,5.92,0.819
	c0.042,0.629-6.025,1.441-5.983,1.763c0.042,0.322,6.107-0.356,6.172,0.063c0.067,0.429-6.224,1.665-6.172,1.952
	c0.056,0.311,7.447-0.838,7.495-0.567c0.049,0.276-7.553,1.709-7.495,2.078c0.059,0.373,7.917-0.589,7.936-0.441
	c0.018,0.148-7.776,1.149-7.747,1.449c0.03,0.304,8.065-0.417,8.125,0.063c0.055,0.446-6.773,1.938-6.802,1.826
	c-0.019-0.074,2.855-1.076,5.92-0.504c0.464,0.087,1.242,0.237,1.26,0.504c0.048,0.739-5.813,1.556-5.777,1.811
	c0.037,0.256,5.974-0.19,5.966-0.363c-0.01-0.205-8.394-0.05-8.503,1.008c-0.045,0.444,1.402,0.689,1.527,1.636
	c0.144,1.092-1.624,1.946-1.464,2.269c0.321,0.647,7.519-2.664,7.999-1.826c0.171,0.298-0.572,1.018-0.756,1.197
	c-2.9,2.811-7.558,2.769-7.558,2.771c0,0.002,7.388-0.811,7.432-0.567c0.042,0.235-6.677,1.506-6.613,1.952
	c0.063,0.443,6.747-0.394,6.865,0.227c0.131,0.686-9.005,2.987-8.935,3.376c0.061,0.338,6.569-1.457,6.915-0.274
	c0.141,0.482-0.729,1.5-1.632,1.734c-0.365,0.095-0.792,0.004-1.632-0.183c-1.127-0.25-1.71-0.379-1.709-0.548
	c0.001-0.289,1.728-0.974,3.263-0.365c1.951,0.774,2.197,2.98,2.875,2.92c1.149-0.101,1.991-6.749,1.421-14.32
	c-0.15-1.992-0.589-6.587-2.267-12.344c-1.55-5.318-3.316-11.119-7.312-12.3c-0.422-0.125-1.21-0.438-2.098-0.183
	c-3.408,0.981-6.149,5.254-5.905,5.566c0.119,0.152,0.757-0.884,1.709-0.73c1.123,0.182,1.342,1.803,2.564,2.19
	c0.88,0.279,1.368-0.659,1.865-0.365c0.678,0.401-0.119,1.971,0.675,3.931c0.281,0.695,0.516,0.828,0.882,1.449
	c1.092,1.85,0.878,3.827,0.819,5.102c-0.234,5.088,1.721,5.319,1.323,10.329c-0.03,0.381-0.377,2.269-1.071,6.046
	c-0.252,1.37-0.947,5.123-0.736,5.172c0.124,0.029,0.289-1.164,0.984-1.764c1.4-1.209,4.202,3.26,5.957,2.616
	c1.747-0.641,2.324-5.874,0.975-10.055c-0.588-1.822-1.694-3.919-1.183-4.281c0.369-0.262,1.183,0.668,1.498,0.439
	c0.703-0.512-2.549-5.711-4.035-10.193c-0.115-0.345-0.358-1.115-0.761-2.219c-0.753-2.059-1.219-2.934-2.191-6.115
	c-1.423-4.658-1.195-5.303-2.176-6.388c-2.309-2.553-6.379-2.079-8.858-0.913c-0.954,0.449-2.622,1.234-3.626,3.163
	c-0.983,1.889-0.413,3.118-1.243,5.232c-1.055,2.689-2.569,2.212-3.781,4.319c-2.844,4.944,0.785,15.738,2.176,18.798
	c0.173,0.38,0.667,1.425,0.622,2.798c-0.052,1.568-0.795,3.21-1.865,4.137c-3.233,2.801-8.525-1.723-9.427-2.494
	c-0.646-0.552-1.294-1.237-1.243-2.008c0.074-1.106,1.518-1.325,1.761-2.494c0.257-1.239-1.104-2.256-1.917-3.589
	c-1.582-2.596-0.341-5.179-0.052-10.585c0.41-7.67-1.725-9.255-0.259-12.532c0.784-1.752,2.727-3.709,6.993-5.049"/>
<path class="st2" d="M317.006,63.054c7.547,1.656,14.718,2.508,15.939,0c0.352-0.724,0.102-1.508,0-1.839
	c-2.636-8.544-6.443-38.729-1.839-47.203c0.189-0.349,0.713-1.25,0.368-1.962c-1.059-2.183-8.567,0.958-13.855,0
	c-0.353-0.064-1.236-0.244-1.839,0.245c-1.01,0.819-0.528,2.947-0.368,3.678c3.826,17.431,7.213,32.862,2.207,42.299
	c-1.307,2.463-2.858,3.901-2.207,5.272c1.62,3.411,14.814,2.086,15.816-1.716c0.315-1.196-0.678-2.212-1.962-3.923
	c-5.479-7.306-9.485-18.207-6.253-22.437c0.616-0.807,0.975-0.69,2.943-1.839c7.197-4.204,14.152-12.696,12.874-19.004
	c-0.263-1.3-0.851-2.382-0.245-3.188c1.094-1.455,5.53-1.272,6.989,0.736c3.909,5.381-12.863,24.85-18.759,28.445
	c-0.249,0.152-1.096,0.652-1.962,1.594c-3.225,3.511-2.791,8.903-2.452,8.95c0.533,0.074-0.58-13.326,4.904-15.571
	c7.17-2.935,18.664,16.045,25.134,26.728c0.2,0.329,0.64,1.083,0.368,1.716c-0.558,1.301-3.581-0.107-9.195,0.49
	c-0.968,0.103-1.816,0.244-2.207-0.245c-0.755-0.944,1.006-3.217,1.471-4.414c2.59-6.664-12.554-16.605-14.835-18.146
	c-0.201-0.135-1.347-0.695-2.697-1.716c-1.375-1.04-4.99-3.773-4.536-5.762c0.538-2.361,6.571-2.65,6.498-3.188
	c-0.079-0.586-7.198-0.036-7.234-0.368c-0.036-0.332,7.025-1.201,6.989-1.716c-0.038-0.53-7.57-0.255-7.602-0.736
	c-0.033-0.501,8.123-1.307,8.092-1.716c-0.032-0.42-8.665,0.08-8.705-0.368c-0.032-0.352,8.848-1.029,8.828-1.594
	c-0.02-0.573-9.181-0.512-9.195-0.981c-0.011-0.366,9.307-0.543,9.318-1.103c0.012-0.569-9.575-1.026-9.563-1.594
	c0.011-0.567,9.564-0.721,9.563-1.103c-0.001-0.39-9.926-0.54-9.931-0.981c-0.005-0.458,10.673-0.824,10.667-1.226
	c-0.007-0.411-11.148-0.416-11.157-0.858c-0.01-0.453,11.653-0.862,11.648-1.349c-0.004-0.415-12.13,0.348-12.261-0.736
	c-0.114-0.952,8.886-4.452,12.015-1.349c2.389,2.369-0.398,6.846-1.717,14.222c-3.177,17.769,5.711,32.512,1.471,34.698
	c-0.964,0.497-2.571,0.326-5.64,0c-1.763-0.187-4.434-0.644-4.414-0.981c0.037-0.608,8.796-0.308,8.828-0.858
	c0.031-0.532-8.113-1.402-8.092-1.594c0.021-0.198,8.639,0.699,8.705,0.245c0.064-0.441-8.04-1.755-7.969-2.33
	c0.043-0.35,5.938,0.325,6.008-0.123c0.055-0.353-3.656-0.366-4.659-2.33c-0.975-1.91,1.479-3.971,3.923-8.828
	c3.426-6.806,3.816-13.106,5.272-12.996c0.683,0.052,1.169,1.482,1.471,1.349c0.388-0.17-0.575-2.444,0.123-2.943
	c0.611-0.437,2.078,0.79,2.329,0.49c0.247-0.294-1.149-1.509-0.858-2.084c0.314-0.621,2.819,0.474,3.065,0
	c0.215-0.415-1.491-1.576-1.287-1.931c0.214-0.374,2.269,0.639,2.575,0.184c0.308-0.459-1.427-2.019-1.195-2.299
	c0.227-0.274,2.044,1.029,2.299,0.736c0.269-0.309-1.473-2.063-1.195-2.391c0.269-0.317,2.171,1.011,2.391,0.736
	c0.234-0.294-1.718-2.073-1.471-2.391c0.227-0.292,2.105,0.908,2.299,0.644c0.203-0.278-1.757-1.762-1.471-2.299
	c0.293-0.551,2.723,0.327,2.851,0c0.138-0.354-2.604-1.621-2.483-1.931c0.128-0.327,3.316,0.7,3.402,0.46
	c0.093-0.258-3.518-1.653-3.402-2.023c0.124-0.399,4.484,0.739,4.598,0.368c0.116-0.38-4.364-1.898-4.23-2.391
	c0.125-0.46,4.189,0.304,4.23,0.092c0.044-0.232-4.82-1.002-4.782-1.655c0.031-0.536,3.397-1.623,4.69-0.368
	c2.84,2.757-3.841,17.295-10.851,19.954c-0.468,0.178-1.688,0.587-2.575,1.747c-2.245,2.937-0.333,8.036,0.092,8
	c0.344-0.029-0.142-3.433,1.103-3.862c0.544-0.187,1.242,0.254,1.563,0.736c0.968,1.452-0.821,4.267-1.379,4.138
	c-0.418-0.097-0.813-1.999,0.184-2.943c0.976-0.924,2.849-0.514,3.218,0.276c0.538,1.151-2.06,3.235-1.747,3.586
	c0.326,0.365,3.233-1.78,3.402-1.563c0.16,0.205-2.327,2.278-2.115,2.575c0.226,0.315,3.297-1.672,3.586-1.287
	c0.251,0.334-1.811,2.173-1.563,2.483c0.227,0.285,2.16-1.027,2.391-0.736c0.233,0.294-1.531,1.885-1.287,2.207
	c0.261,0.344,2.585-1.085,2.759-0.828c0.163,0.242-1.77,1.679-1.563,2.023c0.21,0.349,2.401-0.777,2.667-0.368
	c0.256,0.395-1.543,1.812-1.287,2.207c0.269,0.415,2.51-0.76,2.759-0.368c0.245,0.386-1.68,1.911-1.471,2.207
	c0.209,0.296,2.308-0.995,2.575-0.644c0.26,0.342-1.49,1.88-1.195,2.299c0.269,0.381,2.012-0.479,2.115-0.276
	c0.119,0.235-2.173,1.469-2.023,1.839c0.163,0.402,3.063-0.565,3.218-0.184c0.164,0.402-2.898,1.879-2.759,2.207
	c0.148,0.349,3.789-0.931,3.862-0.736c0.081,0.217-4.348,1.932-4.23,2.299c0.121,0.378,4.961-0.958,5.058-0.644
	c0.102,0.334-5.255,2.119-5.149,2.483c0.111,0.383,6.212-1.085,6.253-0.92c0.045,0.183-7.458,1.871-7.356,2.575
	c0.056,0.386,2.398,0.473,8.184,0.092"/>
<path class="st3" d="M321.214,13.987c1.011,0.028,2.378-0.003,3.968-0.252c3.198-0.5,4.228-1.4,4.85-0.882
	c1.178,0.981,0.032,6.335-3.401,8.251c-3.432,1.915-7.929-0.289-8.503,1.071c-0.23,0.545,0.515,0.85,1.008,2.519
	c0.522,1.77,0.007,2.521,0.252,4.787c0.163,1.502,0.53,2.475,0.756,3.212c0.933,3.043,1.488,8.51,1.071,13.856
	c-0.54,6.913-0.829,10.628-3.275,13.604c-0.266,0.324-0.724,0.841-0.63,1.449c0.428,2.776,12.184,4.767,14.423,1.197
	c0.854-1.362-0.333-2.483-1.386-7.432c-1.554-7.309-0.214-10.734-1.575-11.211c-2.054-0.72-7.617,6.212-6.046,9.321
	c0.33,0.653,1.108,1.4,2.015,1.449c1.231,0.065,2.246-1.178,2.645-2.141c0.765-1.846-0.027-4.365-1.134-4.598
	c-1.259-0.265-3.509,2.304-2.897,4.283c0.188,0.608,0.618,1.432,1.26,1.512c1.096,0.136,2.609-1.887,2.141-3.338
	c-0.137-0.426-0.522-1.04-0.945-1.008c-0.935,0.071-1.864,2.969-1.386,3.275c0.541,0.346,3.654-2.16,4.22-5.479
	c0.259-1.517-0.075-2.847-0.693-4.409c-2.674-6.76-7.66-10.25-7.117-11.022c0.421-0.599,3.15,1.894,6.865,2.078
	c6.063,0.3,12.964-5.64,14.36-12.47c1.117-5.465-1.55-10.224-1.638-10.203c-0.091,0.022,2.748,5.152,0.945,9.951
	c-2.214,5.894-8.964,4.731-10.833,10.014c-1.829,5.172,2.304,12.891,6.928,16.501c0.647,0.505,1.712,1.104,2.897,2.393
	c0.828,0.901,3.96,4.308,3.338,8.125c-0.289,1.77-1.187,2.419-0.756,3.023c0.873,1.222,4.727-1.194,7.81,0.693
	c0.497,0.304,1.17,0.84,1.071,1.071c-0.161,0.374-2.304-0.182-4.22-0.756"/>
<path class="st2" d="M367.617,25.415c-1.492,0.799-8.661,4.836-10.877,13.294c-2.462,9.398,2.778,18.195,8.02,22.083
	c0.498,0.369,5.727,4.175,8.288,2.51c1.028-0.668,1.111-1.884,2.393-2.33c1.612-0.561,2.973,0.841,4.39,1.237
	c3.696,1.035,9.065-4.405,11.481-8.732c3.835-6.866,4.178-17.988-2.931-25.424c-9.611-10.052-24.202-4.224-26.807-3.186
	c-0.854,0.34-6.742,2.686-6.539,5.181c0.212,2.604,6.968,4.305,6.928,4.409c-0.04,0.103-5.912-3.53-8.188-1.889
	c-3.406,2.455-0.856,18.242,9.886,24.929c5.405,3.365,14.984,5.743,22.045,0.264c7.978-6.19,6.348-17.109,6.19-18.062
	c-1.145-6.892-6.172-14.398-14.502-16.26c-6.163-1.377-13.959,0.33-18.128,6.152c-5.367,7.495-1.154,16.822,0.33,20.105
	c1.5,3.321,4.987,11.098,12.195,12.085c6.879,0.942,14.294-4.689,14.104-8.304c-0.062-1.186-0.961-2.513-0.481-2.902
	c0.444-0.361,1.762,0.333,2.637,1.209c2.391,2.394,1.333,6.638,1.686,6.669c0.376,0.034,2.011-3.532,0.63-6.613
	c-1.082-2.413-3.56-3.507-3.464-3.653c0.161-0.245,6.203,4.266,7.117,3.338c0.612-0.621-0.913-3.84-3.527-5.29
	c-1.336-0.741-2.708-0.882-2.708-0.882c0,0.001,7.585,2.047,7.747,1.575c0.167-0.488-7.703-3.385-7.495-4.031
	c0.198-0.616,7.541,1.401,7.747,0.756c0.203-0.637-6.777-3.179-6.55-3.905c0.218-0.695,6.457,0.883,6.613,0.315
	c0.134-0.487-2.019-2.084-4.535-2.204c-2.104-0.101-3.758,0.87-3.779,0.819c-0.043-0.106,7.402-3.013,7.243-3.527
	c-0.161-0.521-8.079,1.627-8.251,1.071c-0.166-0.539,7.172-2.847,6.928-3.905c-0.123-0.532-2.138-0.624-3.716-0.378
	c-2.654,0.414-4.383,1.83-4.472,1.701c-0.166-0.242,6.147-4.688,5.857-5.164c-0.255-0.419-5.338,2.67-5.928,1.886
	c-0.576-0.764,3.395-4.849,3.472-4.784c0.09,0.076-4.542,6.232-5.29,5.794c-0.786-0.46,2.785-8.162,2.582-8.251
	c-0.19-0.083-2.748,6.916-4.472,6.613c-0.826-0.145-1.26-1.93-1.291-3.163c-0.076-2.973,2.117-5.504,2.299-5.402
	c0.281,0.158-3.238,7.234-3.716,7.054c-0.489-0.185,2.136-8.006,1.638-8.188c-0.433-0.158-2.66,5.678-3.406,5.437
	c-0.725-0.234,0.293-5.548,0.194-5.563c-0.114-0.018-1.056,7.272-1.763,7.243c-0.738-0.031-0.922-8.007-1.26-7.999
	c-0.336,0.008-0.387,7.92-0.882,7.936c-0.24,0.008-0.251-1.851-1.323-4.283c-0.761-1.728-1.941-3.476-2.33-3.338
	c-0.549,0.195,1.108,6.272,0.717,6.388c-0.265,0.079-0.736-1.851-2.582-3.296c-1.082-0.847-2.575-1.478-2.858-1.14
	c-0.62,0.74,4.71,5.927,4.409,6.235c-0.319,0.326-6.503-5.287-6.739-5.039c-0.222,0.234,5.079,5.374,4.661,5.857
	c-0.381,0.44-5.22-3.31-5.514-2.948c-0.278,0.341,3.775,3.955,3.562,4.207c-0.262,0.311-6.726-4.787-6.991-4.472
	c-0.265,0.315,5.905,5.716,5.29,6.55c-0.421,0.571-3.76-1.37-4.279-0.628c-0.369,0.528,0.974,2,0.659,2.307
	c-0.263,0.256-1.464-0.656-1.593-0.494c-0.11,0.137,0.873,0.659,1.208,1.648c0.573,1.689,0.036,4.284-1.428,4.944
	c-2.08,0.937-5.593-2.212-5.338-2.738c0.346-0.713,8.298,1.966,8.125,3.401c-0.099,0.82-2.85,1.198-2.787,1.48
	c0.042,0.191,1.319,0.09,1.318,0.055c-0.002-0.077-6.073-0.096-6.089,0.166c-0.019,0.306,8.253,0.773,8.251,1.449
	c-0.002,0.67-8.133,1.304-8.125,1.386c0.007,0.072,6.349-0.864,6.677,0.241c0.125,0.419-0.867,1.182-2.856,2.692
	c-2.086,1.583-3.218,2.22-3.128,2.421c0.207,0.462,6.404-2.406,6.918-1.542c0.533,0.896-5.174,5.561-5.281,5.447
	c-0.1-0.108,4.126-5.08,5.83-4.238c0.676,0.334,0.751,1.476,0.769,1.978c0.125,3.43-3.078,6.286-3.072,6.291
	c0.007,0.006,3.629-4.579,3.951-4.369c0.335,0.218-2.715,5.707-2.629,5.754c0.079,0.043,2.185-4.736,3.672-4.436
	c0.565,0.114,0.914,0.935,0.989,1.538c0.264,2.147-2.63,4.236-2.646,4.221c-0.018-0.018,3.319-3.547,3.58-3.342
	c0.188,0.148-1.262,2.191-1.044,2.362c0.227,0.178,1.959-1.909,2.252-1.703c0.378,0.266-1.925,4.161-1.765,4.257
	c0.165,0.1,2.588-4.082,3.358-3.763c0.606,0.251-0.165,3.135,0.33,3.296c0.509,0.165,1.724-3.018,2.527-2.802
	c0.618,0.166,0.549,1.956,0.934,1.978c0.294,0.017,0.331-1.482,0.714-1.538c0.632-0.092,1.608,3.776,1.9,3.71
	c0.287-0.064-0.494-3.847-0.032-3.985c0.474-0.142,2.048,3.623,2.236,3.544c0.171-0.071-1.279-3.078-0.479-3.709
	c0.286-0.226,0.687-0.051,1.263,0.11c2.205,0.615,5.53-1.358,5.765-3.329c0.011-0.09,0.102-0.854-0.272-1.066
	c-0.7-0.397-2.494,1.442-3.955,3.131"/>
<path class="st3" d="M371.316,57.507c-1.61-0.72-4.718-2.374-7.274-5.763c-0.935-1.239-4.039-5.683-3.684-11.904
	c0.113-1.976,0.331-5.808,3.212-9.069c4.624-5.235,11.905-4.243,12.47-4.157c1.203,0.184,3.214,0.657,5.29,1.984
	c4.176,2.669,5.557,6.835,6.141,8.597c0.6,1.811,1.627,4.91,0.661,8.597c-0.816,3.114-2.637,5.059-4.535,7.085
	c-1.927,2.058-3.39,3.62-5.857,4.535c-3.091,1.145-7.563,1.202-10.77-1.228c-2.454-1.859-3.21-5.207-4.724-11.904
	c-0.853-3.772-0.771-5.321-0.567-6.519c0.156-0.916,0.745-4.1,3.495-6.802c0.471-0.462,3.452-3.306,8.125-3.495
	c0.922-0.037,2.854-0.01,5.007,0.85c5.243,2.093,8.618,7.847,8.88,13.321c0.129,2.68-0.529,4.704-1.039,6.235
	c-0.384,1.152-2.524,7.569-7.274,10.203c-7.283,4.038-19.825-1.303-24.09-10.486c-3.184-6.855-0.755-13.693-0.283-15.021
	c0.633-1.782,2.878-7.808,9.164-11.148c8.951-4.756,18.234,0.114,19.745,0.945c6.064,3.333,8.718,8.533,9.542,10.203
	c0.905,1.835,3.786,7.906,1.984,15.399c-1.35,5.613-4.613,9.049-5.479,9.92c-3.503,3.519-7.301,4.764-8.975,5.29
	c-2.086,0.656-11.201,3.525-18.611-1.795c-4.936-3.543-6.451-8.807-7.18-11.337c-1.85-6.424-0.469-11.902,0.283-14.738
	c0.489-1.84,1.308-4.825,3.495-8.125c1.603-2.418,4.646-7.008,10.298-8.597c4.144-1.165,7.698-0.157,10.581,0.661
	c1.909,0.542,5.713,1.666,9.353,4.913c4.86,4.336,6.3,9.666,6.897,11.998c0.594,2.323,2.039,8.326-0.661,15.116
	c-2.473,6.218-6.969,9.441-7.936,10.109c-1.088,0.751-4.353,2.857-9.069,3.59c-7.518,1.169-17.3-1.372-22.107-8.691
	c-2.308-3.514-2.697-6.953-3.118-10.675c-0.65-5.752-1.59-11.959,2.078-17.288c4.17-6.058,11.567-7.214,13.604-7.463"/>
<path class="st2" d="M442.228,63.817c9.233,2.63,11.993,2.142,12.605,1.017c0.672-1.235-1.193-3.329-0.116-4.732
	c0.651-0.848,2.173-1.179,3.247-0.743c1.802,0.732,1.778,2.798,3.872,4.459c0.285,0.226,0.563,0.408,0.839,0.558c0,0,0,0,0,0
	c0.44,0.266,2.676,1.315,3.074,1.459c1.872,0.672,13.747-0.515,14.417-0.583c3.412-0.054,8.776-0.74,12.75-4.5
	c8.359-7.909,3.867-23.078,1.917-29.667c-1.621-5.473-6.101-20.604-18.51-24.935c-6.089-2.125-14.798-1.923-16.236,1.486
	c-0.575,1.363-0.405,3.497-1.873,4.607c-0.992,0.75-2.475,0.838-2.873,0.149c-0.286-0.495,0.046-1.117,0.375-2.229
	c0.679-2.295,0.777-5.487-0.383-6.162c-0.54-0.314-0.844,0.214-2.75,0.417c-0.288,0.031-0.834,0.078-3.333-0.083
	c-3.147-0.203-3.355-0.346-3.775-0.117c-1.664,0.91-1.178,4.716-1.124,5.499c1.388,20.02,4.692,39.781-2.997,48.75
	c-2.414,2.815-6.17,4.971-5.521,6.534c0.562,1.353,3.962,1.145,6.333,1c3.039-0.186,7.246-0.443,9.928-3.372
	c1.813-1.98,2.161-4.383,2.373-5.648c2.093-12.495-1.577-27.128,3.122-36.563c2.671-5.364,8.1-9.155,12.989-8.769
	c8.096,0.638,13.337,12.622,14.488,21.254c0.339,2.546,1.752,13.151-3.997,19.173c-4.454,4.666-10.63,3.882-13.114,3.567
	c-2.432-0.308-7.698-0.969-11.24-5.351c-8.551-10.576-3.497-32.292-8.118-42.359c-0.478-1.041-1.846-4.021-4.431-4.599
	c-1.359-0.304-3.029,0.061-3.236,0.772c-0.063,0.218-0.015,0.617,2.403,2.787c1.47,1.319,2.205,1.979,2.746,2.229
	c3.317,1.538,8.408-2.192,8.388-2.229c-0.025-0.046-8.549,4.031-8.368,4.756c0.059,0.236,5.144-2.832,7.369-1.04
	c0.903,0.727,1.261,2.188,0.874,3.27c-1.076,3.006-8.019,2.989-7.993,3.121c0.055,0.288,10.661-2.471,10.741-2.081
	c0.081,0.398-10.849,3.751-10.741,4.31c0.03,0.154,7.885-3.329,9.492-1.189c0.617,0.821,0.163,2.266-0.375,3.121
	c-2.103,3.346-8.745,2.805-8.742,2.824c0.059,0.427,7.814-0.854,7.868-0.446c0.011,0.085-7.152,0.147-7.868,2.675
	c-0.227,0.803,0.235,1.713,0.749,2.229c1.849,1.858,6.115,0.371,6.12,0.446c0.026,0.388-6.138,1.05-6.12,1.635
	c0.006,0.192,4.801-1.138,6.12,0.743c0.53,0.756,0.411,1.901,0,2.675c-1.376,2.594-6.649,2.199-6.619,2.527
	c0.063,0.692,6.572,0.182,6.619,0.743c0.04,0.476-6.648,1.302-6.619,1.784c0.028,0.477,6.619,0.161,6.651,0.669
	c0.01,0.158-4.891-0.528-6.557,1.895c-0.443,0.645-0.79,1.703-0.375,2.452c0.983,1.774,5.713,0.86,5.714,1.003
	c0.002,0.416-6.177,0.618-6.182,1.115c-0.005,0.523,6.846,0.906,6.838,1.338c-0.009,0.43-6.824,0.419-6.838,0.892
	c-0.014,0.497,7.509,1.13,7.494,1.449c-0.015,0.311-7.166-0.124-7.213,0.446c-0.019,0.229,6.379-0.279,7.4,2.229
	c0.399,0.981-0.082,2.28-0.843,3.01c-2.417,2.319-8.517-0.277-8.524-0.223c-0.057,0.464,8.109,2.146,8.056,2.564
	c0,0.001-5.004-2.412-8.805-0.446c-1.448,0.749-3.044,2.3-2.744,3.456c0.451,1.737,5.155,2.442,8.832,1.449
	c1.201-0.324,5.262-1.632,6.557-5.016c0.857-2.238,0.277-4.793,0.281-4.793c0.004,0-0.396,3.31,1.405,5.351
	c0.272,0.308,0.75,0.835,1.311,0.78c1.229-0.12,1.882-2.946,1.967-2.898c0.209,0.119-1.252,3.917-0.937,4.124
	c0.127,0.083,0.862-3.251,2.623-3.567c0.677-0.121,1.497,0.201,1.873,0.78c1.154,1.777-2.175,5.723-2.061,5.797
	c0.1,0.064,2.945-6.358,3.372-6.131c0.427,0.227-1.816,6.977-1.499,7.134c0.324,0.16,2.897-6.758,3.278-6.577
	c0.089,0.042-2.786,5.333-1.311,6.688c0.486,0.447,1.369,0.396,1.967,0.111c2.407-1.147,1.926-6.92,1.967-6.911
	c0.426,0.089-0.293,7.105-0.094,7.134c0.202,0.03,0.962-7.173,1.405-7.134c0.441,0.038,0.282,7.233,0.562,7.246
	c0.284,0.013,0.544-7.349,1.03-7.357c0.426-0.007,0.629,7.474,0.937,7.469c0.067-0.001-1.56-6.081,0.749-7.692
	c0.1-0.069,0.837-0.568,1.592-0.334c2.341,0.724,1.906,7.698,2.062,7.67c0.149-0.027-1.514-8.381-0.844-8.562
	c0.693-0.187,3.573,8.46,3.761,8.395c0.19-0.066-2.857-8.907-2.45-9.064c0.068-0.026,0.953,8.124,4.533,8.981
	c0.895,0.214,2.116,0.014,2.667-0.75c1.857-2.579-4.836-10.305-4.764-10.349c0.496-0.299,6.845,9.377,7.014,9.265
	c0.173-0.114-6.498-10.117-5.984-10.491c0.513-0.373,7.911,9.013,8.151,8.825c0.238-0.187-6.895-4.838-6.652-10.162
	c0.051-1.126,0.375-1.438,0.562-1.561c2.149-1.404,9.758,6.991,9.84,6.89c0.14-0.174-9.642-7.921-9.184-8.562
	c0.173-0.242,8.27,7.492,10.768,5.728c0.951-0.672,0.912-2.591,0.417-3.917c-1.732-4.629-10.324-5.385-10.247-5.602
	c0.288-0.82,10.117,1.869,10.164,1.685c0.05-0.195-9.383-0.296-10.164-3.58c-0.188-0.791,0.182-1.487,0.281-1.672
	c1.661-3.117,9.053-2.212,9.05-2.248c-0.044-0.464-8.786,0.206-8.862-0.428c-0.022-0.181,6.817,0.33,7.862-2.322
	c0.294-0.745,0.127-1.729-0.417-2.333c-1.861-2.067-7.86,0.645-7.914,0.42c-0.144-0.605,7.16-2.826,7.081-3.087
	c-0.006-0.018-6.156,3.067-7.737,1.303c-0.686-0.765-0.248-2.15-0.187-2.341c0.945-2.986,5.777-4.009,5.757-4.045
	c-0.139-0.263-5.937,2.859-6.319,2.262c-0.412-0.644,5.722-5.229,5.569-5.429c-0.145-0.19-5.71,3.936-5.944,3.645
	c-0.112-0.139,5.428-4.066,4.861-5.145c-0.303-0.576-2.193-0.056-2.379-0.616c-0.163-0.494,1.168-1.336,1.129-1.384
	c-0.217-0.261-4.723,3.353-5.016,3.021c-0.274-0.311,3.378-3.799,3.091-4.124c-0.143-0.162-2.708,2.87-4.121,2.229
	c-0.694-0.315-0.821-1.38-0.843-1.561c-0.269-2.246,2.285-4.24,2.154-4.347c-0.338-0.277-3.441,3.153-3.747,2.898
	c-0.328-0.273,2.889-4.516,2.565-4.782c-0.292-0.24-3.124,3.014-3.595,2.665c-0.263-0.195,1.916-2.268,1.311-3.902
	c-0.287-0.775-1.181-1.414-1.967-1.338c-1.566,0.152-2.392,3.162-2.623,3.01c-0.38-0.25,0.875-3.671,0.656-3.79
	c-0.089-0.048-0.746,3.281-2.154,3.456c-0.596,0.074-1.104-0.442-1.218-0.557c-1.356-1.377-0.436-4.333-0.562-4.347
	c-0.333-0.039-0.766,3.818-1.218,3.79c-0.272-0.017,0.52-3.518-0.937-4.459c-0.646-0.417-1.692-0.306-2.248,0.223
	c-1.152,1.096-0.036,3.831-0.281,3.902c-0.513,0.147-1.771-4.205-1.967-4.124c-0.207,0.085,1.16,4.92,0.749,5.128
	c-0.414,0.21-2.341-4.435-2.716-4.236c-0.137,0.073,1.662,2.808,0.656,4.682c-0.308,0.574-0.958,1.212-1.686,1.226
	c-1.149,0.023-1.996-1.57-2.248-1.338c-0.323,0.297,0.65,2.008,0.187,2.564c-0.403,0.485-1.49-0.395-1.873,0.111
	c-0.311,0.411,0.256,1.186,0,1.895c-0.252,0.698-1.365,1.245-2.061,1.003c-1.642-0.571,0.156-5.17-2.455-7.979
	c-1.539-1.656-4.11-1.358-4.083-2c0.026-0.631,2.428-0.947,2.417-1c-0.016-0.075-4.983-0.152-5.75,1.75
	c-1.303,3.232,10.395,10.009,9.25,12.25c-0.734,1.437-5.697-1.061-7.917,1.167c-1.719,1.725-0.241,4.725,1.083,11.5
	c1.784,9.127,1.431,15.591,0.417,20.417c-0.77,3.664-1.793,5.776-3.417,7.417c-2.831,2.861-7.142,3.941-7.417,3.417
	c-0.543-1.039,12.82-12.104,20-8.5c1.952,0.98,1.811,2.223,3.75,4.083c6.411,6.15,22.188,6.217,28.667-2.083
	c3.763-4.821,3.265-11.026,2.833-16.417c-0.518-6.464-2.67-11.095-4.25-14.417c-3.124-6.565-5.868-12.333-12.167-15.417
	c-5.923-2.9-12.041-1.982-15.5-1.083"/>
<path class="st1" d="M612.767,64.204c7.321-2.222,11.196-1.357,13.404,0c0.406,0.25,1.252,0.821,1.722,0.434
	c1.096-0.902-1.512-5.655-2.951-12.16c-1.326-5.992-2.74-18.352-0.246-24.899c0.246-0.645,1.048-2.594,0.369-3.619
	c-0.539-0.815-1.753-0.651-3.197-0.434c-7.708,1.156-10.172,2.009-11.928,0.434c-0.706-0.633-1.041-1.429-1.599-1.303
	c-0.856,0.194-1.416,2.377-1.23,4.198c0.234,2.282,1.613,3.736,2.213,4.488c5.089,6.372,3.12,23.584-0.984,28.373
	c-0.322,0.376-1.299,1.424-1.23,2.75c0.088,1.684,1.839,3.4,2.951,3.04c1.233-0.399,0.736-3.046,1.967-4.777
	c3.096-4.351,14.365,0.933,14.264,1.448c-0.071,0.362-5.544-2.682-12.543-0.579c-2.491,0.749-4.554,1.962-4.919,1.303
	c-0.37-0.669,1.14-3.022,2.951-4.343c5.163-3.766,13.051,0.652,13.035,0.724c-0.02,0.087-12.122-3.616-12.051-4.053
	c0.068-0.412,11.006,1.828,11.067,1.448c0.063-0.39-11.391-3.107-11.313-3.619c0.076-0.502,11.148,1.47,11.19,1.158
	c0.041-0.304-10.517-2.251-10.452-2.895c0.051-0.51,9.76,0.886,9.837,0.29c0.065-0.498-9.525-2.254-9.469-2.75
	c0.055-0.485,9.245,0.672,9.284,0.29c0.041-0.394-9.7-1.962-9.653-2.461c0.045-0.477,9.003,0.412,9.038,0
	c0.035-0.405-8.585-1.6-8.546-2.099c0.037-0.483,8.153,0.095,8.177-0.29c0.025-0.384-8.08-1.262-8.054-1.737
	c0.026-0.487,8.592-0.135,8.608-0.507c0.016-0.38-8.931-1.065-8.915-1.52c0.015-0.447,8.663-0.331,8.669-0.651
	c0.006-0.327-8.973-0.643-8.977-1.23c-0.004-0.582,8.802-0.994,8.792-1.448c-0.009-0.454-8.838-0.403-8.854-0.941
	c-0.016-0.537,8.746-1.156,8.731-1.665c-0.016-0.53-9.516-0.392-9.53-0.869c-0.014-0.492,10.096-1.11,10.083-1.592
	c-0.013-0.502-11.003-0.433-11.006-0.724c-0.003-0.29,10.945-0.576,10.944-0.941c-0.001-0.387-12.293-0.489-12.297-0.941
	c-0.004-0.46,12.733-0.905,12.727-1.23c-0.006-0.336-13.629-0.067-13.65-0.651c-0.021-0.598,14.221-1.524,14.203-2.099
	c-0.008-0.237-2.442-0.485-15.125-0.362"/>
<path class="st1" d="M614.5,3.196c-5.906,4.368-8.5,10.137-6.917,13.083c2.237,4.163,13.677,4.282,16.5-1.333
	c1.486-2.956,0.263-6.774-1.417-9.083c-0.493-0.678-3.068-4.218-6.583-3.833c-2.734,0.299-4.321,2.784-5.417,4.5
	c-1.089,1.706-2.917,4.569-1.75,7.333c1.128,2.67,4.274,3.412,5,3.583c0.694,0.164,3.711,0.875,6.25-1.083
	c0.34-0.263,1.93-1.543,2.417-3.833c0.593-2.79-0.744-5.704-3-7.167c-0.486-0.315-2.388-1.549-4.5-0.917
	c-3.285,0.983-3.734,5.48-3.75,5.667c-0.067,0.789-0.324,3.804,1.833,5.25c1.875,1.257,4.38,0.53,5.833-0.583
	c0.302-0.231,2.215-1.697,2.083-3.917c-0.141-2.378-2.564-4.515-4.583-4.167c-1.394,0.24-2.195,1.595-2.583,2.25
	c-0.411,0.693-1.634,2.76-0.583,4.167c0.948,1.269,3.344,1.461,4.5,0.25c0.821-0.86,0.687-2.084,0.667-2.25
	c-0.093-0.746-0.553-2.047-1.5-2.167c-1.128-0.143-2.323,1.468-2,2.167c0.233,0.503,1.24,0.509,1.583,0.5"/>
<path class="st3" d="M16.137,64.074c7.45-1.476,12.32-0.246,15.497,1.328c2.303,1.141,4.308,2.757,4.871,2.214
	c0.685-0.662-0.698-4.6-3.395-5.608c-3.56-1.331-6.17,3.657-11.512,3.099c-3.749-0.391-6.633-3.284-6.346-3.985
	c0.342-0.838,5.071,1.798,11.365,0.738c5.194-0.875,9.775-3.984,9.446-5.166c-0.216-0.776-2.555-0.733-6.007-0.671
	c-2.93,0.053-11.236,0.41-11.261,1.409c-0.022,0.905,6.727,3.575,11.955,0.59c3.549-2.026,6.275-6.588,5.018-8.855
	c-2.18-3.932-15.813-0.015-15.792,0.148c0.017,0.134,9.248-2.395,10.774,0.443c1.264,2.35-2.765,8.361-6.051,8.118
	c-4.847-0.359-10.146-14.482-5.756-18.744c3.341-3.244,11.847-0.339,11.807,0.295c-0.04,0.634-8.702,0.147-8.708,0.443
	c-0.006,0.292,8.417,2.123,10.627-1.181c1.147-1.714,0.485-4.607-1.033-6.199c-3.6-3.773-12.577-0.818-12.545,0.148
	c0.024,0.714,5.019,1.457,9.593,0.59c2.078-0.394,6.831-1.642,6.789-3.099c-0.048-1.684-6.44-1.546-14.169-6.494
	c-2.423-1.551-3.942-2.939-3.837-3.099c0.145-0.224,3.271,2.218,7.97,3.247c3.256,0.713,6.804,0.647,6.937,0
	c0.282-1.367-14.768-4.898-14.464-6.494c0.13-0.68,2.922-0.333,10.036-0.886c6.803-0.528,6.799-1.043,9.889-0.886
	c6.901,0.352,9.357,3.047,10.922,1.624c2.421-2.202-0.571-11.277-3.985-11.66c-0.992-0.111-1.62,0.557-2.657,1.181
	c-3.409,2.053-7.271,1.246-12.102,0.295c-16.895-3.323-20-3.352-22.729-1.624C5.43,6.505,3.607,8.579,4.035,9.465
	c0.432,0.897,2.953,0.139,5.756,0.148c5.597,0.018,8.218,3.08,12.102,4.575c9.882,3.804,22.176-4.749,21.991-5.313
	c-0.122-0.37-5.537,2.968-13.578,2.214c-5.323-0.499-7.552-2.393-14.759-3.099c-4.626-0.453-7.372-0.027-7.38-0.148
	C8.139,7.403,44.26,4.07,44.77,7.104c0.296,1.758-12.01,1.85-18.892,11.217c-3.292,4.481-3.417,8.463-5.018,22.581
	c-2.115,18.642-6.576,23.528-3.395,26.566c3.842,3.67,14.026,1.438,15.792-3.099c1.522-3.91-3.972-7.563-7.084-14.464
	c-2.772-6.144-4.176-16.015,2.804-32.027"/>
</svg>
